G04 #@! TF.GenerationSoftware,KiCad,Pcbnew,9.0.3*
G04 #@! TF.CreationDate,2026-01-26T15:41:31+00:00*
G04 #@! TF.ProjectId,4-up-blank,342d7570-2d62-46c6-916e-6b2e6b696361,rev?*
G04 #@! TF.SameCoordinates,Original*
G04 #@! TF.FileFunction,Copper,L1,Top*
G04 #@! TF.FilePolarity,Positive*
%FSLAX46Y46*%
G04 Gerber Fmt 4.6, Leading zero omitted, Abs format (unit mm)*
G04 Created by KiCad (PCBNEW 9.0.3) date 2026-01-26 15:41:31*
%MOMM*%
%LPD*%
G01*
G04 APERTURE LIST*
G04 #@! TA.AperFunction,ViaPad*
%ADD10C,0.600000*%
G04 #@! TD*
G04 APERTURE END LIST*
D10*
G04 #@! TO.N,/GND*
X92181928Y-50068600D03*
X76381928Y-47768600D03*
X92181928Y-37068600D03*
X76381928Y-34768600D03*
G04 #@! TD*
G04 #@! TA.AperFunction,Conductor*
G04 #@! TO.N,/GND*
G36*
X99983160Y-43527646D02*
G01*
X100024614Y-43569100D01*
X100138742Y-43634992D01*
X100266036Y-43669100D01*
X100266037Y-43669100D01*
X100397818Y-43669100D01*
X100397820Y-43669100D01*
X100525114Y-43634992D01*
X100603545Y-43589708D01*
X100631694Y-43586002D01*
X100643899Y-43591823D01*
X100795448Y-43701927D01*
X100795490Y-43701957D01*
X101005937Y-43809180D01*
X101230567Y-43882161D01*
X101463848Y-43919103D01*
X101581942Y-43919100D01*
X104516053Y-43919100D01*
X104516072Y-43919105D01*
X104579884Y-43919100D01*
X104584032Y-43919332D01*
X104630235Y-43924536D01*
X104688948Y-43931148D01*
X104697048Y-43932996D01*
X104794728Y-43967171D01*
X104802208Y-43970774D01*
X104889833Y-44025831D01*
X104896328Y-44031011D01*
X104969499Y-44104183D01*
X104974679Y-44110679D01*
X105029729Y-44198299D01*
X105033334Y-44205785D01*
X105067506Y-44303464D01*
X105069354Y-44311564D01*
X105081194Y-44416731D01*
X105081427Y-44420881D01*
X105081427Y-44427079D01*
X105081421Y-44484442D01*
X105081427Y-44484467D01*
X105081428Y-44486933D01*
X105081428Y-45536691D01*
X105118374Y-45769966D01*
X105118376Y-45769974D01*
X105191357Y-45994585D01*
X105191362Y-45994596D01*
X105298579Y-46205023D01*
X105298587Y-46205037D01*
X105408711Y-46356608D01*
X105415340Y-46384219D01*
X105410827Y-46396964D01*
X105369078Y-46469278D01*
X105365536Y-46475414D01*
X105331428Y-46602708D01*
X105331428Y-46734492D01*
X105346707Y-46791517D01*
X105365534Y-46861781D01*
X105365535Y-46861783D01*
X105365536Y-46861786D01*
X105431428Y-46975914D01*
X105472880Y-47017367D01*
X105483746Y-47043600D01*
X105472880Y-47069833D01*
X105431428Y-47111285D01*
X105365534Y-47225418D01*
X105339067Y-47324195D01*
X105331428Y-47352708D01*
X105331428Y-47484492D01*
X105346707Y-47541517D01*
X105365534Y-47611781D01*
X105365535Y-47611783D01*
X105365536Y-47611786D01*
X105431428Y-47725914D01*
X105472880Y-47767367D01*
X105483746Y-47793600D01*
X105472880Y-47819833D01*
X105431428Y-47861285D01*
X105365534Y-47975418D01*
X105351437Y-48028032D01*
X105331428Y-48102708D01*
X105331428Y-48234492D01*
X105342036Y-48274083D01*
X105365534Y-48361781D01*
X105365535Y-48361783D01*
X105365536Y-48361786D01*
X105410827Y-48440232D01*
X105414533Y-48468384D01*
X105408712Y-48480589D01*
X105298582Y-48632171D01*
X105298579Y-48632176D01*
X105191362Y-48842603D01*
X105191357Y-48842614D01*
X105118376Y-49067225D01*
X105118374Y-49067233D01*
X105081428Y-49300508D01*
X105081428Y-51917379D01*
X105081349Y-51919806D01*
X105064480Y-52177166D01*
X105063846Y-52181977D01*
X105013771Y-52433728D01*
X105012515Y-52438415D01*
X104930007Y-52681476D01*
X104928150Y-52685960D01*
X104814623Y-52916173D01*
X104812197Y-52920376D01*
X104669586Y-53133810D01*
X104666631Y-53137660D01*
X104497390Y-53330644D01*
X104493959Y-53334075D01*
X104300972Y-53503321D01*
X104297122Y-53506275D01*
X104083700Y-53648882D01*
X104079497Y-53651309D01*
X103849282Y-53764841D01*
X103844799Y-53766698D01*
X103601735Y-53849209D01*
X103597047Y-53850465D01*
X103345300Y-53900543D01*
X103340489Y-53901177D01*
X103083554Y-53918021D01*
X103081127Y-53918100D01*
X101581942Y-53918100D01*
X101463848Y-53918097D01*
X101463847Y-53918097D01*
X101230567Y-53955038D01*
X101230562Y-53955040D01*
X101005940Y-54028018D01*
X100795487Y-54135244D01*
X100643900Y-54245375D01*
X100616290Y-54252003D01*
X100603545Y-54247490D01*
X100525114Y-54202208D01*
X100525111Y-54202207D01*
X100525109Y-54202206D01*
X100434563Y-54177945D01*
X100397820Y-54168100D01*
X100266036Y-54168100D01*
X100237523Y-54175739D01*
X100138746Y-54202206D01*
X100138742Y-54202207D01*
X100138742Y-54202208D01*
X100098922Y-54225197D01*
X100024613Y-54268100D01*
X99983161Y-54309552D01*
X99956928Y-54320418D01*
X99930695Y-54309552D01*
X99889242Y-54268100D01*
X99775114Y-54202208D01*
X99775111Y-54202207D01*
X99775109Y-54202206D01*
X99684563Y-54177945D01*
X99647820Y-54168100D01*
X99516036Y-54168100D01*
X99487523Y-54175739D01*
X99388746Y-54202206D01*
X99388742Y-54202207D01*
X99388742Y-54202208D01*
X99348922Y-54225197D01*
X99274613Y-54268100D01*
X99233161Y-54309552D01*
X99206928Y-54320418D01*
X99180695Y-54309552D01*
X99139242Y-54268100D01*
X99025114Y-54202208D01*
X99025111Y-54202207D01*
X99025109Y-54202206D01*
X98934563Y-54177945D01*
X98897820Y-54168100D01*
X98766036Y-54168100D01*
X98719445Y-54180583D01*
X98638744Y-54202207D01*
X98560277Y-54247508D01*
X98532125Y-54251214D01*
X98519921Y-54245392D01*
X98368361Y-54135273D01*
X98157923Y-54028045D01*
X98157922Y-54028044D01*
X98157921Y-54028044D01*
X97933303Y-53955056D01*
X97933301Y-53955055D01*
X97933299Y-53955055D01*
X97700027Y-53918102D01*
X97700034Y-53918102D01*
X97649364Y-53918101D01*
X97647825Y-53918100D01*
X97647820Y-53918100D01*
X97581942Y-53918100D01*
X97516050Y-53918098D01*
X97516049Y-53918098D01*
X97513479Y-53918098D01*
X97513451Y-53918100D01*
X87450296Y-53918100D01*
X87447813Y-53918099D01*
X87447803Y-53918097D01*
X87399089Y-53918099D01*
X87384825Y-53918099D01*
X87384824Y-53918098D01*
X87379024Y-53917642D01*
X87295162Y-53904363D01*
X87284122Y-53900777D01*
X87211098Y-53863571D01*
X87201707Y-53856748D01*
X87143757Y-53798800D01*
X87136935Y-53789412D01*
X87099725Y-53716385D01*
X87096139Y-53705347D01*
X87091277Y-53674651D01*
X87082885Y-53621660D01*
X87082428Y-53615857D01*
X87082428Y-51797312D01*
X101281074Y-51797312D01*
X101281074Y-52039888D01*
X101312736Y-52280389D01*
X101375520Y-52514700D01*
X101375521Y-52514704D01*
X101375522Y-52514705D01*
X101468349Y-52738811D01*
X101468350Y-52738812D01*
X101589638Y-52948889D01*
X101589640Y-52948892D01*
X101589641Y-52948893D01*
X101737302Y-53141330D01*
X101737305Y-53141333D01*
X101737309Y-53141338D01*
X101908836Y-53312865D01*
X101908840Y-53312868D01*
X101908843Y-53312871D01*
X102101280Y-53460532D01*
X102101279Y-53460532D01*
X102101282Y-53460533D01*
X102101285Y-53460536D01*
X102311362Y-53581824D01*
X102535474Y-53674654D01*
X102769785Y-53737438D01*
X103010286Y-53769100D01*
X103010290Y-53769100D01*
X103252858Y-53769100D01*
X103252862Y-53769100D01*
X103493363Y-53737438D01*
X103727674Y-53674654D01*
X103951786Y-53581824D01*
X104161863Y-53460536D01*
X104354312Y-53312865D01*
X104525839Y-53141338D01*
X104673510Y-52948889D01*
X104794798Y-52738812D01*
X104887628Y-52514700D01*
X104950412Y-52280389D01*
X104982074Y-52039888D01*
X104982074Y-51797312D01*
X104950412Y-51556811D01*
X104887628Y-51322500D01*
X104794798Y-51098388D01*
X104673510Y-50888311D01*
X104643050Y-50848615D01*
X104525845Y-50695869D01*
X104525842Y-50695866D01*
X104525839Y-50695862D01*
X104354312Y-50524335D01*
X104354307Y-50524331D01*
X104354304Y-50524328D01*
X104161867Y-50376667D01*
X104161868Y-50376667D01*
X103951785Y-50255375D01*
X103727679Y-50162548D01*
X103727678Y-50162547D01*
X103727674Y-50162546D01*
X103493363Y-50099762D01*
X103493359Y-50099761D01*
X103379506Y-50084772D01*
X103252862Y-50068100D01*
X103010286Y-50068100D01*
X102898375Y-50082833D01*
X102769788Y-50099761D01*
X102769780Y-50099763D01*
X102670747Y-50126299D01*
X102535474Y-50162546D01*
X102535472Y-50162547D01*
X102535468Y-50162548D01*
X102311362Y-50255375D01*
X102101280Y-50376667D01*
X101908843Y-50524328D01*
X101737302Y-50695869D01*
X101589641Y-50888306D01*
X101468349Y-51098388D01*
X101375522Y-51322494D01*
X101375521Y-51322498D01*
X101312737Y-51556806D01*
X101312735Y-51556814D01*
X101293578Y-51702329D01*
X101281074Y-51797312D01*
X87082428Y-51797312D01*
X87082428Y-45521648D01*
X87082886Y-45515837D01*
X87092898Y-45452708D01*
X87096190Y-45431947D01*
X87099775Y-45420922D01*
X87137007Y-45347870D01*
X87143822Y-45338491D01*
X87201798Y-45280516D01*
X87211178Y-45273700D01*
X87284234Y-45236469D01*
X87295258Y-45232886D01*
X87366596Y-45221575D01*
X87379325Y-45219558D01*
X87385134Y-45219100D01*
X91333012Y-45219100D01*
X91333015Y-45219100D01*
X91335592Y-45218408D01*
X91339349Y-45217610D01*
X91454494Y-45199397D01*
X91574362Y-45160467D01*
X91686661Y-45103258D01*
X91788623Y-45029179D01*
X91813095Y-45004705D01*
X91815991Y-45002098D01*
X93017076Y-44031011D01*
X93145289Y-43927350D01*
X93168615Y-43919100D01*
X93944265Y-43919100D01*
X93957390Y-43924536D01*
X93970473Y-43929940D01*
X93970480Y-43929958D01*
X93970499Y-43929966D01*
X93981365Y-43956163D01*
X93981412Y-44003692D01*
X93981386Y-44003756D01*
X93981428Y-44050645D01*
X93981428Y-44086413D01*
X93981459Y-44086694D01*
X94011644Y-44218484D01*
X94070363Y-44340256D01*
X94154684Y-44445935D01*
X94260381Y-44530223D01*
X94260390Y-44530228D01*
X94382174Y-44588911D01*
X94382175Y-44588911D01*
X94382179Y-44588913D01*
X94513970Y-44619059D01*
X94515887Y-44619060D01*
X94516036Y-44619100D01*
X94581565Y-44619100D01*
X94581568Y-44619100D01*
X94647460Y-44619147D01*
X94647461Y-44619146D01*
X94649490Y-44619148D01*
X94650238Y-44619100D01*
X95747819Y-44619100D01*
X95747820Y-44619100D01*
X95875114Y-44584992D01*
X95989242Y-44519100D01*
X96578376Y-43929966D01*
X96604610Y-43919100D01*
X97516043Y-43919100D01*
X97516050Y-43919102D01*
X97581942Y-43919100D01*
X97647820Y-43919100D01*
X97650799Y-43919100D01*
X97650815Y-43919097D01*
X97700032Y-43919097D01*
X97933303Y-43882144D01*
X98157921Y-43809156D01*
X98368357Y-43701929D01*
X98519924Y-43591803D01*
X98547531Y-43585176D01*
X98560275Y-43589689D01*
X98638742Y-43634992D01*
X98766036Y-43669100D01*
X98766037Y-43669100D01*
X98897819Y-43669100D01*
X98897820Y-43669100D01*
X99025114Y-43634992D01*
X99139242Y-43569100D01*
X99180695Y-43527646D01*
X99206928Y-43516781D01*
X99233160Y-43527646D01*
X99274614Y-43569100D01*
X99388742Y-43634992D01*
X99516036Y-43669100D01*
X99516037Y-43669100D01*
X99647819Y-43669100D01*
X99647820Y-43669100D01*
X99775114Y-43634992D01*
X99889242Y-43569100D01*
X99930695Y-43527646D01*
X99956928Y-43516781D01*
X99983160Y-43527646D01*
G37*
G04 #@! TD.AperFunction*
G04 #@! TD*
G04 #@! TA.AperFunction,Conductor*
G04 #@! TO.N,/GND*
G36*
X69383160Y-43527646D02*
G01*
X69424614Y-43569100D01*
X69538742Y-43634992D01*
X69666036Y-43669100D01*
X69666037Y-43669100D01*
X69797818Y-43669100D01*
X69797820Y-43669100D01*
X69925114Y-43634992D01*
X70003545Y-43589708D01*
X70031694Y-43586002D01*
X70043899Y-43591823D01*
X70195448Y-43701927D01*
X70195490Y-43701957D01*
X70405937Y-43809180D01*
X70630567Y-43882161D01*
X70863848Y-43919103D01*
X70981942Y-43919100D01*
X81178990Y-43919100D01*
X81184794Y-43919556D01*
X81268658Y-43932842D01*
X81279691Y-43936427D01*
X81352714Y-43973636D01*
X81362101Y-43980457D01*
X81391075Y-44009432D01*
X81420048Y-44038407D01*
X81426870Y-44047797D01*
X81464074Y-44120814D01*
X81467661Y-44131853D01*
X81480971Y-44215891D01*
X81481428Y-44221695D01*
X81481428Y-52315552D01*
X81480970Y-52321363D01*
X81467665Y-52405259D01*
X81464078Y-52416294D01*
X81426845Y-52489351D01*
X81420024Y-52498738D01*
X81362046Y-52556719D01*
X81352659Y-52563540D01*
X81279606Y-52600774D01*
X81268571Y-52604362D01*
X81184849Y-52617642D01*
X81179037Y-52618100D01*
X77312161Y-52618100D01*
X77312151Y-52618095D01*
X77234866Y-52618090D01*
X77234865Y-52618090D01*
X77233773Y-52618090D01*
X77233710Y-52618100D01*
X77230841Y-52618100D01*
X77226697Y-52619210D01*
X77224585Y-52619544D01*
X77224517Y-52619554D01*
X77109294Y-52637798D01*
X77109287Y-52637799D01*
X76989430Y-52676742D01*
X76877150Y-52733961D01*
X76877140Y-52733967D01*
X76775188Y-52808055D01*
X76775185Y-52808058D01*
X76750744Y-52832505D01*
X76747834Y-52835124D01*
X75418564Y-53909850D01*
X75395238Y-53918100D01*
X74619591Y-53918100D01*
X74606284Y-53912588D01*
X74593384Y-53907260D01*
X74593376Y-53907242D01*
X74593357Y-53907234D01*
X74582491Y-53881037D01*
X74582428Y-53818100D01*
X74582428Y-53751278D01*
X74582342Y-53750519D01*
X74552181Y-53618788D01*
X74552179Y-53618784D01*
X74493500Y-53497045D01*
X74493496Y-53497038D01*
X74409241Y-53391391D01*
X74409238Y-53391388D01*
X74409235Y-53391384D01*
X74303598Y-53307090D01*
X74181872Y-53248375D01*
X74050142Y-53218176D01*
X74050138Y-53218175D01*
X74050135Y-53218175D01*
X74048093Y-53218172D01*
X74047820Y-53218100D01*
X73982574Y-53218100D01*
X73982568Y-53218100D01*
X73914948Y-53218013D01*
X73913624Y-53218100D01*
X72947820Y-53218100D01*
X72816035Y-53218100D01*
X72776613Y-53228663D01*
X72703047Y-53248374D01*
X72703047Y-53248375D01*
X72688742Y-53252208D01*
X72574612Y-53318100D01*
X72574613Y-53318101D01*
X71985480Y-53907234D01*
X71959246Y-53918100D01*
X70981942Y-53918100D01*
X70863848Y-53918097D01*
X70863847Y-53918097D01*
X70630567Y-53955038D01*
X70630562Y-53955040D01*
X70405940Y-54028018D01*
X70195487Y-54135244D01*
X70043900Y-54245375D01*
X70016290Y-54252003D01*
X70003545Y-54247490D01*
X69925114Y-54202208D01*
X69925111Y-54202207D01*
X69925109Y-54202206D01*
X69834563Y-54177945D01*
X69797820Y-54168100D01*
X69666036Y-54168100D01*
X69637523Y-54175739D01*
X69538746Y-54202206D01*
X69538742Y-54202207D01*
X69538742Y-54202208D01*
X69509484Y-54219100D01*
X69424613Y-54268100D01*
X69383161Y-54309552D01*
X69356928Y-54320418D01*
X69330695Y-54309552D01*
X69289242Y-54268100D01*
X69175114Y-54202208D01*
X69175111Y-54202207D01*
X69175109Y-54202206D01*
X69084563Y-54177945D01*
X69047820Y-54168100D01*
X68916036Y-54168100D01*
X68887523Y-54175739D01*
X68788746Y-54202206D01*
X68788742Y-54202207D01*
X68788742Y-54202208D01*
X68759484Y-54219100D01*
X68674613Y-54268100D01*
X68633161Y-54309552D01*
X68606928Y-54320418D01*
X68580695Y-54309552D01*
X68539242Y-54268100D01*
X68425114Y-54202208D01*
X68425111Y-54202207D01*
X68425109Y-54202206D01*
X68334563Y-54177945D01*
X68297820Y-54168100D01*
X68166036Y-54168100D01*
X68119445Y-54180583D01*
X68038744Y-54202207D01*
X67960277Y-54247508D01*
X67932125Y-54251214D01*
X67919921Y-54245392D01*
X67768361Y-54135273D01*
X67557923Y-54028045D01*
X67557922Y-54028044D01*
X67557921Y-54028044D01*
X67333303Y-53955056D01*
X67333301Y-53955055D01*
X67333299Y-53955055D01*
X67100027Y-53918102D01*
X67100034Y-53918102D01*
X67049364Y-53918101D01*
X67047825Y-53918100D01*
X67047820Y-53918100D01*
X66981942Y-53918100D01*
X66916050Y-53918098D01*
X66916049Y-53918098D01*
X66913479Y-53918098D01*
X66913451Y-53918100D01*
X64050224Y-53918100D01*
X64047789Y-53918099D01*
X64047756Y-53918091D01*
X63988663Y-53918099D01*
X63983940Y-53918099D01*
X63983939Y-53918098D01*
X63979791Y-53917866D01*
X63874875Y-53906057D01*
X63866774Y-53904209D01*
X63769091Y-53870036D01*
X63761607Y-53866433D01*
X63673975Y-53811376D01*
X63667485Y-53806200D01*
X63613680Y-53752396D01*
X63594309Y-53733026D01*
X63589129Y-53726531D01*
X63534073Y-53638906D01*
X63530468Y-53631419D01*
X63496294Y-53533737D01*
X63494446Y-53525637D01*
X63482661Y-53420969D01*
X63482428Y-53416818D01*
X63482435Y-53352758D01*
X63482428Y-53352731D01*
X63482428Y-52352708D01*
X63482428Y-52300508D01*
X63445481Y-52067232D01*
X63372496Y-51842608D01*
X63265271Y-51632167D01*
X63265270Y-51632166D01*
X63265268Y-51632162D01*
X63155142Y-51480589D01*
X63148513Y-51452979D01*
X63153024Y-51440239D01*
X63198320Y-51361786D01*
X63232428Y-51234492D01*
X63232428Y-51102708D01*
X63198320Y-50975414D01*
X63132428Y-50861286D01*
X63090974Y-50819832D01*
X63080109Y-50793600D01*
X63090974Y-50767367D01*
X63132428Y-50725914D01*
X63198320Y-50611786D01*
X63232428Y-50484492D01*
X63232428Y-50352708D01*
X63198320Y-50225414D01*
X63132428Y-50111286D01*
X63090974Y-50069832D01*
X63080109Y-50043600D01*
X63090974Y-50017367D01*
X63132428Y-49975914D01*
X63198320Y-49861786D01*
X63232428Y-49734492D01*
X63232428Y-49602708D01*
X63198320Y-49475414D01*
X63153026Y-49396964D01*
X63149320Y-49368814D01*
X63155140Y-49356612D01*
X63265271Y-49205033D01*
X63372496Y-48994592D01*
X63445481Y-48769968D01*
X63482428Y-48536692D01*
X63482428Y-48418600D01*
X63482428Y-48352708D01*
X63482428Y-45919820D01*
X63482507Y-45917394D01*
X63486747Y-45852708D01*
X63490378Y-45797312D01*
X63581782Y-45797312D01*
X63581782Y-46039888D01*
X63613444Y-46280389D01*
X63676228Y-46514700D01*
X63676229Y-46514704D01*
X63676230Y-46514705D01*
X63769057Y-46738811D01*
X63769058Y-46738812D01*
X63890346Y-46948889D01*
X63890348Y-46948892D01*
X63890349Y-46948893D01*
X64038010Y-47141330D01*
X64038013Y-47141333D01*
X64038017Y-47141338D01*
X64209544Y-47312865D01*
X64209548Y-47312868D01*
X64209551Y-47312871D01*
X64401988Y-47460532D01*
X64401987Y-47460532D01*
X64401990Y-47460533D01*
X64401993Y-47460536D01*
X64612070Y-47581824D01*
X64836182Y-47674654D01*
X65070493Y-47737438D01*
X65310994Y-47769100D01*
X65310998Y-47769100D01*
X65553566Y-47769100D01*
X65553570Y-47769100D01*
X65794071Y-47737438D01*
X66028382Y-47674654D01*
X66252494Y-47581824D01*
X66462571Y-47460536D01*
X66655020Y-47312865D01*
X66826547Y-47141338D01*
X66974218Y-46948889D01*
X67095506Y-46738812D01*
X67188336Y-46514700D01*
X67251120Y-46280389D01*
X67282782Y-46039888D01*
X67282782Y-45797312D01*
X67251120Y-45556811D01*
X67188336Y-45322500D01*
X67095506Y-45098388D01*
X66974218Y-44888311D01*
X66938563Y-44841844D01*
X66826553Y-44695869D01*
X66826550Y-44695866D01*
X66826547Y-44695862D01*
X66655020Y-44524335D01*
X66655015Y-44524331D01*
X66655012Y-44524328D01*
X66462575Y-44376667D01*
X66462576Y-44376667D01*
X66252493Y-44255375D01*
X66028387Y-44162548D01*
X66028386Y-44162547D01*
X66028382Y-44162546D01*
X65794071Y-44099762D01*
X65794067Y-44099761D01*
X65680214Y-44084772D01*
X65553570Y-44068100D01*
X65310994Y-44068100D01*
X65199083Y-44082833D01*
X65070496Y-44099761D01*
X65070488Y-44099763D01*
X64972382Y-44126051D01*
X64836182Y-44162546D01*
X64836180Y-44162547D01*
X64836176Y-44162548D01*
X64612070Y-44255375D01*
X64401988Y-44376667D01*
X64209551Y-44524328D01*
X64038010Y-44695869D01*
X63890349Y-44888306D01*
X63769057Y-45098388D01*
X63745305Y-45155732D01*
X63676228Y-45322500D01*
X63654529Y-45403481D01*
X63613445Y-45556806D01*
X63613443Y-45556814D01*
X63600173Y-45657615D01*
X63581782Y-45797312D01*
X63490378Y-45797312D01*
X63499375Y-45660033D01*
X63500009Y-45655226D01*
X63550085Y-45403475D01*
X63551340Y-45398794D01*
X63577241Y-45322494D01*
X63633852Y-45155724D01*
X63635700Y-45151261D01*
X63749241Y-44921025D01*
X63751655Y-44916844D01*
X63894273Y-44703403D01*
X63897212Y-44699573D01*
X64066471Y-44506572D01*
X64069888Y-44503155D01*
X64262888Y-44333900D01*
X64266721Y-44330959D01*
X64480166Y-44188342D01*
X64484345Y-44185929D01*
X64714584Y-44072390D01*
X64719042Y-44070544D01*
X64962127Y-43988030D01*
X64966789Y-43986782D01*
X65218550Y-43936705D01*
X65223354Y-43936072D01*
X65481148Y-43919178D01*
X65483564Y-43919100D01*
X65547814Y-43919101D01*
X65547818Y-43919100D01*
X66913451Y-43919100D01*
X66913479Y-43919101D01*
X66916046Y-43919100D01*
X66916050Y-43919102D01*
X66981942Y-43919100D01*
X67047820Y-43919100D01*
X67050799Y-43919100D01*
X67050815Y-43919097D01*
X67100032Y-43919097D01*
X67333303Y-43882144D01*
X67557921Y-43809156D01*
X67768357Y-43701929D01*
X67919924Y-43591803D01*
X67947531Y-43585176D01*
X67960275Y-43589689D01*
X68038742Y-43634992D01*
X68166036Y-43669100D01*
X68166037Y-43669100D01*
X68297819Y-43669100D01*
X68297820Y-43669100D01*
X68425114Y-43634992D01*
X68539242Y-43569100D01*
X68580695Y-43527646D01*
X68606928Y-43516781D01*
X68633160Y-43527646D01*
X68674614Y-43569100D01*
X68788742Y-43634992D01*
X68916036Y-43669100D01*
X68916037Y-43669100D01*
X69047819Y-43669100D01*
X69047820Y-43669100D01*
X69175114Y-43634992D01*
X69289242Y-43569100D01*
X69330695Y-43527646D01*
X69356928Y-43516781D01*
X69383160Y-43527646D01*
G37*
G04 #@! TD.AperFunction*
G04 #@! TD*
G04 #@! TA.AperFunction,Conductor*
G04 #@! TO.N,/GND*
G36*
X99983160Y-30527646D02*
G01*
X100024614Y-30569100D01*
X100138742Y-30634992D01*
X100266036Y-30669100D01*
X100266037Y-30669100D01*
X100397818Y-30669100D01*
X100397820Y-30669100D01*
X100525114Y-30634992D01*
X100603545Y-30589708D01*
X100631694Y-30586002D01*
X100643899Y-30591823D01*
X100795448Y-30701927D01*
X100795490Y-30701957D01*
X101005937Y-30809180D01*
X101230567Y-30882161D01*
X101463848Y-30919103D01*
X101581942Y-30919100D01*
X104516053Y-30919100D01*
X104516072Y-30919105D01*
X104579884Y-30919100D01*
X104584032Y-30919332D01*
X104630235Y-30924536D01*
X104688948Y-30931148D01*
X104697048Y-30932996D01*
X104794728Y-30967171D01*
X104802208Y-30970774D01*
X104889833Y-31025831D01*
X104896328Y-31031011D01*
X104969499Y-31104183D01*
X104974679Y-31110679D01*
X105029729Y-31198299D01*
X105033334Y-31205785D01*
X105067506Y-31303464D01*
X105069354Y-31311564D01*
X105081194Y-31416731D01*
X105081427Y-31420881D01*
X105081427Y-31427079D01*
X105081421Y-31484442D01*
X105081427Y-31484467D01*
X105081428Y-31486933D01*
X105081428Y-32536691D01*
X105118374Y-32769966D01*
X105118376Y-32769974D01*
X105191357Y-32994585D01*
X105191362Y-32994596D01*
X105298579Y-33205023D01*
X105298587Y-33205037D01*
X105408711Y-33356608D01*
X105415340Y-33384219D01*
X105410827Y-33396964D01*
X105369078Y-33469278D01*
X105365536Y-33475414D01*
X105331428Y-33602708D01*
X105331428Y-33734492D01*
X105346707Y-33791517D01*
X105365534Y-33861781D01*
X105365535Y-33861783D01*
X105365536Y-33861786D01*
X105431428Y-33975914D01*
X105472880Y-34017367D01*
X105483746Y-34043600D01*
X105472880Y-34069833D01*
X105431428Y-34111285D01*
X105365534Y-34225418D01*
X105339067Y-34324195D01*
X105331428Y-34352708D01*
X105331428Y-34484492D01*
X105346707Y-34541517D01*
X105365534Y-34611781D01*
X105365535Y-34611783D01*
X105365536Y-34611786D01*
X105431428Y-34725914D01*
X105472880Y-34767367D01*
X105483746Y-34793600D01*
X105472880Y-34819833D01*
X105431428Y-34861285D01*
X105365534Y-34975418D01*
X105351437Y-35028032D01*
X105331428Y-35102708D01*
X105331428Y-35234492D01*
X105342036Y-35274083D01*
X105365534Y-35361781D01*
X105365535Y-35361783D01*
X105365536Y-35361786D01*
X105410827Y-35440232D01*
X105414533Y-35468384D01*
X105408712Y-35480589D01*
X105298582Y-35632171D01*
X105298579Y-35632176D01*
X105191362Y-35842603D01*
X105191357Y-35842614D01*
X105118376Y-36067225D01*
X105118374Y-36067233D01*
X105081428Y-36300508D01*
X105081428Y-38917379D01*
X105081349Y-38919806D01*
X105064480Y-39177166D01*
X105063846Y-39181977D01*
X105013771Y-39433728D01*
X105012515Y-39438415D01*
X104930007Y-39681476D01*
X104928150Y-39685960D01*
X104814623Y-39916173D01*
X104812197Y-39920376D01*
X104669586Y-40133810D01*
X104666631Y-40137660D01*
X104497390Y-40330644D01*
X104493959Y-40334075D01*
X104300972Y-40503321D01*
X104297122Y-40506275D01*
X104083700Y-40648882D01*
X104079497Y-40651309D01*
X103849282Y-40764841D01*
X103844799Y-40766698D01*
X103601735Y-40849209D01*
X103597047Y-40850465D01*
X103345300Y-40900543D01*
X103340489Y-40901177D01*
X103083554Y-40918021D01*
X103081127Y-40918100D01*
X101581942Y-40918100D01*
X101463848Y-40918097D01*
X101463847Y-40918097D01*
X101230567Y-40955038D01*
X101230562Y-40955040D01*
X101005940Y-41028018D01*
X100795487Y-41135244D01*
X100643900Y-41245375D01*
X100616290Y-41252003D01*
X100603545Y-41247490D01*
X100525114Y-41202208D01*
X100525111Y-41202207D01*
X100525109Y-41202206D01*
X100434563Y-41177945D01*
X100397820Y-41168100D01*
X100266036Y-41168100D01*
X100237523Y-41175739D01*
X100138746Y-41202206D01*
X100138742Y-41202207D01*
X100138742Y-41202208D01*
X100098922Y-41225197D01*
X100024613Y-41268100D01*
X99983161Y-41309552D01*
X99956928Y-41320418D01*
X99930695Y-41309552D01*
X99889242Y-41268100D01*
X99775114Y-41202208D01*
X99775111Y-41202207D01*
X99775109Y-41202206D01*
X99684563Y-41177945D01*
X99647820Y-41168100D01*
X99516036Y-41168100D01*
X99487523Y-41175739D01*
X99388746Y-41202206D01*
X99388742Y-41202207D01*
X99388742Y-41202208D01*
X99348922Y-41225197D01*
X99274613Y-41268100D01*
X99233161Y-41309552D01*
X99206928Y-41320418D01*
X99180695Y-41309552D01*
X99139242Y-41268100D01*
X99025114Y-41202208D01*
X99025111Y-41202207D01*
X99025109Y-41202206D01*
X98934563Y-41177945D01*
X98897820Y-41168100D01*
X98766036Y-41168100D01*
X98719445Y-41180583D01*
X98638744Y-41202207D01*
X98560277Y-41247508D01*
X98532125Y-41251214D01*
X98519921Y-41245392D01*
X98368361Y-41135273D01*
X98157923Y-41028045D01*
X98157922Y-41028044D01*
X98157921Y-41028044D01*
X97933303Y-40955056D01*
X97933301Y-40955055D01*
X97933299Y-40955055D01*
X97700027Y-40918102D01*
X97700034Y-40918102D01*
X97649364Y-40918101D01*
X97647825Y-40918100D01*
X97647820Y-40918100D01*
X97581942Y-40918100D01*
X97516050Y-40918098D01*
X97516049Y-40918098D01*
X97513479Y-40918098D01*
X97513451Y-40918100D01*
X87450296Y-40918100D01*
X87447813Y-40918099D01*
X87447803Y-40918097D01*
X87399089Y-40918099D01*
X87384825Y-40918099D01*
X87384824Y-40918098D01*
X87379024Y-40917642D01*
X87295162Y-40904363D01*
X87284122Y-40900777D01*
X87211098Y-40863571D01*
X87201707Y-40856748D01*
X87143757Y-40798800D01*
X87136935Y-40789412D01*
X87099725Y-40716385D01*
X87096139Y-40705347D01*
X87091277Y-40674651D01*
X87082885Y-40621660D01*
X87082428Y-40615857D01*
X87082428Y-38797312D01*
X101281074Y-38797312D01*
X101281074Y-39039888D01*
X101312736Y-39280389D01*
X101375520Y-39514700D01*
X101375521Y-39514704D01*
X101375522Y-39514705D01*
X101468349Y-39738811D01*
X101468350Y-39738812D01*
X101589638Y-39948889D01*
X101589640Y-39948892D01*
X101589641Y-39948893D01*
X101737302Y-40141330D01*
X101737305Y-40141333D01*
X101737309Y-40141338D01*
X101908836Y-40312865D01*
X101908840Y-40312868D01*
X101908843Y-40312871D01*
X102101280Y-40460532D01*
X102101279Y-40460532D01*
X102101282Y-40460533D01*
X102101285Y-40460536D01*
X102311362Y-40581824D01*
X102535474Y-40674654D01*
X102769785Y-40737438D01*
X103010286Y-40769100D01*
X103010290Y-40769100D01*
X103252858Y-40769100D01*
X103252862Y-40769100D01*
X103493363Y-40737438D01*
X103727674Y-40674654D01*
X103951786Y-40581824D01*
X104161863Y-40460536D01*
X104354312Y-40312865D01*
X104525839Y-40141338D01*
X104673510Y-39948889D01*
X104794798Y-39738812D01*
X104887628Y-39514700D01*
X104950412Y-39280389D01*
X104982074Y-39039888D01*
X104982074Y-38797312D01*
X104950412Y-38556811D01*
X104887628Y-38322500D01*
X104794798Y-38098388D01*
X104673510Y-37888311D01*
X104643050Y-37848615D01*
X104525845Y-37695869D01*
X104525842Y-37695866D01*
X104525839Y-37695862D01*
X104354312Y-37524335D01*
X104354307Y-37524331D01*
X104354304Y-37524328D01*
X104161867Y-37376667D01*
X104161868Y-37376667D01*
X103951785Y-37255375D01*
X103727679Y-37162548D01*
X103727678Y-37162547D01*
X103727674Y-37162546D01*
X103493363Y-37099762D01*
X103493359Y-37099761D01*
X103379506Y-37084772D01*
X103252862Y-37068100D01*
X103010286Y-37068100D01*
X102898375Y-37082833D01*
X102769788Y-37099761D01*
X102769780Y-37099763D01*
X102670747Y-37126299D01*
X102535474Y-37162546D01*
X102535472Y-37162547D01*
X102535468Y-37162548D01*
X102311362Y-37255375D01*
X102101280Y-37376667D01*
X101908843Y-37524328D01*
X101737302Y-37695869D01*
X101589641Y-37888306D01*
X101468349Y-38098388D01*
X101375522Y-38322494D01*
X101375521Y-38322498D01*
X101312737Y-38556806D01*
X101312735Y-38556814D01*
X101293578Y-38702329D01*
X101281074Y-38797312D01*
X87082428Y-38797312D01*
X87082428Y-32521648D01*
X87082886Y-32515837D01*
X87092898Y-32452708D01*
X87096190Y-32431947D01*
X87099775Y-32420922D01*
X87137007Y-32347870D01*
X87143822Y-32338491D01*
X87201798Y-32280516D01*
X87211178Y-32273700D01*
X87284234Y-32236469D01*
X87295258Y-32232886D01*
X87366596Y-32221575D01*
X87379325Y-32219558D01*
X87385134Y-32219100D01*
X91333012Y-32219100D01*
X91333015Y-32219100D01*
X91335592Y-32218408D01*
X91339349Y-32217610D01*
X91454494Y-32199397D01*
X91574362Y-32160467D01*
X91686661Y-32103258D01*
X91788623Y-32029179D01*
X91813095Y-32004705D01*
X91815991Y-32002098D01*
X93017076Y-31031011D01*
X93145289Y-30927350D01*
X93168615Y-30919100D01*
X93944265Y-30919100D01*
X93957390Y-30924536D01*
X93970473Y-30929940D01*
X93970480Y-30929958D01*
X93970499Y-30929966D01*
X93981365Y-30956163D01*
X93981412Y-31003692D01*
X93981386Y-31003756D01*
X93981428Y-31050645D01*
X93981428Y-31086413D01*
X93981459Y-31086694D01*
X94011644Y-31218484D01*
X94070363Y-31340256D01*
X94154684Y-31445935D01*
X94260381Y-31530223D01*
X94260390Y-31530228D01*
X94382174Y-31588911D01*
X94382175Y-31588911D01*
X94382179Y-31588913D01*
X94513970Y-31619059D01*
X94515887Y-31619060D01*
X94516036Y-31619100D01*
X94581565Y-31619100D01*
X94581568Y-31619100D01*
X94647460Y-31619147D01*
X94647461Y-31619146D01*
X94649490Y-31619148D01*
X94650238Y-31619100D01*
X95747819Y-31619100D01*
X95747820Y-31619100D01*
X95875114Y-31584992D01*
X95989242Y-31519100D01*
X96578376Y-30929966D01*
X96604610Y-30919100D01*
X97516043Y-30919100D01*
X97516050Y-30919102D01*
X97581942Y-30919100D01*
X97647820Y-30919100D01*
X97650799Y-30919100D01*
X97650815Y-30919097D01*
X97700032Y-30919097D01*
X97933303Y-30882144D01*
X98157921Y-30809156D01*
X98368357Y-30701929D01*
X98519924Y-30591803D01*
X98547531Y-30585176D01*
X98560275Y-30589689D01*
X98638742Y-30634992D01*
X98766036Y-30669100D01*
X98766037Y-30669100D01*
X98897819Y-30669100D01*
X98897820Y-30669100D01*
X99025114Y-30634992D01*
X99139242Y-30569100D01*
X99180695Y-30527646D01*
X99206928Y-30516781D01*
X99233160Y-30527646D01*
X99274614Y-30569100D01*
X99388742Y-30634992D01*
X99516036Y-30669100D01*
X99516037Y-30669100D01*
X99647819Y-30669100D01*
X99647820Y-30669100D01*
X99775114Y-30634992D01*
X99889242Y-30569100D01*
X99930695Y-30527646D01*
X99956928Y-30516781D01*
X99983160Y-30527646D01*
G37*
G04 #@! TD.AperFunction*
G04 #@! TD*
G04 #@! TA.AperFunction,Conductor*
G04 #@! TO.N,/GND*
G36*
X69383160Y-30527646D02*
G01*
X69424614Y-30569100D01*
X69538742Y-30634992D01*
X69666036Y-30669100D01*
X69666037Y-30669100D01*
X69797818Y-30669100D01*
X69797820Y-30669100D01*
X69925114Y-30634992D01*
X70003545Y-30589708D01*
X70031694Y-30586002D01*
X70043899Y-30591823D01*
X70195448Y-30701927D01*
X70195490Y-30701957D01*
X70405937Y-30809180D01*
X70630567Y-30882161D01*
X70863848Y-30919103D01*
X70981942Y-30919100D01*
X81178990Y-30919100D01*
X81184794Y-30919556D01*
X81268658Y-30932842D01*
X81279691Y-30936427D01*
X81352714Y-30973636D01*
X81362101Y-30980457D01*
X81391075Y-31009432D01*
X81420048Y-31038407D01*
X81426870Y-31047797D01*
X81464074Y-31120814D01*
X81467661Y-31131853D01*
X81480971Y-31215891D01*
X81481428Y-31221695D01*
X81481428Y-39315552D01*
X81480970Y-39321363D01*
X81467665Y-39405259D01*
X81464078Y-39416294D01*
X81426845Y-39489351D01*
X81420024Y-39498738D01*
X81362046Y-39556719D01*
X81352659Y-39563540D01*
X81279606Y-39600774D01*
X81268571Y-39604362D01*
X81184849Y-39617642D01*
X81179037Y-39618100D01*
X77312161Y-39618100D01*
X77312151Y-39618095D01*
X77234866Y-39618090D01*
X77234865Y-39618090D01*
X77233773Y-39618090D01*
X77233710Y-39618100D01*
X77230841Y-39618100D01*
X77226697Y-39619210D01*
X77224585Y-39619544D01*
X77224517Y-39619554D01*
X77109294Y-39637798D01*
X77109287Y-39637799D01*
X76989430Y-39676742D01*
X76877150Y-39733961D01*
X76877140Y-39733967D01*
X76775188Y-39808055D01*
X76775185Y-39808058D01*
X76750744Y-39832505D01*
X76747834Y-39835124D01*
X75418564Y-40909850D01*
X75395238Y-40918100D01*
X74619591Y-40918100D01*
X74606284Y-40912588D01*
X74593384Y-40907260D01*
X74593376Y-40907242D01*
X74593357Y-40907234D01*
X74582491Y-40881037D01*
X74582428Y-40818100D01*
X74582428Y-40751278D01*
X74582342Y-40750519D01*
X74552181Y-40618788D01*
X74552179Y-40618784D01*
X74493500Y-40497045D01*
X74493496Y-40497038D01*
X74409241Y-40391391D01*
X74409238Y-40391388D01*
X74409235Y-40391384D01*
X74303598Y-40307090D01*
X74181872Y-40248375D01*
X74050142Y-40218176D01*
X74050138Y-40218175D01*
X74050135Y-40218175D01*
X74048093Y-40218172D01*
X74047820Y-40218100D01*
X73982574Y-40218100D01*
X73982568Y-40218100D01*
X73914948Y-40218013D01*
X73913624Y-40218100D01*
X72947820Y-40218100D01*
X72816035Y-40218100D01*
X72776613Y-40228663D01*
X72703047Y-40248374D01*
X72703047Y-40248375D01*
X72688742Y-40252208D01*
X72574612Y-40318100D01*
X72574613Y-40318101D01*
X71985480Y-40907234D01*
X71959246Y-40918100D01*
X70981942Y-40918100D01*
X70863848Y-40918097D01*
X70863847Y-40918097D01*
X70630567Y-40955038D01*
X70630562Y-40955040D01*
X70405940Y-41028018D01*
X70195487Y-41135244D01*
X70043900Y-41245375D01*
X70016290Y-41252003D01*
X70003545Y-41247490D01*
X69925114Y-41202208D01*
X69925111Y-41202207D01*
X69925109Y-41202206D01*
X69834563Y-41177945D01*
X69797820Y-41168100D01*
X69666036Y-41168100D01*
X69637523Y-41175739D01*
X69538746Y-41202206D01*
X69538742Y-41202207D01*
X69538742Y-41202208D01*
X69509484Y-41219100D01*
X69424613Y-41268100D01*
X69383161Y-41309552D01*
X69356928Y-41320418D01*
X69330695Y-41309552D01*
X69289242Y-41268100D01*
X69175114Y-41202208D01*
X69175111Y-41202207D01*
X69175109Y-41202206D01*
X69084563Y-41177945D01*
X69047820Y-41168100D01*
X68916036Y-41168100D01*
X68887523Y-41175739D01*
X68788746Y-41202206D01*
X68788742Y-41202207D01*
X68788742Y-41202208D01*
X68759484Y-41219100D01*
X68674613Y-41268100D01*
X68633161Y-41309552D01*
X68606928Y-41320418D01*
X68580695Y-41309552D01*
X68539242Y-41268100D01*
X68425114Y-41202208D01*
X68425111Y-41202207D01*
X68425109Y-41202206D01*
X68334563Y-41177945D01*
X68297820Y-41168100D01*
X68166036Y-41168100D01*
X68119445Y-41180583D01*
X68038744Y-41202207D01*
X67960277Y-41247508D01*
X67932125Y-41251214D01*
X67919921Y-41245392D01*
X67768361Y-41135273D01*
X67557923Y-41028045D01*
X67557922Y-41028044D01*
X67557921Y-41028044D01*
X67333303Y-40955056D01*
X67333301Y-40955055D01*
X67333299Y-40955055D01*
X67100027Y-40918102D01*
X67100034Y-40918102D01*
X67049364Y-40918101D01*
X67047825Y-40918100D01*
X67047820Y-40918100D01*
X66981942Y-40918100D01*
X66916050Y-40918098D01*
X66916049Y-40918098D01*
X66913479Y-40918098D01*
X66913451Y-40918100D01*
X64050224Y-40918100D01*
X64047789Y-40918099D01*
X64047756Y-40918091D01*
X63988663Y-40918099D01*
X63983940Y-40918099D01*
X63983939Y-40918098D01*
X63979791Y-40917866D01*
X63874875Y-40906057D01*
X63866774Y-40904209D01*
X63769091Y-40870036D01*
X63761607Y-40866433D01*
X63673975Y-40811376D01*
X63667485Y-40806200D01*
X63613680Y-40752396D01*
X63594309Y-40733026D01*
X63589129Y-40726531D01*
X63534073Y-40638906D01*
X63530468Y-40631419D01*
X63496294Y-40533737D01*
X63494446Y-40525637D01*
X63482661Y-40420969D01*
X63482428Y-40416818D01*
X63482435Y-40352758D01*
X63482428Y-40352731D01*
X63482428Y-39352708D01*
X63482428Y-39300508D01*
X63445481Y-39067232D01*
X63372496Y-38842608D01*
X63265271Y-38632167D01*
X63265270Y-38632166D01*
X63265268Y-38632162D01*
X63155142Y-38480589D01*
X63148513Y-38452979D01*
X63153024Y-38440239D01*
X63198320Y-38361786D01*
X63232428Y-38234492D01*
X63232428Y-38102708D01*
X63198320Y-37975414D01*
X63132428Y-37861286D01*
X63090974Y-37819832D01*
X63080109Y-37793600D01*
X63090974Y-37767367D01*
X63132428Y-37725914D01*
X63198320Y-37611786D01*
X63232428Y-37484492D01*
X63232428Y-37352708D01*
X63198320Y-37225414D01*
X63132428Y-37111286D01*
X63090974Y-37069832D01*
X63080109Y-37043600D01*
X63090974Y-37017367D01*
X63132428Y-36975914D01*
X63198320Y-36861786D01*
X63232428Y-36734492D01*
X63232428Y-36602708D01*
X63198320Y-36475414D01*
X63153026Y-36396964D01*
X63149320Y-36368814D01*
X63155140Y-36356612D01*
X63265271Y-36205033D01*
X63372496Y-35994592D01*
X63445481Y-35769968D01*
X63482428Y-35536692D01*
X63482428Y-35418600D01*
X63482428Y-35352708D01*
X63482428Y-32919820D01*
X63482507Y-32917394D01*
X63486747Y-32852708D01*
X63490378Y-32797312D01*
X63581782Y-32797312D01*
X63581782Y-33039888D01*
X63613444Y-33280389D01*
X63676228Y-33514700D01*
X63676229Y-33514704D01*
X63676230Y-33514705D01*
X63769057Y-33738811D01*
X63769058Y-33738812D01*
X63890346Y-33948889D01*
X63890348Y-33948892D01*
X63890349Y-33948893D01*
X64038010Y-34141330D01*
X64038013Y-34141333D01*
X64038017Y-34141338D01*
X64209544Y-34312865D01*
X64209548Y-34312868D01*
X64209551Y-34312871D01*
X64401988Y-34460532D01*
X64401987Y-34460532D01*
X64401990Y-34460533D01*
X64401993Y-34460536D01*
X64612070Y-34581824D01*
X64836182Y-34674654D01*
X65070493Y-34737438D01*
X65310994Y-34769100D01*
X65310998Y-34769100D01*
X65553566Y-34769100D01*
X65553570Y-34769100D01*
X65794071Y-34737438D01*
X66028382Y-34674654D01*
X66252494Y-34581824D01*
X66462571Y-34460536D01*
X66655020Y-34312865D01*
X66826547Y-34141338D01*
X66974218Y-33948889D01*
X67095506Y-33738812D01*
X67188336Y-33514700D01*
X67251120Y-33280389D01*
X67282782Y-33039888D01*
X67282782Y-32797312D01*
X67251120Y-32556811D01*
X67188336Y-32322500D01*
X67095506Y-32098388D01*
X66974218Y-31888311D01*
X66938563Y-31841844D01*
X66826553Y-31695869D01*
X66826550Y-31695866D01*
X66826547Y-31695862D01*
X66655020Y-31524335D01*
X66655015Y-31524331D01*
X66655012Y-31524328D01*
X66462575Y-31376667D01*
X66462576Y-31376667D01*
X66252493Y-31255375D01*
X66028387Y-31162548D01*
X66028386Y-31162547D01*
X66028382Y-31162546D01*
X65794071Y-31099762D01*
X65794067Y-31099761D01*
X65680214Y-31084772D01*
X65553570Y-31068100D01*
X65310994Y-31068100D01*
X65199083Y-31082833D01*
X65070496Y-31099761D01*
X65070488Y-31099763D01*
X64972382Y-31126051D01*
X64836182Y-31162546D01*
X64836180Y-31162547D01*
X64836176Y-31162548D01*
X64612070Y-31255375D01*
X64401988Y-31376667D01*
X64209551Y-31524328D01*
X64038010Y-31695869D01*
X63890349Y-31888306D01*
X63769057Y-32098388D01*
X63745305Y-32155732D01*
X63676228Y-32322500D01*
X63654529Y-32403481D01*
X63613445Y-32556806D01*
X63613443Y-32556814D01*
X63600173Y-32657615D01*
X63581782Y-32797312D01*
X63490378Y-32797312D01*
X63499375Y-32660033D01*
X63500009Y-32655226D01*
X63550085Y-32403475D01*
X63551340Y-32398794D01*
X63577241Y-32322494D01*
X63633852Y-32155724D01*
X63635700Y-32151261D01*
X63749241Y-31921025D01*
X63751655Y-31916844D01*
X63894273Y-31703403D01*
X63897212Y-31699573D01*
X64066471Y-31506572D01*
X64069888Y-31503155D01*
X64262888Y-31333900D01*
X64266721Y-31330959D01*
X64480166Y-31188342D01*
X64484345Y-31185929D01*
X64714584Y-31072390D01*
X64719042Y-31070544D01*
X64962127Y-30988030D01*
X64966789Y-30986782D01*
X65218550Y-30936705D01*
X65223354Y-30936072D01*
X65481148Y-30919178D01*
X65483564Y-30919100D01*
X65547814Y-30919101D01*
X65547818Y-30919100D01*
X66913451Y-30919100D01*
X66913479Y-30919101D01*
X66916046Y-30919100D01*
X66916050Y-30919102D01*
X66981942Y-30919100D01*
X67047820Y-30919100D01*
X67050799Y-30919100D01*
X67050815Y-30919097D01*
X67100032Y-30919097D01*
X67333303Y-30882144D01*
X67557921Y-30809156D01*
X67768357Y-30701929D01*
X67919924Y-30591803D01*
X67947531Y-30585176D01*
X67960275Y-30589689D01*
X68038742Y-30634992D01*
X68166036Y-30669100D01*
X68166037Y-30669100D01*
X68297819Y-30669100D01*
X68297820Y-30669100D01*
X68425114Y-30634992D01*
X68539242Y-30569100D01*
X68580695Y-30527646D01*
X68606928Y-30516781D01*
X68633160Y-30527646D01*
X68674614Y-30569100D01*
X68788742Y-30634992D01*
X68916036Y-30669100D01*
X68916037Y-30669100D01*
X69047819Y-30669100D01*
X69047820Y-30669100D01*
X69175114Y-30634992D01*
X69289242Y-30569100D01*
X69330695Y-30527646D01*
X69356928Y-30516781D01*
X69383160Y-30527646D01*
G37*
G04 #@! TD.AperFunction*
G04 #@! TD*
M02*
