%TF.GenerationSoftware,KiCad,Pcbnew,9.0.3*%
%TF.CreationDate,2026-01-26T15:41:31+00:00*%
%TF.ProjectId,4-up-blank,342d7570-2d62-46c6-916e-6b2e6b696361,rev?*%
%TF.SameCoordinates,Original*%
%TF.FileFunction,Drillmap*%
%TF.FilePolarity,Positive*%
%FSLAX45Y45*%
G04 Gerber Fmt 4.5, Leading zero omitted, Abs format (unit mm)*
G04 Created by KiCad (PCBNEW 9.0.3) date 2026-01-26 15:41:31*
%MOMM*%
%LPD*%
G01*
G04 APERTURE LIST*
%ADD10C,0.050000*%
%ADD11C,0.025400*%
%ADD12C,0.200000*%
%ADD13C,0.100000*%
G04 APERTURE END LIST*
D10*
X5298193Y-6541860D02*
X5298193Y-2041860D01*
X11698193Y-6541860D02*
X5298193Y-6541860D01*
D11*
X9147926Y-3163073D02*
G75*
G02*
X9126712Y-3171857I-21206J21203D01*
G01*
D10*
X10758193Y-4541860D02*
G75*
G02*
X10558193Y-4541860I-100000J0D01*
G01*
D11*
X8658193Y-4061860D02*
X8658193Y-3251860D01*
X7408193Y-5431860D02*
X7408193Y-5381860D01*
D10*
X10758193Y-2841860D02*
X10758193Y-3241860D01*
D11*
X8738193Y-5441860D02*
G75*
G02*
X8658190Y-5361860I-3J80000D01*
G01*
D10*
X7098193Y-5641860D02*
X9758190Y-5641860D01*
D11*
X8738193Y-3171860D02*
X9126712Y-3171860D01*
X9147926Y-3163073D02*
X9286980Y-3050647D01*
D10*
X6098193Y-5241860D02*
X6098193Y-5641860D01*
D11*
X6298193Y-4041860D02*
X6298193Y-3941860D01*
X10558193Y-3141860D02*
X10558193Y-3241860D01*
X8738193Y-4141860D02*
G75*
G02*
X8658190Y-4061860I-3J80000D01*
G01*
D10*
X10758193Y-3241860D02*
G75*
G02*
X10558193Y-3241860I-100000J0D01*
G01*
X10158193Y-4341860D02*
G75*
G02*
X10158193Y-4141860I-3J100000D01*
G01*
D11*
X8198193Y-4421860D02*
X8198193Y-5231860D01*
X7098193Y-4141860D02*
X7218193Y-4141860D01*
D10*
X6098193Y-3941860D02*
X6098193Y-4841860D01*
D11*
X6298193Y-4591860D02*
G75*
G02*
X6548193Y-4341863I249997J0D01*
G01*
D10*
X7098193Y-5641860D02*
G75*
G02*
X7098193Y-5441860I-3J100000D01*
G01*
X10558193Y-3641860D02*
G75*
G02*
X10758193Y-3641860I100000J0D01*
G01*
D11*
X7398193Y-4071860D02*
X7288193Y-4071860D01*
X7398193Y-5371860D02*
G75*
G02*
X7408190Y-5381860I-13J-10010D01*
G01*
D10*
X5298193Y-2041860D02*
X11698193Y-2041860D01*
D11*
X7288193Y-5371860D02*
X7218193Y-5441860D01*
X9458193Y-4411860D02*
X9568193Y-4411860D01*
X8118193Y-3041860D02*
G75*
G02*
X8198190Y-3121860I-3J-80000D01*
G01*
X7708460Y-4020647D02*
G75*
G02*
X7729673Y-4011859I21210J-21203D01*
G01*
D10*
X9758193Y-4141860D02*
G75*
G02*
X9758193Y-4341860I-3J-100000D01*
G01*
D11*
X9758193Y-4141860D02*
X8738193Y-4141860D01*
X7098193Y-4341860D02*
X8118193Y-4341860D01*
X8658193Y-3251860D02*
G75*
G02*
X8738193Y-3171863I80017J-20D01*
G01*
X9758193Y-3041860D02*
X9638193Y-3041860D01*
X7548193Y-4141860D02*
X7418193Y-4141860D01*
X7398193Y-4071860D02*
G75*
G02*
X7408190Y-4081860I-13J-10010D01*
G01*
D10*
X11698193Y-2041860D02*
X11698193Y-6541860D01*
D11*
X9438193Y-3041860D02*
G75*
G02*
X9448190Y-3051860I7J-9990D01*
G01*
X7288193Y-4071860D02*
X7218193Y-4141860D01*
X7708460Y-4020647D02*
X7569406Y-4133073D01*
X10558193Y-4941860D02*
X10558193Y-5191860D01*
X8118193Y-4341860D02*
G75*
G02*
X8198190Y-4421860I-3J-80000D01*
G01*
X9147926Y-4463073D02*
X9286980Y-4350647D01*
D10*
X10158193Y-2841860D02*
X10758193Y-2841860D01*
D11*
X7418193Y-5441860D02*
G75*
G02*
X7408190Y-5431860I-13J9990D01*
G01*
D10*
X7098193Y-3041860D02*
G75*
G02*
X7098193Y-2841860I-3J100000D01*
G01*
D11*
X7408193Y-4131860D02*
X7408193Y-4081860D01*
X8738193Y-4471860D02*
X9126712Y-4471860D01*
X7398193Y-5371860D02*
X7288193Y-5371860D01*
D10*
X10158193Y-5641860D02*
X10758193Y-5641860D01*
D11*
X9308193Y-4341860D02*
X9438193Y-4341860D01*
X9458193Y-3111860D02*
X9568193Y-3111860D01*
X9568193Y-4411860D02*
X9638193Y-4341860D01*
X6298193Y-3291860D02*
G75*
G02*
X6548193Y-3041863I249997J0D01*
G01*
X9458193Y-4411860D02*
G75*
G02*
X9448190Y-4401860I7J10010D01*
G01*
X10308193Y-5441860D02*
X10158193Y-5441860D01*
X8198193Y-5231860D02*
G75*
G02*
X8118193Y-5311863I-80023J20D01*
G01*
X6298193Y-3541860D02*
X6298193Y-3291860D01*
X9448193Y-4351860D02*
X9448193Y-4401860D01*
X7708460Y-5320647D02*
G75*
G02*
X7729673Y-5311859I21210J-21203D01*
G01*
D10*
X10558193Y-4941860D02*
G75*
G02*
X10758193Y-4941860I100000J0D01*
G01*
D11*
X9438193Y-4341860D02*
G75*
G02*
X9448190Y-4351860I7J-9990D01*
G01*
X6398193Y-5441860D02*
X6698193Y-5441860D01*
X7548193Y-5441860D02*
X7418193Y-5441860D01*
X8118193Y-5311860D02*
X7729673Y-5311860D01*
D10*
X6298193Y-4841860D02*
G75*
G02*
X6098193Y-4841860I-100000J0D01*
G01*
D11*
X9147926Y-4463073D02*
G75*
G02*
X9126712Y-4471858I-21206J21203D01*
G01*
X10558193Y-3891860D02*
G75*
G02*
X10308193Y-4141863I-250003J0D01*
G01*
D10*
X9758193Y-2841860D02*
G75*
G02*
X9758193Y-3041860I-3J-100000D01*
G01*
X10158193Y-3041860D02*
G75*
G02*
X10158193Y-2841860I-3J100000D01*
G01*
D11*
X8198193Y-3121860D02*
X8198193Y-3931860D01*
X6298193Y-4841860D02*
X6298193Y-4591860D01*
X10458193Y-3041860D02*
X10158193Y-3041860D01*
D10*
X6698193Y-2841860D02*
X6098193Y-2841860D01*
D11*
X9286980Y-4350647D02*
G75*
G02*
X9308193Y-4341859I21210J-21203D01*
G01*
X9308193Y-3041860D02*
X9438193Y-3041860D01*
X10458193Y-4341860D02*
G75*
G02*
X10558190Y-4441860I7J-99990D01*
G01*
D10*
X9758193Y-5441860D02*
G75*
G02*
X9758193Y-5641860I-3J-100000D01*
G01*
D11*
X9568193Y-3111860D02*
X9638193Y-3041860D01*
X7098193Y-3041860D02*
X8118193Y-3041860D01*
D10*
X6698193Y-5641860D02*
X6098193Y-5641860D01*
D11*
X9758193Y-4341860D02*
X9638193Y-4341860D01*
X6398193Y-4141860D02*
X6698193Y-4141860D01*
X6548193Y-3041860D02*
X6698193Y-3041860D01*
X7569406Y-5433073D02*
G75*
G02*
X7548193Y-5441858I-21206J21203D01*
G01*
X10558193Y-4441860D02*
X10558193Y-4541860D01*
X7708460Y-5320647D02*
X7569406Y-5433073D01*
D10*
X6698193Y-2841860D02*
G75*
G02*
X6698193Y-3041860I-3J-100000D01*
G01*
D11*
X6548193Y-4341860D02*
X6698193Y-4341860D01*
X8198193Y-3931860D02*
G75*
G02*
X8118193Y-4011863I-80023J20D01*
G01*
X10308193Y-4141860D02*
X10158193Y-4141860D01*
X6298193Y-5341860D02*
X6298193Y-5241860D01*
D10*
X10758193Y-4541860D02*
X10758193Y-3641860D01*
D11*
X7569406Y-4133073D02*
G75*
G02*
X7548193Y-4141858I-21206J21203D01*
G01*
D10*
X7098193Y-2841860D02*
X9758193Y-2841860D01*
D11*
X10558193Y-5191860D02*
G75*
G02*
X10308193Y-5441863I-250003J0D01*
G01*
X10458193Y-3041860D02*
G75*
G02*
X10558190Y-3141860I7J-99990D01*
G01*
D10*
X6098193Y-2841860D02*
X6098193Y-3541860D01*
D11*
X9448193Y-3051860D02*
X9448193Y-3101860D01*
X9458193Y-3111860D02*
G75*
G02*
X9448190Y-3101860I7J10010D01*
G01*
X8118193Y-4011860D02*
X7729673Y-4011860D01*
D10*
X10158193Y-5641860D02*
G75*
G02*
X10158193Y-5441860I-3J100000D01*
G01*
D11*
X6398193Y-4141860D02*
G75*
G02*
X6298190Y-4041860I-13J99990D01*
G01*
X9758193Y-5441860D02*
X8738193Y-5441860D01*
X7418193Y-4141860D02*
G75*
G02*
X7408190Y-4131860I-13J9990D01*
G01*
D10*
X10758193Y-5641860D02*
X10758193Y-4941860D01*
D11*
X8658193Y-4551860D02*
G75*
G02*
X8738193Y-4471863I80017J-20D01*
G01*
X10558193Y-3641860D02*
X10558193Y-3891860D01*
D10*
X6098193Y-3941860D02*
G75*
G02*
X6298193Y-3941860I100000J0D01*
G01*
D11*
X7098193Y-5441860D02*
X7218193Y-5441860D01*
D10*
X6698193Y-5441860D02*
G75*
G02*
X6698193Y-5641860I-3J-100000D01*
G01*
D11*
X9286980Y-3050647D02*
G75*
G02*
X9308193Y-3041859I21210J-21203D01*
G01*
X6398193Y-5441860D02*
G75*
G02*
X6298190Y-5341860I-13J99990D01*
G01*
X8658193Y-5361860D02*
X8658193Y-4551860D01*
X10458193Y-4341860D02*
X10158193Y-4341860D01*
D10*
X6098193Y-5241860D02*
G75*
G02*
X6298193Y-5241860I100000J0D01*
G01*
X7098193Y-4341860D02*
G75*
G02*
X7098193Y-4141860I-3J100000D01*
G01*
X6698193Y-4141860D02*
G75*
G02*
X6698193Y-4341860I-3J-100000D01*
G01*
X6298193Y-3541860D02*
G75*
G02*
X6098193Y-3541860I-100000J0D01*
G01*
D12*
D13*
X7623193Y-3461860D02*
X7653193Y-3491860D01*
X7653193Y-3461860D02*
X7623193Y-3491860D01*
X7623193Y-4761860D02*
X7653193Y-4791860D01*
X7653193Y-4761860D02*
X7623193Y-4791860D01*
X9203193Y-3691860D02*
X9233193Y-3721860D01*
X9233193Y-3691860D02*
X9203193Y-3721860D01*
X9203193Y-4991860D02*
X9233193Y-5021860D01*
X9233193Y-4991860D02*
X9203193Y-5021860D01*
D12*
X5556470Y-6855844D02*
X5556470Y-6655844D01*
X5556470Y-6655844D02*
X5604089Y-6655844D01*
X5604089Y-6655844D02*
X5632660Y-6665368D01*
X5632660Y-6665368D02*
X5651708Y-6684415D01*
X5651708Y-6684415D02*
X5661231Y-6703463D01*
X5661231Y-6703463D02*
X5670755Y-6741558D01*
X5670755Y-6741558D02*
X5670755Y-6770129D01*
X5670755Y-6770129D02*
X5661231Y-6808225D01*
X5661231Y-6808225D02*
X5651708Y-6827272D01*
X5651708Y-6827272D02*
X5632660Y-6846320D01*
X5632660Y-6846320D02*
X5604089Y-6855844D01*
X5604089Y-6855844D02*
X5556470Y-6855844D01*
X5756470Y-6855844D02*
X5756470Y-6722510D01*
X5756470Y-6760606D02*
X5765993Y-6741558D01*
X5765993Y-6741558D02*
X5775517Y-6732034D01*
X5775517Y-6732034D02*
X5794565Y-6722510D01*
X5794565Y-6722510D02*
X5813612Y-6722510D01*
X5880279Y-6855844D02*
X5880279Y-6722510D01*
X5880279Y-6655844D02*
X5870755Y-6665368D01*
X5870755Y-6665368D02*
X5880279Y-6674891D01*
X5880279Y-6674891D02*
X5889803Y-6665368D01*
X5889803Y-6665368D02*
X5880279Y-6655844D01*
X5880279Y-6655844D02*
X5880279Y-6674891D01*
X6004089Y-6855844D02*
X5985041Y-6846320D01*
X5985041Y-6846320D02*
X5975517Y-6827272D01*
X5975517Y-6827272D02*
X5975517Y-6655844D01*
X6108850Y-6855844D02*
X6089803Y-6846320D01*
X6089803Y-6846320D02*
X6080279Y-6827272D01*
X6080279Y-6827272D02*
X6080279Y-6655844D01*
X6337422Y-6855844D02*
X6337422Y-6655844D01*
X6337422Y-6655844D02*
X6404089Y-6798701D01*
X6404089Y-6798701D02*
X6470755Y-6655844D01*
X6470755Y-6655844D02*
X6470755Y-6855844D01*
X6651708Y-6855844D02*
X6651708Y-6751082D01*
X6651708Y-6751082D02*
X6642184Y-6732034D01*
X6642184Y-6732034D02*
X6623136Y-6722510D01*
X6623136Y-6722510D02*
X6585041Y-6722510D01*
X6585041Y-6722510D02*
X6565993Y-6732034D01*
X6651708Y-6846320D02*
X6632660Y-6855844D01*
X6632660Y-6855844D02*
X6585041Y-6855844D01*
X6585041Y-6855844D02*
X6565993Y-6846320D01*
X6565993Y-6846320D02*
X6556470Y-6827272D01*
X6556470Y-6827272D02*
X6556470Y-6808225D01*
X6556470Y-6808225D02*
X6565993Y-6789177D01*
X6565993Y-6789177D02*
X6585041Y-6779653D01*
X6585041Y-6779653D02*
X6632660Y-6779653D01*
X6632660Y-6779653D02*
X6651708Y-6770129D01*
X6746946Y-6722510D02*
X6746946Y-6922510D01*
X6746946Y-6732034D02*
X6765993Y-6722510D01*
X6765993Y-6722510D02*
X6804089Y-6722510D01*
X6804089Y-6722510D02*
X6823136Y-6732034D01*
X6823136Y-6732034D02*
X6832660Y-6741558D01*
X6832660Y-6741558D02*
X6842184Y-6760606D01*
X6842184Y-6760606D02*
X6842184Y-6817748D01*
X6842184Y-6817748D02*
X6832660Y-6836796D01*
X6832660Y-6836796D02*
X6823136Y-6846320D01*
X6823136Y-6846320D02*
X6804089Y-6855844D01*
X6804089Y-6855844D02*
X6765993Y-6855844D01*
X6765993Y-6855844D02*
X6746946Y-6846320D01*
X6927898Y-6836796D02*
X6937422Y-6846320D01*
X6937422Y-6846320D02*
X6927898Y-6855844D01*
X6927898Y-6855844D02*
X6918374Y-6846320D01*
X6918374Y-6846320D02*
X6927898Y-6836796D01*
X6927898Y-6836796D02*
X6927898Y-6855844D01*
X6927898Y-6732034D02*
X6937422Y-6741558D01*
X6937422Y-6741558D02*
X6927898Y-6751082D01*
X6927898Y-6751082D02*
X6918374Y-6741558D01*
X6918374Y-6741558D02*
X6927898Y-6732034D01*
X6927898Y-6732034D02*
X6927898Y-6751082D01*
D13*
X5265693Y-7169360D02*
X5295693Y-7199360D01*
X5295693Y-7169360D02*
X5265693Y-7199360D01*
D12*
X5594565Y-7075844D02*
X5613612Y-7075844D01*
X5613612Y-7075844D02*
X5632660Y-7085368D01*
X5632660Y-7085368D02*
X5642184Y-7094891D01*
X5642184Y-7094891D02*
X5651708Y-7113939D01*
X5651708Y-7113939D02*
X5661231Y-7152034D01*
X5661231Y-7152034D02*
X5661231Y-7199653D01*
X5661231Y-7199653D02*
X5651708Y-7237748D01*
X5651708Y-7237748D02*
X5642184Y-7256796D01*
X5642184Y-7256796D02*
X5632660Y-7266320D01*
X5632660Y-7266320D02*
X5613612Y-7275844D01*
X5613612Y-7275844D02*
X5594565Y-7275844D01*
X5594565Y-7275844D02*
X5575517Y-7266320D01*
X5575517Y-7266320D02*
X5565993Y-7256796D01*
X5565993Y-7256796D02*
X5556470Y-7237748D01*
X5556470Y-7237748D02*
X5546946Y-7199653D01*
X5546946Y-7199653D02*
X5546946Y-7152034D01*
X5546946Y-7152034D02*
X5556470Y-7113939D01*
X5556470Y-7113939D02*
X5565993Y-7094891D01*
X5565993Y-7094891D02*
X5575517Y-7085368D01*
X5575517Y-7085368D02*
X5594565Y-7075844D01*
X5746946Y-7256796D02*
X5756470Y-7266320D01*
X5756470Y-7266320D02*
X5746946Y-7275844D01*
X5746946Y-7275844D02*
X5737422Y-7266320D01*
X5737422Y-7266320D02*
X5746946Y-7256796D01*
X5746946Y-7256796D02*
X5746946Y-7275844D01*
X5823136Y-7075844D02*
X5946946Y-7075844D01*
X5946946Y-7075844D02*
X5880279Y-7152034D01*
X5880279Y-7152034D02*
X5908851Y-7152034D01*
X5908851Y-7152034D02*
X5927898Y-7161558D01*
X5927898Y-7161558D02*
X5937422Y-7171082D01*
X5937422Y-7171082D02*
X5946946Y-7190129D01*
X5946946Y-7190129D02*
X5946946Y-7237748D01*
X5946946Y-7237748D02*
X5937422Y-7256796D01*
X5937422Y-7256796D02*
X5927898Y-7266320D01*
X5927898Y-7266320D02*
X5908851Y-7275844D01*
X5908851Y-7275844D02*
X5851708Y-7275844D01*
X5851708Y-7275844D02*
X5832660Y-7266320D01*
X5832660Y-7266320D02*
X5823136Y-7256796D01*
X6070755Y-7075844D02*
X6089803Y-7075844D01*
X6089803Y-7075844D02*
X6108851Y-7085368D01*
X6108851Y-7085368D02*
X6118374Y-7094891D01*
X6118374Y-7094891D02*
X6127898Y-7113939D01*
X6127898Y-7113939D02*
X6137422Y-7152034D01*
X6137422Y-7152034D02*
X6137422Y-7199653D01*
X6137422Y-7199653D02*
X6127898Y-7237748D01*
X6127898Y-7237748D02*
X6118374Y-7256796D01*
X6118374Y-7256796D02*
X6108851Y-7266320D01*
X6108851Y-7266320D02*
X6089803Y-7275844D01*
X6089803Y-7275844D02*
X6070755Y-7275844D01*
X6070755Y-7275844D02*
X6051708Y-7266320D01*
X6051708Y-7266320D02*
X6042184Y-7256796D01*
X6042184Y-7256796D02*
X6032660Y-7237748D01*
X6032660Y-7237748D02*
X6023136Y-7199653D01*
X6023136Y-7199653D02*
X6023136Y-7152034D01*
X6023136Y-7152034D02*
X6032660Y-7113939D01*
X6032660Y-7113939D02*
X6042184Y-7094891D01*
X6042184Y-7094891D02*
X6051708Y-7085368D01*
X6051708Y-7085368D02*
X6070755Y-7075844D01*
X6261231Y-7075844D02*
X6280279Y-7075844D01*
X6280279Y-7075844D02*
X6299327Y-7085368D01*
X6299327Y-7085368D02*
X6308851Y-7094891D01*
X6308851Y-7094891D02*
X6318374Y-7113939D01*
X6318374Y-7113939D02*
X6327898Y-7152034D01*
X6327898Y-7152034D02*
X6327898Y-7199653D01*
X6327898Y-7199653D02*
X6318374Y-7237748D01*
X6318374Y-7237748D02*
X6308851Y-7256796D01*
X6308851Y-7256796D02*
X6299327Y-7266320D01*
X6299327Y-7266320D02*
X6280279Y-7275844D01*
X6280279Y-7275844D02*
X6261231Y-7275844D01*
X6261231Y-7275844D02*
X6242184Y-7266320D01*
X6242184Y-7266320D02*
X6232660Y-7256796D01*
X6232660Y-7256796D02*
X6223136Y-7237748D01*
X6223136Y-7237748D02*
X6213612Y-7199653D01*
X6213612Y-7199653D02*
X6213612Y-7152034D01*
X6213612Y-7152034D02*
X6223136Y-7113939D01*
X6223136Y-7113939D02*
X6232660Y-7094891D01*
X6232660Y-7094891D02*
X6242184Y-7085368D01*
X6242184Y-7085368D02*
X6261231Y-7075844D01*
X6413612Y-7275844D02*
X6413612Y-7142510D01*
X6413612Y-7161558D02*
X6423136Y-7152034D01*
X6423136Y-7152034D02*
X6442184Y-7142510D01*
X6442184Y-7142510D02*
X6470755Y-7142510D01*
X6470755Y-7142510D02*
X6489803Y-7152034D01*
X6489803Y-7152034D02*
X6499327Y-7171082D01*
X6499327Y-7171082D02*
X6499327Y-7275844D01*
X6499327Y-7171082D02*
X6508851Y-7152034D01*
X6508851Y-7152034D02*
X6527898Y-7142510D01*
X6527898Y-7142510D02*
X6556470Y-7142510D01*
X6556470Y-7142510D02*
X6575517Y-7152034D01*
X6575517Y-7152034D02*
X6585041Y-7171082D01*
X6585041Y-7171082D02*
X6585041Y-7275844D01*
X6680279Y-7275844D02*
X6680279Y-7142510D01*
X6680279Y-7161558D02*
X6689803Y-7152034D01*
X6689803Y-7152034D02*
X6708851Y-7142510D01*
X6708851Y-7142510D02*
X6737422Y-7142510D01*
X6737422Y-7142510D02*
X6756470Y-7152034D01*
X6756470Y-7152034D02*
X6765993Y-7171082D01*
X6765993Y-7171082D02*
X6765993Y-7275844D01*
X6765993Y-7171082D02*
X6775517Y-7152034D01*
X6775517Y-7152034D02*
X6794565Y-7142510D01*
X6794565Y-7142510D02*
X6823136Y-7142510D01*
X6823136Y-7142510D02*
X6842184Y-7152034D01*
X6842184Y-7152034D02*
X6851708Y-7171082D01*
X6851708Y-7171082D02*
X6851708Y-7275844D01*
X7242184Y-7066320D02*
X7070755Y-7323463D01*
X7499327Y-7075844D02*
X7518375Y-7075844D01*
X7518375Y-7075844D02*
X7537422Y-7085368D01*
X7537422Y-7085368D02*
X7546946Y-7094891D01*
X7546946Y-7094891D02*
X7556470Y-7113939D01*
X7556470Y-7113939D02*
X7565994Y-7152034D01*
X7565994Y-7152034D02*
X7565994Y-7199653D01*
X7565994Y-7199653D02*
X7556470Y-7237748D01*
X7556470Y-7237748D02*
X7546946Y-7256796D01*
X7546946Y-7256796D02*
X7537422Y-7266320D01*
X7537422Y-7266320D02*
X7518375Y-7275844D01*
X7518375Y-7275844D02*
X7499327Y-7275844D01*
X7499327Y-7275844D02*
X7480279Y-7266320D01*
X7480279Y-7266320D02*
X7470755Y-7256796D01*
X7470755Y-7256796D02*
X7461232Y-7237748D01*
X7461232Y-7237748D02*
X7451708Y-7199653D01*
X7451708Y-7199653D02*
X7451708Y-7152034D01*
X7451708Y-7152034D02*
X7461232Y-7113939D01*
X7461232Y-7113939D02*
X7470755Y-7094891D01*
X7470755Y-7094891D02*
X7480279Y-7085368D01*
X7480279Y-7085368D02*
X7499327Y-7075844D01*
X7651708Y-7256796D02*
X7661232Y-7266320D01*
X7661232Y-7266320D02*
X7651708Y-7275844D01*
X7651708Y-7275844D02*
X7642184Y-7266320D01*
X7642184Y-7266320D02*
X7651708Y-7256796D01*
X7651708Y-7256796D02*
X7651708Y-7275844D01*
X7785041Y-7075844D02*
X7804089Y-7075844D01*
X7804089Y-7075844D02*
X7823136Y-7085368D01*
X7823136Y-7085368D02*
X7832660Y-7094891D01*
X7832660Y-7094891D02*
X7842184Y-7113939D01*
X7842184Y-7113939D02*
X7851708Y-7152034D01*
X7851708Y-7152034D02*
X7851708Y-7199653D01*
X7851708Y-7199653D02*
X7842184Y-7237748D01*
X7842184Y-7237748D02*
X7832660Y-7256796D01*
X7832660Y-7256796D02*
X7823136Y-7266320D01*
X7823136Y-7266320D02*
X7804089Y-7275844D01*
X7804089Y-7275844D02*
X7785041Y-7275844D01*
X7785041Y-7275844D02*
X7765994Y-7266320D01*
X7765994Y-7266320D02*
X7756470Y-7256796D01*
X7756470Y-7256796D02*
X7746946Y-7237748D01*
X7746946Y-7237748D02*
X7737422Y-7199653D01*
X7737422Y-7199653D02*
X7737422Y-7152034D01*
X7737422Y-7152034D02*
X7746946Y-7113939D01*
X7746946Y-7113939D02*
X7756470Y-7094891D01*
X7756470Y-7094891D02*
X7765994Y-7085368D01*
X7765994Y-7085368D02*
X7785041Y-7075844D01*
X8042184Y-7275844D02*
X7927898Y-7275844D01*
X7985041Y-7275844D02*
X7985041Y-7075844D01*
X7985041Y-7075844D02*
X7965994Y-7104415D01*
X7965994Y-7104415D02*
X7946946Y-7123463D01*
X7946946Y-7123463D02*
X7927898Y-7132987D01*
X8232660Y-7275844D02*
X8118375Y-7275844D01*
X8175517Y-7275844D02*
X8175517Y-7075844D01*
X8175517Y-7075844D02*
X8156470Y-7104415D01*
X8156470Y-7104415D02*
X8137422Y-7123463D01*
X8137422Y-7123463D02*
X8118375Y-7132987D01*
X8346946Y-7161558D02*
X8327898Y-7152034D01*
X8327898Y-7152034D02*
X8318375Y-7142510D01*
X8318375Y-7142510D02*
X8308851Y-7123463D01*
X8308851Y-7123463D02*
X8308851Y-7113939D01*
X8308851Y-7113939D02*
X8318375Y-7094891D01*
X8318375Y-7094891D02*
X8327898Y-7085368D01*
X8327898Y-7085368D02*
X8346946Y-7075844D01*
X8346946Y-7075844D02*
X8385041Y-7075844D01*
X8385041Y-7075844D02*
X8404089Y-7085368D01*
X8404089Y-7085368D02*
X8413613Y-7094891D01*
X8413613Y-7094891D02*
X8423137Y-7113939D01*
X8423137Y-7113939D02*
X8423137Y-7123463D01*
X8423137Y-7123463D02*
X8413613Y-7142510D01*
X8413613Y-7142510D02*
X8404089Y-7152034D01*
X8404089Y-7152034D02*
X8385041Y-7161558D01*
X8385041Y-7161558D02*
X8346946Y-7161558D01*
X8346946Y-7161558D02*
X8327898Y-7171082D01*
X8327898Y-7171082D02*
X8318375Y-7180606D01*
X8318375Y-7180606D02*
X8308851Y-7199653D01*
X8308851Y-7199653D02*
X8308851Y-7237748D01*
X8308851Y-7237748D02*
X8318375Y-7256796D01*
X8318375Y-7256796D02*
X8327898Y-7266320D01*
X8327898Y-7266320D02*
X8346946Y-7275844D01*
X8346946Y-7275844D02*
X8385041Y-7275844D01*
X8385041Y-7275844D02*
X8404089Y-7266320D01*
X8404089Y-7266320D02*
X8413613Y-7256796D01*
X8413613Y-7256796D02*
X8423137Y-7237748D01*
X8423137Y-7237748D02*
X8423137Y-7199653D01*
X8423137Y-7199653D02*
X8413613Y-7180606D01*
X8413613Y-7180606D02*
X8404089Y-7171082D01*
X8404089Y-7171082D02*
X8385041Y-7161558D01*
X8499327Y-7075844D02*
X8499327Y-7113939D01*
X8575518Y-7075844D02*
X8575518Y-7113939D01*
X8870756Y-7352034D02*
X8861232Y-7342510D01*
X8861232Y-7342510D02*
X8842184Y-7313939D01*
X8842184Y-7313939D02*
X8832660Y-7294891D01*
X8832660Y-7294891D02*
X8823137Y-7266320D01*
X8823137Y-7266320D02*
X8813613Y-7218701D01*
X8813613Y-7218701D02*
X8813613Y-7180606D01*
X8813613Y-7180606D02*
X8823137Y-7132987D01*
X8823137Y-7132987D02*
X8832660Y-7104415D01*
X8832660Y-7104415D02*
X8842184Y-7085368D01*
X8842184Y-7085368D02*
X8861232Y-7056796D01*
X8861232Y-7056796D02*
X8870756Y-7047272D01*
X9032660Y-7142510D02*
X9032660Y-7275844D01*
X8985041Y-7066320D02*
X8937422Y-7209177D01*
X8937422Y-7209177D02*
X9061232Y-7209177D01*
X9289803Y-7275844D02*
X9289803Y-7075844D01*
X9375518Y-7275844D02*
X9375518Y-7171082D01*
X9375518Y-7171082D02*
X9365994Y-7152034D01*
X9365994Y-7152034D02*
X9346946Y-7142510D01*
X9346946Y-7142510D02*
X9318375Y-7142510D01*
X9318375Y-7142510D02*
X9299327Y-7152034D01*
X9299327Y-7152034D02*
X9289803Y-7161558D01*
X9499327Y-7275844D02*
X9480280Y-7266320D01*
X9480280Y-7266320D02*
X9470756Y-7256796D01*
X9470756Y-7256796D02*
X9461232Y-7237748D01*
X9461232Y-7237748D02*
X9461232Y-7180606D01*
X9461232Y-7180606D02*
X9470756Y-7161558D01*
X9470756Y-7161558D02*
X9480280Y-7152034D01*
X9480280Y-7152034D02*
X9499327Y-7142510D01*
X9499327Y-7142510D02*
X9527899Y-7142510D01*
X9527899Y-7142510D02*
X9546946Y-7152034D01*
X9546946Y-7152034D02*
X9556470Y-7161558D01*
X9556470Y-7161558D02*
X9565994Y-7180606D01*
X9565994Y-7180606D02*
X9565994Y-7237748D01*
X9565994Y-7237748D02*
X9556470Y-7256796D01*
X9556470Y-7256796D02*
X9546946Y-7266320D01*
X9546946Y-7266320D02*
X9527899Y-7275844D01*
X9527899Y-7275844D02*
X9499327Y-7275844D01*
X9680280Y-7275844D02*
X9661232Y-7266320D01*
X9661232Y-7266320D02*
X9651708Y-7247272D01*
X9651708Y-7247272D02*
X9651708Y-7075844D01*
X9832661Y-7266320D02*
X9813613Y-7275844D01*
X9813613Y-7275844D02*
X9775518Y-7275844D01*
X9775518Y-7275844D02*
X9756470Y-7266320D01*
X9756470Y-7266320D02*
X9746946Y-7247272D01*
X9746946Y-7247272D02*
X9746946Y-7171082D01*
X9746946Y-7171082D02*
X9756470Y-7152034D01*
X9756470Y-7152034D02*
X9775518Y-7142510D01*
X9775518Y-7142510D02*
X9813613Y-7142510D01*
X9813613Y-7142510D02*
X9832661Y-7152034D01*
X9832661Y-7152034D02*
X9842184Y-7171082D01*
X9842184Y-7171082D02*
X9842184Y-7190129D01*
X9842184Y-7190129D02*
X9746946Y-7209177D01*
X9918375Y-7266320D02*
X9937422Y-7275844D01*
X9937422Y-7275844D02*
X9975518Y-7275844D01*
X9975518Y-7275844D02*
X9994565Y-7266320D01*
X9994565Y-7266320D02*
X10004089Y-7247272D01*
X10004089Y-7247272D02*
X10004089Y-7237748D01*
X10004089Y-7237748D02*
X9994565Y-7218701D01*
X9994565Y-7218701D02*
X9975518Y-7209177D01*
X9975518Y-7209177D02*
X9946946Y-7209177D01*
X9946946Y-7209177D02*
X9927899Y-7199653D01*
X9927899Y-7199653D02*
X9918375Y-7180606D01*
X9918375Y-7180606D02*
X9918375Y-7171082D01*
X9918375Y-7171082D02*
X9927899Y-7152034D01*
X9927899Y-7152034D02*
X9946946Y-7142510D01*
X9946946Y-7142510D02*
X9975518Y-7142510D01*
X9975518Y-7142510D02*
X9994565Y-7152034D01*
X10070756Y-7352034D02*
X10080280Y-7342510D01*
X10080280Y-7342510D02*
X10099327Y-7313939D01*
X10099327Y-7313939D02*
X10108851Y-7294891D01*
X10108851Y-7294891D02*
X10118375Y-7266320D01*
X10118375Y-7266320D02*
X10127899Y-7218701D01*
X10127899Y-7218701D02*
X10127899Y-7180606D01*
X10127899Y-7180606D02*
X10118375Y-7132987D01*
X10118375Y-7132987D02*
X10108851Y-7104415D01*
X10108851Y-7104415D02*
X10099327Y-7085368D01*
X10099327Y-7085368D02*
X10080280Y-7056796D01*
X10080280Y-7056796D02*
X10070756Y-7047272D01*
M02*
