G04 #@! TF.GenerationSoftware,KiCad,Pcbnew,9.0.3*
G04 #@! TF.CreationDate,2026-01-26T15:41:31+00:00*
G04 #@! TF.ProjectId,4-up-blank,342d7570-2d62-46c6-916e-6b2e6b696361,rev?*
G04 #@! TF.SameCoordinates,Original*
G04 #@! TF.FileFunction,Soldermask,Top*
G04 #@! TF.FilePolarity,Negative*
%FSLAX46Y46*%
G04 Gerber Fmt 4.6, Leading zero omitted, Abs format (unit mm)*
G04 Created by KiCad (PCBNEW 9.0.3) date 2026-01-26 15:41:31*
%MOMM*%
%LPD*%
G01*
G04 APERTURE LIST*
%ADD10C,3.200000*%
%ADD11C,0.500000*%
G04 APERTURE END LIST*
D10*
G04 #@! TO.C,@HOLE0*
X103131574Y-38918600D03*
G04 #@! TD*
D11*
G04 #@! TO.C,mouse-bite-2mm-slot*
X61231928Y-38168600D03*
X62731928Y-38168600D03*
X61231928Y-37418600D03*
X62731928Y-37418600D03*
X61231928Y-36668600D03*
X62731928Y-36668600D03*
G04 #@! TD*
D10*
G04 #@! TO.C,@HOLE0*
X103131574Y-51918600D03*
G04 #@! TD*
D11*
G04 #@! TO.C,mouse-bite-2mm-slot*
X61231928Y-51168600D03*
X62731928Y-51168600D03*
X61231928Y-50418600D03*
X62731928Y-50418600D03*
X61231928Y-49668600D03*
X62731928Y-49668600D03*
G04 #@! TD*
D10*
G04 #@! TO.C,@HOLE0*
X65432282Y-45918600D03*
G04 #@! TD*
G04 #@! TO.C,@HOLE0*
X65432282Y-32918600D03*
G04 #@! TD*
D11*
G04 #@! TO.C,mouse-bite-2mm-slot*
X107331928Y-46668600D03*
X105831928Y-46668600D03*
X107331928Y-47418600D03*
X105831928Y-47418600D03*
X107331928Y-48168600D03*
X105831928Y-48168600D03*
G04 #@! TD*
G04 #@! TO.C,mouse-bite-2mm-slot*
X100331928Y-43168600D03*
X100331928Y-41668600D03*
X99581928Y-43168600D03*
X99581928Y-41668600D03*
X98831928Y-43168600D03*
X98831928Y-41668600D03*
G04 #@! TD*
G04 #@! TO.C,mouse-bite-2mm-slot*
X100331928Y-30168600D03*
X100331928Y-28668600D03*
X99581928Y-30168600D03*
X99581928Y-28668600D03*
X98831928Y-30168600D03*
X98831928Y-28668600D03*
G04 #@! TD*
G04 #@! TO.C,mouse-bite-2mm-slot*
X68231928Y-28668600D03*
X68231928Y-30168600D03*
X68981928Y-28668600D03*
X68981928Y-30168600D03*
X69731928Y-28668600D03*
X69731928Y-30168600D03*
G04 #@! TD*
G04 #@! TO.C,mouse-bite-2mm-slot*
X68231928Y-41668600D03*
X68231928Y-43168600D03*
X68981928Y-41668600D03*
X68981928Y-43168600D03*
X69731928Y-41668600D03*
X69731928Y-43168600D03*
G04 #@! TD*
G04 #@! TO.C,mouse-bite-2mm-slot*
X68231928Y-54668600D03*
X68231928Y-56168600D03*
X68981928Y-54668600D03*
X68981928Y-56168600D03*
X69731928Y-54668600D03*
X69731928Y-56168600D03*
G04 #@! TD*
G04 #@! TO.C,mouse-bite-2mm-slot*
X100331928Y-56168600D03*
X100331928Y-54668600D03*
X99581928Y-56168600D03*
X99581928Y-54668600D03*
X98831928Y-56168600D03*
X98831928Y-54668600D03*
G04 #@! TD*
G04 #@! TO.C,mouse-bite-2mm-slot*
X107331928Y-33668600D03*
X105831928Y-33668600D03*
X107331928Y-34418600D03*
X105831928Y-34418600D03*
X107331928Y-35168600D03*
X105831928Y-35168600D03*
G04 #@! TD*
M02*
