G04 #@! TF.GenerationSoftware,KiCad,Pcbnew,9.0.3*
G04 #@! TF.CreationDate,2026-01-26T15:41:31+00:00*
G04 #@! TF.ProjectId,4-up-blank,342d7570-2d62-46c6-916e-6b2e6b696361,rev?*
G04 #@! TF.SameCoordinates,Original*
G04 #@! TF.FileFunction,Profile,NP*
%FSLAX46Y46*%
G04 Gerber Fmt 4.6, Leading zero omitted, Abs format (unit mm)*
G04 Created by KiCad (PCBNEW 9.0.3) date 2026-01-26 15:41:31*
%MOMM*%
%LPD*%
G01*
G04 APERTURE LIST*
G04 #@! TA.AperFunction,Profile*
%ADD10C,0.050000*%
G04 #@! TD*
G04 #@! TA.AperFunction,Profile*
%ADD11C,0.025400*%
G04 #@! TD*
G04 APERTURE END LIST*
D10*
X52981928Y-65418600D02*
X52981928Y-20418600D01*
X116981928Y-65418600D02*
X52981928Y-65418600D01*
D11*
X91479255Y-31630732D02*
G75*
G02*
X91267123Y-31718575I-212055J212032D01*
G01*
D10*
X107581928Y-45418600D02*
G75*
G02*
X105581928Y-45418600I-1000000J0D01*
G01*
D11*
X86581928Y-40618600D02*
X86581928Y-32518600D01*
X74081928Y-54318600D02*
X74081928Y-53818600D01*
D10*
X107581928Y-28418600D02*
X107581928Y-32418600D01*
D11*
X87381928Y-54418600D02*
G75*
G02*
X86581900Y-53618600I-28J800000D01*
G01*
D10*
X70981928Y-56418599D02*
X97581900Y-56418600D01*
D11*
X87381928Y-31718600D02*
X91267123Y-31718600D01*
X91479255Y-31630732D02*
X92869796Y-30506468D01*
D10*
X60981928Y-52418600D02*
X60981928Y-56418600D01*
D11*
X62981928Y-40418600D02*
X62981928Y-39418600D01*
X105581928Y-31418600D02*
X105581928Y-32418600D01*
X87381928Y-41418600D02*
G75*
G02*
X86581900Y-40618600I-28J800000D01*
G01*
D10*
X107581928Y-32418600D02*
G75*
G02*
X105581928Y-32418600I-1000000J0D01*
G01*
X101581928Y-43418600D02*
G75*
G02*
X101581928Y-41418600I-28J1000000D01*
G01*
D11*
X81981928Y-44218600D02*
X81981928Y-52318600D01*
X70981928Y-41418600D02*
X72181928Y-41418600D01*
D10*
X60981928Y-39418600D02*
X60981928Y-48418600D01*
D11*
X62981928Y-45918600D02*
G75*
G02*
X65481928Y-43418628I2499972J0D01*
G01*
D10*
X70981928Y-56418600D02*
G75*
G02*
X70981928Y-54418600I-28J1000000D01*
G01*
X105581928Y-36418600D02*
G75*
G02*
X107581928Y-36418600I1000000J0D01*
G01*
D11*
X73981928Y-40718600D02*
X72881928Y-40718600D01*
X73981928Y-53718600D02*
G75*
G02*
X74081900Y-53818600I-128J-100100D01*
G01*
D10*
X52981928Y-20418600D02*
X116981928Y-20418600D01*
D11*
X72881928Y-53718600D02*
X72181928Y-54418600D01*
X94581928Y-44118600D02*
X95681928Y-44118600D01*
X81181928Y-30418600D02*
G75*
G02*
X81981900Y-31218600I-28J-800000D01*
G01*
X77084601Y-40206468D02*
G75*
G02*
X77296733Y-40118594I212099J-212032D01*
G01*
D10*
X97581928Y-41418600D02*
G75*
G02*
X97581928Y-43418600I-28J-1000000D01*
G01*
D11*
X97581928Y-41418600D02*
X87381928Y-41418600D01*
X70981928Y-43418600D02*
X81181928Y-43418600D01*
X86581928Y-32518600D02*
G75*
G02*
X87381928Y-31718628I800172J-200D01*
G01*
X97581928Y-30418600D02*
X96381928Y-30418600D01*
X75481928Y-41418600D02*
X74181928Y-41418600D01*
X73981928Y-40718600D02*
G75*
G02*
X74081900Y-40818600I-128J-100100D01*
G01*
D10*
X116981928Y-20418600D02*
X116981928Y-65418600D01*
D11*
X94381928Y-30418600D02*
G75*
G02*
X94481900Y-30518600I72J-99900D01*
G01*
X72881928Y-40718600D02*
X72181928Y-41418600D01*
X77084601Y-40206468D02*
X75694060Y-41330732D01*
X105581928Y-49418600D02*
X105581928Y-51918600D01*
X81181928Y-43418600D02*
G75*
G02*
X81981900Y-44218600I-28J-800000D01*
G01*
X91479255Y-44630732D02*
X92869796Y-43506468D01*
D10*
X101581928Y-28418600D02*
X107581928Y-28418600D01*
D11*
X74181928Y-54418600D02*
G75*
G02*
X74081900Y-54318600I-128J99900D01*
G01*
D10*
X70981928Y-30418600D02*
G75*
G02*
X70981928Y-28418600I-28J1000000D01*
G01*
D11*
X74081928Y-41318600D02*
X74081928Y-40818600D01*
X87381928Y-44718600D02*
X91267123Y-44718600D01*
X73981928Y-53718600D02*
X72881928Y-53718600D01*
D10*
X101581928Y-56418600D02*
X107581928Y-56418600D01*
D11*
X93081928Y-43418600D02*
X94381928Y-43418600D01*
X94581928Y-31118600D02*
X95681928Y-31118600D01*
X95681928Y-44118600D02*
X96381928Y-43418600D01*
X62981928Y-32918600D02*
G75*
G02*
X65481928Y-30418628I2499972J0D01*
G01*
X94581928Y-44118600D02*
G75*
G02*
X94481900Y-44018600I72J100100D01*
G01*
X103081928Y-54418600D02*
X101581928Y-54418600D01*
X81981928Y-52318600D02*
G75*
G02*
X81181928Y-53118628I-800228J200D01*
G01*
X62981928Y-35418600D02*
X62981928Y-32918600D01*
X94481928Y-43518600D02*
X94481928Y-44018600D01*
X77084601Y-53206468D02*
G75*
G02*
X77296733Y-53118594I212099J-212032D01*
G01*
D10*
X105581928Y-49418600D02*
G75*
G02*
X107581928Y-49418600I1000000J0D01*
G01*
D11*
X94381928Y-43418600D02*
G75*
G02*
X94481900Y-43518600I72J-99900D01*
G01*
X63981928Y-54418600D02*
X66981928Y-54418600D01*
X75481928Y-54418600D02*
X74181928Y-54418600D01*
X81181928Y-53118600D02*
X77296733Y-53118600D01*
D10*
X62981928Y-48418600D02*
G75*
G02*
X60981928Y-48418600I-1000000J0D01*
G01*
D11*
X91479255Y-44630732D02*
G75*
G02*
X91267123Y-44718575I-212055J212032D01*
G01*
X105581928Y-38918600D02*
G75*
G02*
X103081928Y-41418628I-2500028J0D01*
G01*
D10*
X97581928Y-28418600D02*
G75*
G02*
X97581928Y-30418600I-28J-1000000D01*
G01*
X101581928Y-30418600D02*
G75*
G02*
X101581928Y-28418600I-28J1000000D01*
G01*
D11*
X81981928Y-31218600D02*
X81981928Y-39318600D01*
X62981928Y-48418600D02*
X62981928Y-45918600D01*
X104581928Y-30418600D02*
X101581928Y-30418600D01*
D10*
X66981928Y-28418600D02*
X60981928Y-28418600D01*
D11*
X92869796Y-43506468D02*
G75*
G02*
X93081928Y-43418591I212104J-212032D01*
G01*
X93081928Y-30418600D02*
X94381928Y-30418600D01*
X104581928Y-43418600D02*
G75*
G02*
X105581900Y-44418600I72J-999900D01*
G01*
D10*
X97581928Y-54418600D02*
G75*
G02*
X97581928Y-56418600I-28J-1000000D01*
G01*
D11*
X95681928Y-31118600D02*
X96381928Y-30418600D01*
X70981928Y-30418600D02*
X81181928Y-30418600D01*
D10*
X66981928Y-56418600D02*
X60981928Y-56418600D01*
D11*
X97581928Y-43418600D02*
X96381928Y-43418600D01*
X63981928Y-41418600D02*
X66981928Y-41418600D01*
X65481928Y-30418600D02*
X66981928Y-30418600D01*
X75694060Y-54330732D02*
G75*
G02*
X75481928Y-54418578I-212060J212032D01*
G01*
X105581928Y-44418600D02*
X105581928Y-45418600D01*
X77084601Y-53206468D02*
X75694060Y-54330732D01*
D10*
X66981928Y-28418600D02*
G75*
G02*
X66981928Y-30418600I-28J-1000000D01*
G01*
D11*
X65481928Y-43418600D02*
X66981928Y-43418600D01*
X81981928Y-39318600D02*
G75*
G02*
X81181928Y-40118628I-800228J200D01*
G01*
X103081928Y-41418600D02*
X101581928Y-41418600D01*
X62981928Y-53418600D02*
X62981928Y-52418600D01*
D10*
X107581928Y-45418600D02*
X107581928Y-36418600D01*
D11*
X75694060Y-41330732D02*
G75*
G02*
X75481928Y-41418578I-212060J212032D01*
G01*
D10*
X70981928Y-28418600D02*
X97581928Y-28418600D01*
D11*
X105581928Y-51918600D02*
G75*
G02*
X103081928Y-54418628I-2500028J0D01*
G01*
X104581928Y-30418600D02*
G75*
G02*
X105581900Y-31418600I72J-999900D01*
G01*
D10*
X60981928Y-28418600D02*
X60981928Y-35418600D01*
D11*
X94481928Y-30518600D02*
X94481928Y-31018600D01*
X94581928Y-31118600D02*
G75*
G02*
X94481900Y-31018600I72J100100D01*
G01*
X81181928Y-40118600D02*
X77296733Y-40118600D01*
D10*
X101581928Y-56418600D02*
G75*
G02*
X101581928Y-54418600I-28J1000000D01*
G01*
D11*
X63981928Y-41418600D02*
G75*
G02*
X62981900Y-40418600I-128J999900D01*
G01*
X97581928Y-54418600D02*
X87381928Y-54418600D01*
X74181928Y-41418600D02*
G75*
G02*
X74081900Y-41318600I-128J99900D01*
G01*
D10*
X107581928Y-56418600D02*
X107581928Y-49418600D01*
D11*
X86581928Y-45518600D02*
G75*
G02*
X87381928Y-44718628I800172J-200D01*
G01*
X105581928Y-36418600D02*
X105581928Y-38918600D01*
D10*
X60981928Y-39418600D02*
G75*
G02*
X62981928Y-39418600I1000000J0D01*
G01*
D11*
X70981928Y-54418600D02*
X72181928Y-54418600D01*
D10*
X66981928Y-54418600D02*
G75*
G02*
X66981928Y-56418600I-28J-1000000D01*
G01*
D11*
X92869796Y-30506468D02*
G75*
G02*
X93081928Y-30418591I212104J-212032D01*
G01*
X63981928Y-54418600D02*
G75*
G02*
X62981900Y-53418600I-128J999900D01*
G01*
X86581928Y-53618600D02*
X86581928Y-45518600D01*
X104581928Y-43418600D02*
X101581928Y-43418600D01*
D10*
X60981928Y-52418600D02*
G75*
G02*
X62981928Y-52418600I1000000J0D01*
G01*
X70981928Y-43418600D02*
G75*
G02*
X70981928Y-41418600I-28J1000000D01*
G01*
X66981928Y-41418600D02*
G75*
G02*
X66981928Y-43418600I-28J-1000000D01*
G01*
X62981928Y-35418600D02*
G75*
G02*
X60981928Y-35418600I-1000000J0D01*
G01*
M02*
