G04 #@! TF.GenerationSoftware,KiCad,Pcbnew,9.0.3*
G04 #@! TF.CreationDate,2026-01-26T15:41:31+00:00*
G04 #@! TF.ProjectId,4-up-blank,342d7570-2d62-46c6-916e-6b2e6b696361,rev?*
G04 #@! TF.SameCoordinates,Original*
G04 #@! TF.FileFunction,Soldermask,Bot*
G04 #@! TF.FilePolarity,Negative*
%FSLAX46Y46*%
G04 Gerber Fmt 4.6, Leading zero omitted, Abs format (unit mm)*
G04 Created by KiCad (PCBNEW 9.0.3) date 2026-01-26 15:41:31*
%MOMM*%
%LPD*%
G01*
G04 APERTURE LIST*
G04 Aperture macros list*
%AMRoundRect*
0 Rectangle with rounded corners*
0 $1 Rounding radius*
0 $2 $3 $4 $5 $6 $7 $8 $9 X,Y pos of 4 corners*
0 Add a 4 corners polygon primitive as box body*
4,1,4,$2,$3,$4,$5,$6,$7,$8,$9,$2,$3,0*
0 Add four circle primitives for the rounded corners*
1,1,$1+$1,$2,$3*
1,1,$1+$1,$4,$5*
1,1,$1+$1,$6,$7*
1,1,$1+$1,$8,$9*
0 Add four rect primitives between the rounded corners*
20,1,$1+$1,$2,$3,$4,$5,0*
20,1,$1+$1,$4,$5,$6,$7,0*
20,1,$1+$1,$6,$7,$8,$9,0*
20,1,$1+$1,$8,$9,$2,$3,0*%
G04 Aperture macros list end*
%ADD10RoundRect,0.063500X-1.625000X0.400000X-1.625000X-0.400000X1.625000X-0.400000X1.625000X0.400000X0*%
%ADD11RoundRect,0.063500X-1.875000X0.400000X-1.875000X-0.400000X1.875000X-0.400000X1.875000X0.400000X0*%
%ADD12RoundRect,0.063500X1.625000X-0.400000X1.625000X0.400000X-1.625000X0.400000X-1.625000X-0.400000X0*%
%ADD13RoundRect,0.063500X1.875000X-0.400000X1.875000X0.400000X-1.875000X0.400000X-1.875000X-0.400000X0*%
%ADD14C,3.200000*%
%ADD15C,0.500000*%
%ADD16RoundRect,0.010000X0.450000X0.150000X-0.450000X0.150000X-0.450000X-0.150000X0.450000X-0.150000X0*%
%ADD17RoundRect,0.100000X0.125000X0.825000X-0.125000X0.825000X-0.125000X-0.825000X0.125000X-0.825000X0*%
%ADD18RoundRect,0.010000X-0.450000X-0.150000X0.450000X-0.150000X0.450000X0.150000X-0.450000X0.150000X0*%
%ADD19RoundRect,0.100000X-0.125000X-0.825000X0.125000X-0.825000X0.125000X0.825000X-0.125000X0.825000X0*%
G04 APERTURE END LIST*
D10*
G04 #@! TO.C,U1*
X89081929Y-46818600D03*
D11*
X88831929Y-50118600D03*
D10*
X89081929Y-47918600D03*
X89081929Y-52318600D03*
X89081929Y-53418600D03*
D11*
X88831929Y-45718600D03*
D12*
X89081929Y-51218600D03*
D10*
X89081929Y-49018600D03*
G04 #@! TD*
D12*
G04 #@! TO.C,U1*
X79481927Y-51018600D03*
D13*
X79731927Y-47718600D03*
D12*
X79481927Y-49918600D03*
X79481927Y-45518600D03*
X79481927Y-44418600D03*
D13*
X79731927Y-52118600D03*
D10*
X79481927Y-46618600D03*
D12*
X79481927Y-48818600D03*
G04 #@! TD*
D14*
G04 #@! TO.C,@HOLE0*
X103131574Y-38918600D03*
G04 #@! TD*
D15*
G04 #@! TO.C,mouse-bite-2mm-slot*
X61231928Y-38168600D03*
X62731928Y-38168600D03*
X61231928Y-37418600D03*
X62731928Y-37418600D03*
X61231928Y-36668600D03*
X62731928Y-36668600D03*
G04 #@! TD*
D14*
G04 #@! TO.C,@HOLE0*
X103131574Y-51918600D03*
G04 #@! TD*
D15*
G04 #@! TO.C,mouse-bite-2mm-slot*
X61231928Y-51168600D03*
X62731928Y-51168600D03*
X61231928Y-50418600D03*
X62731928Y-50418600D03*
X61231928Y-49668600D03*
X62731928Y-49668600D03*
G04 #@! TD*
D14*
G04 #@! TO.C,@HOLE0*
X65432282Y-45918600D03*
G04 #@! TD*
D12*
G04 #@! TO.C,U1*
X79481927Y-38018600D03*
D13*
X79731927Y-34718600D03*
D12*
X79481927Y-36918600D03*
X79481927Y-32518600D03*
X79481927Y-31418600D03*
D13*
X79731927Y-39118600D03*
D10*
X79481927Y-33618600D03*
D12*
X79481927Y-35818600D03*
G04 #@! TD*
D14*
G04 #@! TO.C,@HOLE0*
X65432282Y-32918600D03*
G04 #@! TD*
D15*
G04 #@! TO.C,mouse-bite-2mm-slot*
X107331928Y-46668600D03*
X105831928Y-46668600D03*
X107331928Y-47418600D03*
X105831928Y-47418600D03*
X107331928Y-48168600D03*
X105831928Y-48168600D03*
G04 #@! TD*
G04 #@! TO.C,mouse-bite-2mm-slot*
X100331928Y-43168600D03*
X100331928Y-41668600D03*
X99581928Y-43168600D03*
X99581928Y-41668600D03*
X98831928Y-43168600D03*
X98831928Y-41668600D03*
G04 #@! TD*
D10*
G04 #@! TO.C,U1*
X89081929Y-33818600D03*
D11*
X88831929Y-37118600D03*
D10*
X89081929Y-34918600D03*
X89081929Y-39318600D03*
X89081929Y-40418600D03*
D11*
X88831929Y-32718600D03*
D12*
X89081929Y-38218600D03*
D10*
X89081929Y-36018600D03*
G04 #@! TD*
D15*
G04 #@! TO.C,mouse-bite-2mm-slot*
X100331928Y-30168600D03*
X100331928Y-28668600D03*
X99581928Y-30168600D03*
X99581928Y-28668600D03*
X98831928Y-30168600D03*
X98831928Y-28668600D03*
G04 #@! TD*
G04 #@! TO.C,mouse-bite-2mm-slot*
X68231928Y-28668600D03*
X68231928Y-30168600D03*
X68981928Y-28668600D03*
X68981928Y-30168600D03*
X69731928Y-28668600D03*
X69731928Y-30168600D03*
G04 #@! TD*
G04 #@! TO.C,mouse-bite-2mm-slot*
X68231928Y-41668600D03*
X68231928Y-43168600D03*
X68981928Y-41668600D03*
X68981928Y-43168600D03*
X69731928Y-41668600D03*
X69731928Y-43168600D03*
G04 #@! TD*
G04 #@! TO.C,mouse-bite-2mm-slot*
X68231928Y-54668600D03*
X68231928Y-56168600D03*
X68981928Y-54668600D03*
X68981928Y-56168600D03*
X69731928Y-54668600D03*
X69731928Y-56168600D03*
G04 #@! TD*
G04 #@! TO.C,mouse-bite-2mm-slot*
X100331928Y-56168600D03*
X100331928Y-54668600D03*
X99581928Y-56168600D03*
X99581928Y-54668600D03*
X98831928Y-56168600D03*
X98831928Y-54668600D03*
G04 #@! TD*
G04 #@! TO.C,mouse-bite-2mm-slot*
X107331928Y-33668600D03*
X105831928Y-33668600D03*
X107331928Y-34418600D03*
X105831928Y-34418600D03*
X107331928Y-35168600D03*
X105831928Y-35168600D03*
G04 #@! TD*
D16*
G04 #@! TO.C,IC2*
X103031928Y-33068600D03*
X103031928Y-33568600D03*
X103031928Y-34068600D03*
X103031928Y-34568600D03*
X100231928Y-34568600D03*
X100231928Y-34068600D03*
X100231928Y-33568600D03*
X100231928Y-33068600D03*
D17*
X101631928Y-33818600D03*
G04 #@! TD*
D18*
G04 #@! TO.C,IC2*
X65531928Y-51768600D03*
X65531928Y-51268600D03*
X65531928Y-50768600D03*
X65531928Y-50268600D03*
X68331928Y-50268600D03*
X68331928Y-50768600D03*
X68331928Y-51268600D03*
X68331928Y-51768600D03*
D19*
X66931928Y-51018600D03*
G04 #@! TD*
D18*
G04 #@! TO.C,IC2*
X65531928Y-38768600D03*
X65531928Y-38268600D03*
X65531928Y-37768600D03*
X65531928Y-37268600D03*
X68331928Y-37268600D03*
X68331928Y-37768600D03*
X68331928Y-38268600D03*
X68331928Y-38768600D03*
D19*
X66931928Y-38018600D03*
G04 #@! TD*
D16*
G04 #@! TO.C,IC2*
X103031928Y-46068600D03*
X103031928Y-46568600D03*
X103031928Y-47068600D03*
X103031928Y-47568600D03*
X100231928Y-47568600D03*
X100231928Y-47068600D03*
X100231928Y-46568600D03*
X100231928Y-46068600D03*
D17*
X101631928Y-46818600D03*
G04 #@! TD*
M02*
