G04 #@! TF.GenerationSoftware,KiCad,Pcbnew,9.0.3*
G04 #@! TF.CreationDate,2026-01-26T15:41:31+00:00*
G04 #@! TF.ProjectId,4-up-blank,342d7570-2d62-46c6-916e-6b2e6b696361,rev?*
G04 #@! TF.SameCoordinates,Original*
G04 #@! TF.FileFunction,Legend,Top*
G04 #@! TF.FilePolarity,Positive*
%FSLAX46Y46*%
G04 Gerber Fmt 4.6, Leading zero omitted, Abs format (unit mm)*
G04 Created by KiCad (PCBNEW 9.0.3) date 2026-01-26 15:41:31*
%MOMM*%
%LPD*%
G01*
G04 APERTURE LIST*
%ADD10C,0.100000*%
%ADD11C,3.200000*%
%ADD12C,0.500000*%
G04 APERTURE END LIST*
D10*
G36*
X62880807Y-23146530D02*
G01*
X62506565Y-21648833D01*
X62746443Y-21648833D01*
X62981282Y-22713763D01*
X62985404Y-22713763D01*
X63275564Y-21648833D01*
X63438596Y-21648833D01*
X63728848Y-22713763D01*
X63732878Y-22713763D01*
X63967718Y-21648833D01*
X64207686Y-21648833D01*
X63833354Y-23146530D01*
X63644676Y-23146530D01*
X63358637Y-22067221D01*
X63354516Y-22067221D01*
X63069484Y-23146530D01*
X62880807Y-23146530D01*
G37*
G36*
X64834606Y-22070517D02*
G01*
X64900632Y-22085720D01*
X64954337Y-22109262D01*
X65026237Y-22156339D01*
X65076153Y-22201585D01*
X65129151Y-22273800D01*
X65164264Y-22353535D01*
X65183055Y-22448674D01*
X65190917Y-22609166D01*
X65183025Y-22772309D01*
X65164264Y-22867819D01*
X65129151Y-22947554D01*
X65076153Y-23019768D01*
X65026081Y-23065705D01*
X64954337Y-23112184D01*
X64900707Y-23135117D01*
X64834678Y-23149955D01*
X64753569Y-23155323D01*
X64671068Y-23149916D01*
X64604599Y-23135042D01*
X64551244Y-23112184D01*
X64479968Y-23065739D01*
X64429978Y-23019768D01*
X64376958Y-22947556D01*
X64341776Y-22867819D01*
X64323079Y-22772311D01*
X64315214Y-22609166D01*
X64315241Y-22608616D01*
X64528530Y-22608616D01*
X64531817Y-22717112D01*
X64539246Y-22773572D01*
X64554883Y-22819542D01*
X64580828Y-22863422D01*
X64622614Y-22905740D01*
X64678445Y-22931942D01*
X64753020Y-22941458D01*
X64826312Y-22932050D01*
X64882323Y-22905923D01*
X64925302Y-22863422D01*
X64949917Y-22819756D01*
X64965786Y-22774030D01*
X64973974Y-22718185D01*
X64977601Y-22610631D01*
X64973975Y-22503238D01*
X64965786Y-22447416D01*
X64949961Y-22401515D01*
X64925302Y-22356924D01*
X64882323Y-22314424D01*
X64826312Y-22288296D01*
X64753020Y-22278888D01*
X64678445Y-22288404D01*
X64622614Y-22314606D01*
X64580828Y-22356924D01*
X64554816Y-22401663D01*
X64539246Y-22447416D01*
X64531807Y-22502996D01*
X64528530Y-22608616D01*
X64315241Y-22608616D01*
X64323049Y-22448672D01*
X64341776Y-22353535D01*
X64376958Y-22273797D01*
X64429978Y-22201585D01*
X64479811Y-22156305D01*
X64551244Y-22109262D01*
X64604675Y-22085796D01*
X64671142Y-22070557D01*
X64753569Y-22065023D01*
X64834606Y-22070517D01*
G37*
G36*
X65417238Y-23143600D02*
G01*
X65417238Y-22076747D01*
X65630554Y-22076747D01*
X65630554Y-22190686D01*
X65634584Y-22190686D01*
X65688771Y-22136041D01*
X65751674Y-22097292D01*
X65825025Y-22073405D01*
X65911463Y-22065023D01*
X65986744Y-22073752D01*
X66060364Y-22100305D01*
X66133938Y-22146539D01*
X65979149Y-22331370D01*
X65930713Y-22301359D01*
X65883897Y-22284385D01*
X65837641Y-22278888D01*
X65786875Y-22284728D01*
X65739577Y-22302147D01*
X65694576Y-22331919D01*
X65660559Y-22371701D01*
X65638681Y-22426680D01*
X65630554Y-22502004D01*
X65630554Y-23143600D01*
X65417238Y-23143600D01*
G37*
G36*
X66232032Y-23149461D02*
G01*
X66232032Y-21648833D01*
X66445348Y-21648833D01*
X66445348Y-22584161D01*
X66449378Y-22584161D01*
X66858515Y-22082609D01*
X67114878Y-22082609D01*
X66747781Y-22499897D01*
X67165162Y-23149461D01*
X66896525Y-23149461D01*
X66613509Y-22651023D01*
X66445348Y-22843181D01*
X66445348Y-23149461D01*
X66232032Y-23149461D01*
G37*
G36*
X67203813Y-22966554D02*
G01*
X67353565Y-22819642D01*
X67427406Y-22879739D01*
X67506920Y-22921883D01*
X67593430Y-22947320D01*
X67688788Y-22956021D01*
X67774723Y-22946775D01*
X67839364Y-22921583D01*
X67872777Y-22894508D01*
X67892170Y-22861088D01*
X67898898Y-22819184D01*
X67891357Y-22778852D01*
X67869702Y-22748919D01*
X67831265Y-22726933D01*
X67768747Y-22714221D01*
X67580253Y-22696727D01*
X67495133Y-22681893D01*
X67422829Y-22652669D01*
X67360984Y-22609349D01*
X67313538Y-22552617D01*
X67284360Y-22482270D01*
X67273972Y-22394201D01*
X67281688Y-22314875D01*
X67303462Y-22249158D01*
X67338464Y-22194259D01*
X67387545Y-22148371D01*
X67467098Y-22103064D01*
X67560177Y-22074929D01*
X67670012Y-22065023D01*
X67762280Y-22069905D01*
X67841149Y-22083638D01*
X67908515Y-22105140D01*
X68003151Y-22152121D01*
X68086660Y-22211844D01*
X67955043Y-22368647D01*
X67890063Y-22329239D01*
X67823793Y-22297939D01*
X67753056Y-22277412D01*
X67669920Y-22270187D01*
X67602033Y-22275270D01*
X67556590Y-22288210D01*
X67527313Y-22306640D01*
X67497354Y-22347606D01*
X67487288Y-22398323D01*
X67494370Y-22431146D01*
X67517055Y-22462986D01*
X67554814Y-22485137D01*
X67627880Y-22498798D01*
X67804010Y-22511072D01*
X67886374Y-22522971D01*
X67951115Y-22544620D01*
X68001640Y-22574664D01*
X68040498Y-22612829D01*
X68080013Y-22676379D01*
X68103948Y-22747753D01*
X68112214Y-22829076D01*
X68103898Y-22904162D01*
X68080046Y-22967925D01*
X68040768Y-23022873D01*
X67984169Y-23070418D01*
X67895293Y-23116547D01*
X67792294Y-23145240D01*
X67672027Y-23155323D01*
X67568191Y-23147738D01*
X67470552Y-23125358D01*
X67377897Y-23088231D01*
X67289227Y-23035724D01*
X67203813Y-22966554D01*
G37*
G36*
X68327636Y-23149461D02*
G01*
X68327636Y-21648833D01*
X68540951Y-21648833D01*
X68540951Y-22196731D01*
X68544981Y-22196731D01*
X68599266Y-22142001D01*
X68662263Y-22103196D01*
X68735704Y-22079277D01*
X68822228Y-22070885D01*
X68901946Y-22080833D01*
X68981229Y-22111414D01*
X69062013Y-22165407D01*
X69111492Y-22216603D01*
X69147220Y-22278001D01*
X69169632Y-22351681D01*
X69177601Y-22440638D01*
X69177601Y-23149461D01*
X68964285Y-23149461D01*
X68964285Y-22514094D01*
X68956953Y-22444523D01*
X68936561Y-22389394D01*
X68904018Y-22345475D01*
X68860681Y-22311795D01*
X68811364Y-22291683D01*
X68754175Y-22284750D01*
X68694856Y-22291767D01*
X68644533Y-22311958D01*
X68601127Y-22345475D01*
X68568637Y-22389387D01*
X68548274Y-22444516D01*
X68540951Y-22514094D01*
X68540951Y-23149461D01*
X68327636Y-23149461D01*
G37*
G36*
X69921207Y-22070517D02*
G01*
X69987233Y-22085720D01*
X70040938Y-22109262D01*
X70112839Y-22156339D01*
X70162754Y-22201585D01*
X70215753Y-22273800D01*
X70250865Y-22353535D01*
X70269657Y-22448674D01*
X70277518Y-22609166D01*
X70269627Y-22772309D01*
X70250865Y-22867819D01*
X70215753Y-22947554D01*
X70162754Y-23019768D01*
X70112682Y-23065705D01*
X70040938Y-23112184D01*
X69987308Y-23135117D01*
X69921280Y-23149955D01*
X69840171Y-23155323D01*
X69757669Y-23149916D01*
X69691201Y-23135042D01*
X69637846Y-23112184D01*
X69566569Y-23065739D01*
X69516579Y-23019768D01*
X69463560Y-22947556D01*
X69428377Y-22867819D01*
X69409680Y-22772311D01*
X69401816Y-22609166D01*
X69401843Y-22608616D01*
X69615131Y-22608616D01*
X69618419Y-22717112D01*
X69625848Y-22773572D01*
X69641484Y-22819542D01*
X69667430Y-22863422D01*
X69709216Y-22905740D01*
X69765047Y-22931942D01*
X69839621Y-22941458D01*
X69912913Y-22932050D01*
X69968924Y-22905923D01*
X70011904Y-22863422D01*
X70036518Y-22819756D01*
X70052387Y-22774030D01*
X70060575Y-22718185D01*
X70064202Y-22610631D01*
X70060576Y-22503238D01*
X70052387Y-22447416D01*
X70036562Y-22401515D01*
X70011904Y-22356924D01*
X69968924Y-22314424D01*
X69912913Y-22288296D01*
X69839621Y-22278888D01*
X69765047Y-22288404D01*
X69709216Y-22314606D01*
X69667430Y-22356924D01*
X69641418Y-22401663D01*
X69625848Y-22447416D01*
X69618408Y-22502996D01*
X69615131Y-22608616D01*
X69401843Y-22608616D01*
X69409651Y-22448672D01*
X69428377Y-22353535D01*
X69463560Y-22273797D01*
X69516579Y-22201585D01*
X69566412Y-22156305D01*
X69637846Y-22109262D01*
X69691277Y-22085796D01*
X69757744Y-22070557D01*
X69840171Y-22065023D01*
X69921207Y-22070517D01*
G37*
G36*
X71085097Y-22075402D02*
G01*
X71160639Y-22104682D01*
X71225890Y-22149797D01*
X71277784Y-22204058D01*
X71314590Y-22265744D01*
X71337868Y-22338331D01*
X71348865Y-22430074D01*
X71353805Y-22612646D01*
X71348878Y-22794317D01*
X71337868Y-22886412D01*
X71314531Y-22959242D01*
X71277784Y-23020226D01*
X71225772Y-23075092D01*
X71160639Y-23119603D01*
X71085168Y-23148055D01*
X70992295Y-23158162D01*
X70912337Y-23149455D01*
X70842910Y-23124274D01*
X70779190Y-23084988D01*
X70717155Y-23032683D01*
X70717155Y-23577375D01*
X70503840Y-23577375D01*
X70503840Y-22612097D01*
X70717155Y-22612097D01*
X70724695Y-22727053D01*
X70747014Y-22836495D01*
X70768435Y-22882152D01*
X70803229Y-22914859D01*
X70854457Y-22936211D01*
X70928273Y-22944297D01*
X71002459Y-22936399D01*
X71053841Y-22915602D01*
X71088635Y-22883935D01*
X71110081Y-22840067D01*
X71132638Y-22732812D01*
X71140489Y-22612097D01*
X71132646Y-22491323D01*
X71110081Y-22383668D01*
X71088602Y-22339525D01*
X71053779Y-22307696D01*
X71002402Y-22286815D01*
X70928273Y-22278888D01*
X70854513Y-22287002D01*
X70803290Y-22308438D01*
X70768467Y-22341305D01*
X70747014Y-22387240D01*
X70724684Y-22497145D01*
X70717155Y-22612097D01*
X70503840Y-22612097D01*
X70503840Y-22076747D01*
X70717155Y-22076747D01*
X70717155Y-22188579D01*
X70777267Y-22133825D01*
X70842283Y-22095742D01*
X70913375Y-22072852D01*
X70992295Y-22065023D01*
X71085097Y-22075402D01*
G37*
G36*
X71986607Y-22948602D02*
G01*
X72136359Y-22776960D01*
X72226051Y-22837444D01*
X72330440Y-22885679D01*
X72442593Y-22916392D01*
X72560609Y-22926712D01*
X72651461Y-22919481D01*
X72722644Y-22899717D01*
X72778229Y-22869284D01*
X72822777Y-22826175D01*
X72848566Y-22776651D01*
X72857364Y-22718342D01*
X72849224Y-22652557D01*
X72826644Y-22602052D01*
X72790081Y-22563084D01*
X72736947Y-22534113D01*
X72662091Y-22516109D01*
X72566470Y-22503836D01*
X72463705Y-22489456D01*
X72367678Y-22469178D01*
X72287951Y-22438273D01*
X72221940Y-22397606D01*
X72167683Y-22347215D01*
X72123322Y-22286682D01*
X72091817Y-22220836D01*
X72072619Y-22148589D01*
X72066017Y-22068504D01*
X72074409Y-21975208D01*
X72098625Y-21893092D01*
X72138216Y-21820009D01*
X72194061Y-21754438D01*
X72261356Y-21702536D01*
X72341978Y-21664246D01*
X72438596Y-21639928D01*
X72554655Y-21631248D01*
X72690571Y-21642509D01*
X72816056Y-21675578D01*
X72934371Y-21726113D01*
X73041462Y-21787777D01*
X72914242Y-21974714D01*
X72829393Y-21928446D01*
X72737746Y-21891641D01*
X72642249Y-21867784D01*
X72544947Y-21859859D01*
X72476970Y-21866143D01*
X72418413Y-21884129D01*
X72367443Y-21913348D01*
X72327690Y-21953922D01*
X72303352Y-22006128D01*
X72294628Y-22073724D01*
X72299873Y-22114453D01*
X72315854Y-22153890D01*
X72343904Y-22193067D01*
X72380591Y-22223742D01*
X72433436Y-22248494D01*
X72507303Y-22266065D01*
X72579293Y-22276873D01*
X72675922Y-22288688D01*
X72779566Y-22309425D01*
X72863647Y-22342262D01*
X72931550Y-22386059D01*
X72985774Y-22440821D01*
X73042011Y-22529215D01*
X73074943Y-22621676D01*
X73085975Y-22720357D01*
X73076361Y-22821312D01*
X73049043Y-22906516D01*
X73004903Y-22979115D01*
X72942910Y-23041201D01*
X72869125Y-23089160D01*
X72782288Y-23124729D01*
X72679980Y-23147304D01*
X72559235Y-23155323D01*
X72424607Y-23146606D01*
X72301579Y-23121251D01*
X72188458Y-23079937D01*
X72083827Y-23022632D01*
X71986607Y-22948602D01*
G37*
G36*
X73526620Y-23102567D02*
G01*
X73145234Y-22079678D01*
X73370823Y-22079678D01*
X73623065Y-22824863D01*
X73627095Y-22824863D01*
X73879428Y-22079678D01*
X74106025Y-22079678D01*
X73648710Y-23366807D01*
X73612169Y-23444663D01*
X73570725Y-23498580D01*
X73524605Y-23533686D01*
X73441865Y-23566244D01*
X73348200Y-23577375D01*
X73276484Y-23577375D01*
X73276484Y-23372211D01*
X73340049Y-23372211D01*
X73385124Y-23366168D01*
X73420135Y-23349219D01*
X73447558Y-23321279D01*
X73468184Y-23279887D01*
X73526620Y-23102567D01*
G37*
G36*
X74114909Y-22966554D02*
G01*
X74264660Y-22819642D01*
X74338502Y-22879739D01*
X74418015Y-22921883D01*
X74504526Y-22947320D01*
X74599884Y-22956021D01*
X74685819Y-22946775D01*
X74750459Y-22921583D01*
X74783873Y-22894508D01*
X74803266Y-22861088D01*
X74809994Y-22819184D01*
X74802452Y-22778852D01*
X74780797Y-22748919D01*
X74742361Y-22726933D01*
X74679843Y-22714221D01*
X74491348Y-22696727D01*
X74406229Y-22681893D01*
X74333924Y-22652669D01*
X74272079Y-22609349D01*
X74224634Y-22552617D01*
X74195455Y-22482270D01*
X74185068Y-22394201D01*
X74192784Y-22314875D01*
X74214558Y-22249158D01*
X74249560Y-22194259D01*
X74298641Y-22148371D01*
X74378194Y-22103064D01*
X74471273Y-22074929D01*
X74581108Y-22065023D01*
X74673376Y-22069905D01*
X74752244Y-22083638D01*
X74819611Y-22105140D01*
X74914246Y-22152121D01*
X74997755Y-22211844D01*
X74866139Y-22368647D01*
X74801159Y-22329239D01*
X74734889Y-22297939D01*
X74664151Y-22277412D01*
X74581016Y-22270187D01*
X74513128Y-22275270D01*
X74467685Y-22288210D01*
X74438409Y-22306640D01*
X74408449Y-22347606D01*
X74398383Y-22398323D01*
X74405466Y-22431146D01*
X74428150Y-22462986D01*
X74465910Y-22485137D01*
X74538976Y-22498798D01*
X74715105Y-22511072D01*
X74797469Y-22522971D01*
X74862211Y-22544620D01*
X74912735Y-22574664D01*
X74951593Y-22612829D01*
X74991109Y-22676379D01*
X75015043Y-22747753D01*
X75023309Y-22829076D01*
X75014994Y-22904162D01*
X74991141Y-22967925D01*
X74951864Y-23022873D01*
X74895265Y-23070418D01*
X74806389Y-23116547D01*
X74703390Y-23145240D01*
X74583123Y-23155323D01*
X74479286Y-23147738D01*
X74381648Y-23125358D01*
X74288992Y-23088231D01*
X74200323Y-23035724D01*
X74114909Y-22966554D01*
G37*
G36*
X75250455Y-23143600D02*
G01*
X75250455Y-22240878D01*
X75144942Y-22240878D01*
X75144942Y-22076747D01*
X75250455Y-22076747D01*
X75250455Y-21909135D01*
X75463771Y-21679883D01*
X75463771Y-22076747D01*
X75619750Y-22076747D01*
X75619750Y-22240878D01*
X75463771Y-22240878D01*
X75463771Y-23143600D01*
X75250455Y-23143600D01*
G37*
G36*
X76286903Y-22072712D02*
G01*
X76365399Y-22095329D01*
X76438703Y-22133006D01*
X76507909Y-22186931D01*
X76564444Y-22251913D01*
X76605036Y-22326878D01*
X76630224Y-22413786D01*
X76639067Y-22515376D01*
X76639067Y-22692239D01*
X75976681Y-22692239D01*
X75985624Y-22777216D01*
X76010024Y-22841518D01*
X76048305Y-22890075D01*
X76099464Y-22926187D01*
X76159631Y-22948275D01*
X76231304Y-22956021D01*
X76315724Y-22944781D01*
X76393222Y-22911175D01*
X76466235Y-22852981D01*
X76618826Y-22985513D01*
X76562696Y-23041889D01*
X76503598Y-23085023D01*
X76441047Y-23116214D01*
X76340190Y-23145518D01*
X76234693Y-23155323D01*
X76128453Y-23143949D01*
X76023209Y-23109283D01*
X75916963Y-23049078D01*
X75866806Y-23003815D01*
X75825395Y-22942087D01*
X75793030Y-22860127D01*
X75771392Y-22752883D01*
X75763365Y-22614295D01*
X75768774Y-22516384D01*
X75977688Y-22516384D01*
X76425752Y-22516384D01*
X76417873Y-22439194D01*
X76396237Y-22379602D01*
X76362187Y-22333568D01*
X76316497Y-22298515D01*
X76264033Y-22277472D01*
X76202727Y-22270187D01*
X76140735Y-22277486D01*
X76087760Y-22298546D01*
X76041710Y-22333568D01*
X76007396Y-22379639D01*
X75985615Y-22439232D01*
X75977688Y-22516384D01*
X75768774Y-22516384D01*
X75770577Y-22483754D01*
X75790253Y-22379796D01*
X75820039Y-22297727D01*
X75858481Y-22233557D01*
X75905148Y-22184183D01*
X75979951Y-22130177D01*
X76053659Y-22093451D01*
X76127202Y-22072077D01*
X76201720Y-22065023D01*
X76286903Y-22072712D01*
G37*
G36*
X76878578Y-23143600D02*
G01*
X76878578Y-22076747D01*
X77091893Y-22076747D01*
X77091893Y-22190686D01*
X77096015Y-22190686D01*
X77151251Y-22135878D01*
X77214645Y-22097130D01*
X77287822Y-22073338D01*
X77373261Y-22065023D01*
X77447186Y-22070079D01*
X77505391Y-22083859D01*
X77550948Y-22104865D01*
X77614181Y-22148938D01*
X77674229Y-22202959D01*
X77741540Y-22143221D01*
X77818517Y-22100567D01*
X77907070Y-22074234D01*
X78009911Y-22065023D01*
X78089257Y-22074963D01*
X78168234Y-22105532D01*
X78248780Y-22159545D01*
X78298040Y-22210711D01*
X78333632Y-22272097D01*
X78355966Y-22345787D01*
X78363910Y-22434776D01*
X78363910Y-23143600D01*
X78150595Y-23143600D01*
X78150595Y-22508232D01*
X78143243Y-22438676D01*
X78122794Y-22383547D01*
X78090145Y-22339613D01*
X78046704Y-22305903D01*
X77997467Y-22285806D01*
X77940576Y-22278888D01*
X77881692Y-22285894D01*
X77831667Y-22306074D01*
X77788444Y-22339613D01*
X77756114Y-22383504D01*
X77735837Y-22438632D01*
X77728543Y-22508232D01*
X77728543Y-23143600D01*
X77515227Y-23143600D01*
X77515227Y-22508232D01*
X77507857Y-22438690D01*
X77487350Y-22383561D01*
X77454594Y-22339613D01*
X77411035Y-22305911D01*
X77361647Y-22285809D01*
X77304568Y-22278888D01*
X77245495Y-22285897D01*
X77195319Y-22306081D01*
X77151977Y-22339613D01*
X77119541Y-22383518D01*
X77099207Y-22438647D01*
X77091893Y-22508232D01*
X77091893Y-23143600D01*
X76878578Y-23143600D01*
G37*
G36*
X79087022Y-23143600D02*
G01*
X79087022Y-22942099D01*
X79671556Y-22207722D01*
X79700643Y-22164222D01*
X79715703Y-22128404D01*
X79725961Y-22058337D01*
X79719978Y-22008092D01*
X79701897Y-21959899D01*
X79670548Y-21912616D01*
X79629591Y-21875358D01*
X79580249Y-21852961D01*
X79519881Y-21845113D01*
X79463990Y-21851709D01*
X79414742Y-21870976D01*
X79370496Y-21903365D01*
X79335976Y-21945704D01*
X79312807Y-21997897D01*
X79301345Y-22062459D01*
X79087022Y-22062459D01*
X79094976Y-21973789D01*
X79118104Y-21894277D01*
X79156194Y-21822112D01*
X79210212Y-21755995D01*
X79275849Y-21700645D01*
X79345673Y-21662153D01*
X79420805Y-21639093D01*
X79502845Y-21631248D01*
X79594132Y-21639447D01*
X79675290Y-21663207D01*
X79748288Y-21702203D01*
X79814530Y-21757369D01*
X79869520Y-21824245D01*
X79908061Y-21896311D01*
X79931320Y-21974782D01*
X79939277Y-22061359D01*
X79929054Y-22159747D01*
X79899346Y-22246678D01*
X79850067Y-22324684D01*
X79369031Y-22929734D01*
X79939277Y-22929734D01*
X79939277Y-23143600D01*
X79087022Y-23143600D01*
G37*
G36*
X80175856Y-23143600D02*
G01*
X80175856Y-22076747D01*
X80389172Y-22076747D01*
X80389172Y-22190686D01*
X80393294Y-22190686D01*
X80448530Y-22135878D01*
X80511924Y-22097130D01*
X80585101Y-22073338D01*
X80670540Y-22065023D01*
X80744465Y-22070079D01*
X80802670Y-22083859D01*
X80848226Y-22104865D01*
X80911460Y-22148938D01*
X80971508Y-22202959D01*
X81038819Y-22143221D01*
X81115796Y-22100567D01*
X81204348Y-22074234D01*
X81307189Y-22065023D01*
X81386536Y-22074963D01*
X81465512Y-22105532D01*
X81546059Y-22159545D01*
X81595319Y-22210711D01*
X81630910Y-22272097D01*
X81653245Y-22345787D01*
X81661189Y-22434776D01*
X81661189Y-23143600D01*
X81447873Y-23143600D01*
X81447873Y-22508232D01*
X81440522Y-22438676D01*
X81420072Y-22383547D01*
X81387423Y-22339613D01*
X81343982Y-22305903D01*
X81294745Y-22285806D01*
X81237855Y-22278888D01*
X81178970Y-22285894D01*
X81128946Y-22306074D01*
X81085722Y-22339613D01*
X81053392Y-22383504D01*
X81033116Y-22438632D01*
X81025821Y-22508232D01*
X81025821Y-23143600D01*
X80812506Y-23143600D01*
X80812506Y-22508232D01*
X80805136Y-22438690D01*
X80784628Y-22383561D01*
X80751873Y-22339613D01*
X80708313Y-22305911D01*
X80658925Y-22285809D01*
X80601846Y-22278888D01*
X80542773Y-22285897D01*
X80492598Y-22306081D01*
X80449256Y-22339613D01*
X80416820Y-22383518D01*
X80396485Y-22438647D01*
X80389172Y-22508232D01*
X80389172Y-23143600D01*
X80175856Y-23143600D01*
G37*
G36*
X82165306Y-22196731D02*
G01*
X82227219Y-22145295D01*
X82291060Y-22105690D01*
X82360540Y-22079815D01*
X82440445Y-22070885D01*
X82533254Y-22081241D01*
X82608790Y-22110452D01*
X82674051Y-22155460D01*
X82725935Y-22209554D01*
X82762750Y-22271124D01*
X82786019Y-22343460D01*
X82797027Y-22434728D01*
X82801955Y-22615027D01*
X82797030Y-22797213D01*
X82786019Y-22889617D01*
X82762665Y-22962669D01*
X82725935Y-23023615D01*
X82673932Y-23078314D01*
X82608790Y-23122717D01*
X82533325Y-23151100D01*
X82440445Y-23161185D01*
X82360961Y-23153347D01*
X82289710Y-23130482D01*
X82224892Y-23092532D01*
X82165306Y-23038087D01*
X82165306Y-23149461D01*
X81951990Y-23149461D01*
X81951990Y-22614478D01*
X82165306Y-22614478D01*
X82172852Y-22729925D01*
X82195165Y-22839517D01*
X82216585Y-22885175D01*
X82251380Y-22917881D01*
X82302608Y-22939233D01*
X82376423Y-22947320D01*
X82450658Y-22939444D01*
X82502043Y-22918719D01*
X82536813Y-22887186D01*
X82558232Y-22843547D01*
X82580754Y-22736506D01*
X82588640Y-22614478D01*
X82580806Y-22495189D01*
X82558232Y-22388523D01*
X82536813Y-22344884D01*
X82502043Y-22313351D01*
X82450658Y-22292626D01*
X82376423Y-22284750D01*
X82302617Y-22292841D01*
X82251390Y-22314207D01*
X82216591Y-22346940D01*
X82195165Y-22392644D01*
X82172802Y-22501816D01*
X82165306Y-22614478D01*
X81951990Y-22614478D01*
X81951990Y-21648833D01*
X82165306Y-21648833D01*
X82165306Y-22196731D01*
G37*
G36*
X83537615Y-22641314D02*
G01*
X83537615Y-21648833D01*
X83766226Y-21648833D01*
X83766226Y-22613928D01*
X83772359Y-22691213D01*
X83789492Y-22754883D01*
X83816463Y-22807470D01*
X83853146Y-22850874D01*
X83915206Y-22896016D01*
X83985994Y-22923178D01*
X84068110Y-22932574D01*
X84150285Y-22923174D01*
X84221069Y-22896008D01*
X84283075Y-22850874D01*
X84319758Y-22807470D01*
X84346728Y-22754883D01*
X84363862Y-22691213D01*
X84369994Y-22613928D01*
X84369994Y-21648833D01*
X84598606Y-21648833D01*
X84598606Y-22641314D01*
X84588308Y-22756270D01*
X84558822Y-22855639D01*
X84510985Y-22942380D01*
X84443908Y-23018578D01*
X84362526Y-23080914D01*
X84273854Y-23125068D01*
X84176369Y-23151942D01*
X84068019Y-23161185D01*
X83959223Y-23151923D01*
X83861550Y-23125019D01*
X83772913Y-23080861D01*
X83691763Y-23018578D01*
X83624948Y-22942415D01*
X83577276Y-22855686D01*
X83547882Y-22756304D01*
X83537615Y-22641314D01*
G37*
G36*
X84756600Y-22948602D02*
G01*
X84906352Y-22776960D01*
X84996044Y-22837444D01*
X85100433Y-22885679D01*
X85212586Y-22916392D01*
X85330602Y-22926712D01*
X85421454Y-22919481D01*
X85492637Y-22899717D01*
X85548222Y-22869284D01*
X85592770Y-22826175D01*
X85618559Y-22776651D01*
X85627357Y-22718342D01*
X85619217Y-22652557D01*
X85596637Y-22602052D01*
X85560074Y-22563084D01*
X85506940Y-22534113D01*
X85432085Y-22516109D01*
X85336463Y-22503836D01*
X85233698Y-22489456D01*
X85137671Y-22469178D01*
X85057944Y-22438273D01*
X84991933Y-22397606D01*
X84937676Y-22347215D01*
X84893315Y-22286682D01*
X84861810Y-22220836D01*
X84842612Y-22148589D01*
X84836010Y-22068504D01*
X84844402Y-21975208D01*
X84868618Y-21893092D01*
X84908209Y-21820009D01*
X84964054Y-21754438D01*
X85031349Y-21702536D01*
X85111971Y-21664246D01*
X85208589Y-21639928D01*
X85324648Y-21631248D01*
X85460564Y-21642509D01*
X85586049Y-21675578D01*
X85704364Y-21726113D01*
X85811455Y-21787777D01*
X85684235Y-21974714D01*
X85599386Y-21928446D01*
X85507739Y-21891641D01*
X85412242Y-21867784D01*
X85314940Y-21859859D01*
X85246963Y-21866143D01*
X85188406Y-21884129D01*
X85137436Y-21913348D01*
X85097683Y-21953922D01*
X85073345Y-22006128D01*
X85064621Y-22073724D01*
X85069866Y-22114453D01*
X85085847Y-22153890D01*
X85113897Y-22193067D01*
X85150584Y-22223742D01*
X85203429Y-22248494D01*
X85277296Y-22266065D01*
X85349286Y-22276873D01*
X85445915Y-22288688D01*
X85549559Y-22309425D01*
X85633640Y-22342262D01*
X85701543Y-22386059D01*
X85755767Y-22440821D01*
X85812004Y-22529215D01*
X85844936Y-22621676D01*
X85855968Y-22720357D01*
X85846354Y-22821312D01*
X85819036Y-22906516D01*
X85774896Y-22979115D01*
X85712903Y-23041201D01*
X85639118Y-23089160D01*
X85552281Y-23124729D01*
X85449973Y-23147304D01*
X85329228Y-23155323D01*
X85194600Y-23146606D01*
X85071572Y-23121251D01*
X84958451Y-23079937D01*
X84853820Y-23022632D01*
X84756600Y-22948602D01*
G37*
G36*
X86688169Y-21641491D02*
G01*
X86785393Y-21670631D01*
X86868874Y-21717618D01*
X86944523Y-21779420D01*
X87001631Y-21840673D01*
X87042897Y-21901716D01*
X87073174Y-21970133D01*
X87093089Y-22045697D01*
X87102744Y-22147424D01*
X87107468Y-22394293D01*
X87102745Y-22641171D01*
X87093089Y-22742980D01*
X87073171Y-22818531D01*
X87042897Y-22886870D01*
X87001490Y-22948521D01*
X86944354Y-23009629D01*
X86868874Y-23070510D01*
X86785497Y-23116607D01*
X86688268Y-23145247D01*
X86573950Y-23155323D01*
X86459076Y-23145233D01*
X86361558Y-23116579D01*
X86278111Y-23070510D01*
X86202776Y-23009526D01*
X86146400Y-22948430D01*
X86106195Y-22886870D01*
X86075078Y-22818469D01*
X86054904Y-22742980D01*
X86045309Y-22641172D01*
X86040616Y-22394293D01*
X86040633Y-22393377D01*
X86269227Y-22393377D01*
X86274373Y-22604252D01*
X86284981Y-22692880D01*
X86307803Y-22758240D01*
X86344606Y-22816986D01*
X86383459Y-22858134D01*
X86436381Y-22894472D01*
X86498324Y-22918289D01*
X86573950Y-22926712D01*
X86649724Y-22918281D01*
X86711612Y-22894472D01*
X86764592Y-22858123D01*
X86803386Y-22816986D01*
X86840239Y-22758231D01*
X86863012Y-22692880D01*
X86873681Y-22604252D01*
X86878857Y-22393377D01*
X86873685Y-22183310D01*
X86863012Y-22094790D01*
X86840323Y-22029091D01*
X86803386Y-21968578D01*
X86764796Y-21929058D01*
X86711612Y-21892740D01*
X86649683Y-21868447D01*
X86573950Y-21859859D01*
X86498365Y-21868440D01*
X86436381Y-21892740D01*
X86383256Y-21929047D01*
X86344606Y-21968578D01*
X86307719Y-22029083D01*
X86284981Y-22094790D01*
X86274369Y-22183310D01*
X86269227Y-22393377D01*
X86040633Y-22393377D01*
X86045310Y-22147423D01*
X86054904Y-22045697D01*
X86075075Y-21970195D01*
X86106195Y-21901716D01*
X86146260Y-21840765D01*
X86202607Y-21779525D01*
X86278111Y-21717618D01*
X86361662Y-21670659D01*
X86459175Y-21641505D01*
X86573950Y-21631248D01*
X86688169Y-21641491D01*
G37*
G36*
X87366854Y-23149461D02*
G01*
X87366854Y-21648833D01*
X87581086Y-21648833D01*
X88257852Y-22715869D01*
X88257852Y-21648833D01*
X88486463Y-21648833D01*
X88486463Y-23149461D01*
X88273148Y-23149461D01*
X87595466Y-22082425D01*
X87595466Y-23149461D01*
X87366854Y-23149461D01*
G37*
G36*
X88754642Y-22668791D02*
G01*
X88754642Y-22454926D01*
X89387720Y-22454926D01*
X89387720Y-22668791D01*
X88754642Y-22668791D01*
G37*
G36*
X90093453Y-21639390D02*
G01*
X90172691Y-21663070D01*
X90244539Y-21702123D01*
X90310316Y-21757643D01*
X90364693Y-21824605D01*
X90402946Y-21897207D01*
X90426110Y-21976704D01*
X90434056Y-22064840D01*
X90429073Y-22129403D01*
X90414790Y-22185951D01*
X90391741Y-22235840D01*
X90344158Y-22304667D01*
X90284579Y-22367823D01*
X90348409Y-22420296D01*
X90396743Y-22479209D01*
X90431223Y-22545331D01*
X90452422Y-22620084D01*
X90459793Y-22705428D01*
X90450906Y-22803052D01*
X90425339Y-22888263D01*
X90383639Y-22963455D01*
X90324879Y-23030301D01*
X90253785Y-23085316D01*
X90177535Y-23123986D01*
X90094923Y-23147342D01*
X90004311Y-23155323D01*
X89913208Y-23147321D01*
X89830375Y-23123932D01*
X89754143Y-23085257D01*
X89683284Y-23030301D01*
X89624787Y-22963489D01*
X89583253Y-22888309D01*
X89557777Y-22803085D01*
X89548920Y-22705428D01*
X89549118Y-22703138D01*
X89762235Y-22703138D01*
X89770499Y-22768747D01*
X89794455Y-22824885D01*
X89834684Y-22873864D01*
X89886237Y-22911704D01*
X89942061Y-22933935D01*
X90003853Y-22941458D01*
X90065008Y-22933980D01*
X90120825Y-22911789D01*
X90172930Y-22873864D01*
X90213819Y-22824805D01*
X90238109Y-22768670D01*
X90246477Y-22703138D01*
X90238114Y-22637469D01*
X90213825Y-22581115D01*
X90172930Y-22531771D01*
X90120787Y-22493517D01*
X90064974Y-22471157D01*
X90003853Y-22463627D01*
X89942096Y-22471203D01*
X89886275Y-22493602D01*
X89834684Y-22531771D01*
X89794449Y-22581034D01*
X89770495Y-22637392D01*
X89762235Y-22703138D01*
X89549118Y-22703138D01*
X89556330Y-22619645D01*
X89577619Y-22544710D01*
X89612205Y-22478619D01*
X89660648Y-22419918D01*
X89724591Y-22367823D01*
X89664192Y-22304531D01*
X89617155Y-22235840D01*
X89586681Y-22158659D01*
X89575939Y-22064840D01*
X89576319Y-22060627D01*
X89789255Y-22060627D01*
X89797324Y-22128295D01*
X89819724Y-22180690D01*
X89855841Y-22221461D01*
X89902610Y-22252073D01*
X89951909Y-22270022D01*
X90004952Y-22276049D01*
X90058112Y-22270015D01*
X90107440Y-22252061D01*
X90154154Y-22221461D01*
X90190271Y-22180690D01*
X90212671Y-22128295D01*
X90220740Y-22060627D01*
X90212709Y-21993624D01*
X90190338Y-21941364D01*
X90154154Y-21900342D01*
X90107397Y-21869361D01*
X90058075Y-21851208D01*
X90004952Y-21845113D01*
X89951947Y-21851202D01*
X89902652Y-21869349D01*
X89855841Y-21900342D01*
X89819657Y-21941364D01*
X89797286Y-21993624D01*
X89789255Y-22060627D01*
X89576319Y-22060627D01*
X89583880Y-21976699D01*
X89607029Y-21897200D01*
X89645254Y-21824600D01*
X89699587Y-21757643D01*
X89765410Y-21702115D01*
X89837276Y-21663063D01*
X89916500Y-21639387D01*
X90004952Y-21631248D01*
X90093453Y-21639390D01*
G37*
G36*
X90614307Y-22668791D02*
G01*
X90614307Y-22454926D01*
X91247385Y-22454926D01*
X91247385Y-22668791D01*
X90614307Y-22668791D01*
G37*
G36*
X91514098Y-23146439D02*
G01*
X91514098Y-21648833D01*
X92469576Y-21648833D01*
X92469576Y-21862698D01*
X91742709Y-21862698D01*
X91742709Y-22287773D01*
X92361132Y-22287773D01*
X92361132Y-22492937D01*
X91742709Y-22492937D01*
X91742709Y-22932574D01*
X92469576Y-22932574D01*
X92469576Y-23146439D01*
X91514098Y-23146439D01*
G37*
G36*
X93311285Y-21653518D02*
G01*
X93393180Y-21667335D01*
X93472495Y-21696494D01*
X93561433Y-21753522D01*
X93622818Y-21814093D01*
X93676654Y-21897778D01*
X93702443Y-21960572D01*
X93718439Y-22031082D01*
X93724007Y-22110727D01*
X93716864Y-22188025D01*
X93695288Y-22263872D01*
X93658363Y-22339403D01*
X93604298Y-22415542D01*
X93539617Y-22477342D01*
X93461753Y-22522094D01*
X93368003Y-22550233D01*
X93254511Y-22560256D01*
X92909213Y-22560256D01*
X92909213Y-23146439D01*
X92680602Y-23146439D01*
X92680602Y-22346391D01*
X92909213Y-22346391D01*
X93245444Y-22346391D01*
X93325947Y-22337032D01*
X93387021Y-22311307D01*
X93433389Y-22270279D01*
X93468382Y-22216920D01*
X93488661Y-22162091D01*
X93495396Y-22104499D01*
X93488731Y-22038365D01*
X93470049Y-21984653D01*
X93440129Y-21940718D01*
X93398126Y-21904922D01*
X93354516Y-21882259D01*
X93301595Y-21867858D01*
X93237201Y-21862698D01*
X92909213Y-21862698D01*
X92909213Y-22346391D01*
X92680602Y-22346391D01*
X92680602Y-21648833D01*
X93225019Y-21648833D01*
X93311285Y-21653518D01*
G37*
G36*
X94310831Y-23360487D02*
G01*
X94226750Y-23360487D01*
X94124727Y-23231798D01*
X94042109Y-23094820D01*
X93977989Y-22948602D01*
X93931453Y-22795503D01*
X93904332Y-22647894D01*
X93895466Y-22504660D01*
X93904311Y-22362150D01*
X93931410Y-22214764D01*
X93977989Y-22061359D01*
X94042131Y-21914784D01*
X94124755Y-21777596D01*
X94226750Y-21648833D01*
X94310831Y-21648833D01*
X94225918Y-21851891D01*
X94162087Y-22062367D01*
X94132584Y-22206043D01*
X94114772Y-22353302D01*
X94108781Y-22504660D01*
X94114785Y-22656746D01*
X94132610Y-22804211D01*
X94162087Y-22947595D01*
X94225900Y-23157585D01*
X94310831Y-23360487D01*
G37*
G36*
X94420099Y-23143600D02*
G01*
X94420099Y-22942099D01*
X95004633Y-22207722D01*
X95033720Y-22164222D01*
X95048780Y-22128404D01*
X95059038Y-22058337D01*
X95053056Y-22008092D01*
X95034974Y-21959899D01*
X95003626Y-21912616D01*
X94962669Y-21875358D01*
X94913327Y-21852961D01*
X94852959Y-21845113D01*
X94797067Y-21851709D01*
X94747820Y-21870976D01*
X94703574Y-21903365D01*
X94669054Y-21945704D01*
X94645884Y-21997897D01*
X94634422Y-22062459D01*
X94420099Y-22062459D01*
X94428053Y-21973789D01*
X94451182Y-21894277D01*
X94489272Y-21822112D01*
X94543289Y-21755995D01*
X94608927Y-21700645D01*
X94678750Y-21662153D01*
X94753882Y-21639093D01*
X94835923Y-21631248D01*
X94927209Y-21639447D01*
X95008367Y-21663207D01*
X95081365Y-21702203D01*
X95147607Y-21757369D01*
X95202597Y-21824245D01*
X95241139Y-21896311D01*
X95264397Y-21974782D01*
X95272354Y-22061359D01*
X95262132Y-22159747D01*
X95232423Y-22246678D01*
X95183144Y-22324684D01*
X94702108Y-22929734D01*
X95272354Y-22929734D01*
X95272354Y-23143600D01*
X94420099Y-23143600D01*
G37*
G36*
X95742033Y-22598907D02*
G01*
X95393437Y-22076747D01*
X95649801Y-22076747D01*
X95862017Y-22422045D01*
X96074325Y-22076747D01*
X96330689Y-22076747D01*
X95982002Y-22598907D01*
X96344977Y-23143600D01*
X96088614Y-23143600D01*
X95862017Y-22789050D01*
X95635421Y-23143600D01*
X95379058Y-23143600D01*
X95742033Y-22598907D01*
G37*
G36*
X96732590Y-22463627D02*
G01*
X96732590Y-22276049D01*
X96806504Y-22276049D01*
X96875238Y-22268780D01*
X96930518Y-22248437D01*
X96975307Y-22215782D01*
X97009643Y-22172220D01*
X97030257Y-22121868D01*
X97037406Y-22062642D01*
X97030091Y-22004181D01*
X97008750Y-21953281D01*
X96972742Y-21908036D01*
X96926541Y-21872875D01*
X96875778Y-21852157D01*
X96818778Y-21845113D01*
X96753777Y-21856132D01*
X96690550Y-21890451D01*
X96655888Y-21924546D01*
X96629848Y-21969102D01*
X96612606Y-22026555D01*
X96398283Y-22026555D01*
X96411075Y-21950212D01*
X96436952Y-21879362D01*
X96476327Y-21812846D01*
X96530449Y-21749858D01*
X96594182Y-21697086D01*
X96661295Y-21660491D01*
X96732809Y-21638649D01*
X96810168Y-21631248D01*
X96908023Y-21640045D01*
X96992411Y-21665215D01*
X97065897Y-21706023D01*
X97130279Y-21763231D01*
X97184125Y-21832979D01*
X97221296Y-21904759D01*
X97243321Y-21979538D01*
X97250721Y-22058612D01*
X97242388Y-22143509D01*
X97217199Y-22226590D01*
X97189614Y-22276997D01*
X97148802Y-22323925D01*
X97092543Y-22367823D01*
X97150609Y-22412659D01*
X97195015Y-22462272D01*
X97227365Y-22517117D01*
X97258255Y-22606925D01*
X97268307Y-22696177D01*
X97259439Y-22799547D01*
X97234186Y-22888067D01*
X97193518Y-22964477D01*
X97136965Y-23030759D01*
X97067657Y-23085203D01*
X96991836Y-23123757D01*
X96908149Y-23147237D01*
X96814748Y-23155323D01*
X96716998Y-23144412D01*
X96626605Y-23112011D01*
X96541348Y-23056954D01*
X96487788Y-23003934D01*
X96444713Y-22939731D01*
X96411909Y-22862588D01*
X96390040Y-22770091D01*
X96604363Y-22770091D01*
X96640290Y-22841331D01*
X96684597Y-22894472D01*
X96720957Y-22919605D01*
X96767654Y-22935628D01*
X96827662Y-22941458D01*
X96884884Y-22934443D01*
X96937164Y-22913611D01*
X96986023Y-22877985D01*
X97023612Y-22831592D01*
X97046758Y-22774381D01*
X97054991Y-22703138D01*
X97046774Y-22631058D01*
X97023742Y-22573485D01*
X96986481Y-22527100D01*
X96937751Y-22491763D01*
X96883893Y-22470789D01*
X96823174Y-22463627D01*
X96732590Y-22463627D01*
G37*
G36*
X97415219Y-21648833D02*
G01*
X97499299Y-21648833D01*
X97600432Y-21777501D01*
X97682650Y-21914692D01*
X97746778Y-22061359D01*
X97793515Y-22214775D01*
X97820703Y-22362158D01*
X97829577Y-22504660D01*
X97820682Y-22647886D01*
X97793472Y-22795492D01*
X97746778Y-22948602D01*
X97682672Y-23094911D01*
X97600459Y-23231893D01*
X97499299Y-23360487D01*
X97415219Y-23360487D01*
X97498666Y-23157701D01*
X97562406Y-22947595D01*
X97592190Y-22804196D01*
X97610196Y-22656732D01*
X97616261Y-22504660D01*
X97610209Y-22353315D01*
X97592216Y-22206059D01*
X97562406Y-22062367D01*
X97498648Y-21851776D01*
X97415219Y-21648833D01*
G37*
G36*
X62552269Y-25663600D02*
G01*
X62552269Y-25462099D01*
X63136804Y-24727722D01*
X63165891Y-24684222D01*
X63180951Y-24648404D01*
X63191209Y-24578337D01*
X63185226Y-24528092D01*
X63167144Y-24479899D01*
X63135796Y-24432616D01*
X63094839Y-24395358D01*
X63045497Y-24372961D01*
X62985129Y-24365113D01*
X62929237Y-24371709D01*
X62879990Y-24390976D01*
X62835744Y-24423365D01*
X62801224Y-24465704D01*
X62778055Y-24517897D01*
X62766593Y-24582459D01*
X62552269Y-24582459D01*
X62560223Y-24493789D01*
X62583352Y-24414277D01*
X62621442Y-24342112D01*
X62675459Y-24275995D01*
X62741097Y-24220645D01*
X62810921Y-24182153D01*
X62886052Y-24159093D01*
X62968093Y-24151248D01*
X63059379Y-24159447D01*
X63140537Y-24183207D01*
X63213535Y-24222203D01*
X63279777Y-24277369D01*
X63334768Y-24344245D01*
X63373309Y-24416311D01*
X63396567Y-24494782D01*
X63404524Y-24581359D01*
X63394302Y-24679747D01*
X63364594Y-24766678D01*
X63315315Y-24844684D01*
X62834278Y-25449734D01*
X63404524Y-25449734D01*
X63404524Y-25663600D01*
X62552269Y-25663600D01*
G37*
G36*
X63641104Y-25663600D02*
G01*
X63641104Y-24596747D01*
X63854420Y-24596747D01*
X63854420Y-24710686D01*
X63858541Y-24710686D01*
X63913777Y-24655878D01*
X63977171Y-24617130D01*
X64050349Y-24593338D01*
X64135787Y-24585023D01*
X64209713Y-24590079D01*
X64267917Y-24603859D01*
X64313474Y-24624865D01*
X64376707Y-24668938D01*
X64436756Y-24722959D01*
X64504067Y-24663221D01*
X64581043Y-24620567D01*
X64669596Y-24594234D01*
X64772437Y-24585023D01*
X64851783Y-24594963D01*
X64930760Y-24625532D01*
X65011306Y-24679545D01*
X65060566Y-24730711D01*
X65096158Y-24792097D01*
X65118493Y-24865787D01*
X65126436Y-24954776D01*
X65126436Y-25663600D01*
X64913121Y-25663600D01*
X64913121Y-25028232D01*
X64905769Y-24958676D01*
X64885320Y-24903547D01*
X64852671Y-24859613D01*
X64809230Y-24825903D01*
X64759993Y-24805806D01*
X64703102Y-24798888D01*
X64644218Y-24805894D01*
X64594193Y-24826074D01*
X64550970Y-24859613D01*
X64518640Y-24903504D01*
X64498364Y-24958632D01*
X64491069Y-25028232D01*
X64491069Y-25663600D01*
X64277754Y-25663600D01*
X64277754Y-25028232D01*
X64270383Y-24958690D01*
X64249876Y-24903561D01*
X64217120Y-24859613D01*
X64173561Y-24825911D01*
X64124173Y-24805809D01*
X64067094Y-24798888D01*
X64008021Y-24805897D01*
X63957845Y-24826081D01*
X63914503Y-24859613D01*
X63882067Y-24903518D01*
X63861733Y-24958647D01*
X63854420Y-25028232D01*
X63854420Y-25663600D01*
X63641104Y-25663600D01*
G37*
G36*
X65630554Y-24716731D02*
G01*
X65692467Y-24665295D01*
X65756308Y-24625690D01*
X65825788Y-24599815D01*
X65905693Y-24590885D01*
X65998501Y-24601241D01*
X66074038Y-24630452D01*
X66139299Y-24675460D01*
X66191183Y-24729554D01*
X66227998Y-24791124D01*
X66251266Y-24863460D01*
X66262275Y-24954728D01*
X66267203Y-25135027D01*
X66262278Y-25317213D01*
X66251266Y-25409617D01*
X66227913Y-25482669D01*
X66191183Y-25543615D01*
X66139180Y-25598314D01*
X66074038Y-25642717D01*
X65998573Y-25671100D01*
X65905693Y-25681185D01*
X65826209Y-25673347D01*
X65754957Y-25650482D01*
X65690140Y-25612532D01*
X65630554Y-25558087D01*
X65630554Y-25669461D01*
X65417238Y-25669461D01*
X65417238Y-25134478D01*
X65630554Y-25134478D01*
X65638100Y-25249925D01*
X65660412Y-25359517D01*
X65681833Y-25405175D01*
X65716628Y-25437881D01*
X65767856Y-25459233D01*
X65841671Y-25467320D01*
X65915905Y-25459444D01*
X65967291Y-25438719D01*
X66002061Y-25407186D01*
X66023479Y-25363547D01*
X66046002Y-25256506D01*
X66053888Y-25134478D01*
X66046054Y-25015189D01*
X66023479Y-24908523D01*
X66002061Y-24864884D01*
X65967291Y-24833351D01*
X65915905Y-24812626D01*
X65841671Y-24804750D01*
X65767865Y-24812841D01*
X65716638Y-24834207D01*
X65681839Y-24866940D01*
X65660412Y-24912644D01*
X65638050Y-25021816D01*
X65630554Y-25134478D01*
X65417238Y-25134478D01*
X65417238Y-24168833D01*
X65630554Y-24168833D01*
X65630554Y-24716731D01*
G37*
G36*
X67266920Y-25666530D02*
G01*
X66892679Y-24168833D01*
X67132556Y-24168833D01*
X67367395Y-25233763D01*
X67371517Y-25233763D01*
X67661677Y-24168833D01*
X67824709Y-24168833D01*
X68114961Y-25233763D01*
X68118991Y-25233763D01*
X68353831Y-24168833D01*
X68593799Y-24168833D01*
X68219467Y-25666530D01*
X68030789Y-25666530D01*
X67744750Y-24587221D01*
X67740629Y-24587221D01*
X67455597Y-25666530D01*
X67266920Y-25666530D01*
G37*
G36*
X68683742Y-25663600D02*
G01*
X68683742Y-25462099D01*
X69268276Y-24727722D01*
X69297363Y-24684222D01*
X69312423Y-24648404D01*
X69322681Y-24578337D01*
X69316699Y-24528092D01*
X69298617Y-24479899D01*
X69267269Y-24432616D01*
X69226311Y-24395358D01*
X69176969Y-24372961D01*
X69116601Y-24365113D01*
X69060710Y-24371709D01*
X69011462Y-24390976D01*
X68967216Y-24423365D01*
X68932696Y-24465704D01*
X68909527Y-24517897D01*
X68898065Y-24582459D01*
X68683742Y-24582459D01*
X68691696Y-24493789D01*
X68714824Y-24414277D01*
X68752915Y-24342112D01*
X68806932Y-24275995D01*
X68872569Y-24220645D01*
X68942393Y-24182153D01*
X69017525Y-24159093D01*
X69099565Y-24151248D01*
X69190852Y-24159447D01*
X69272010Y-24183207D01*
X69345008Y-24222203D01*
X69411250Y-24277369D01*
X69466240Y-24344245D01*
X69504781Y-24416311D01*
X69528040Y-24494782D01*
X69535997Y-24581359D01*
X69525774Y-24679747D01*
X69496066Y-24766678D01*
X69446787Y-24844684D01*
X68965751Y-25449734D01*
X69535997Y-25449734D01*
X69535997Y-25663600D01*
X68683742Y-25663600D01*
G37*
G36*
X69725682Y-24976392D02*
G01*
X69725682Y-24168833D01*
X70522616Y-24168833D01*
X70522616Y-24382698D01*
X69924984Y-24382698D01*
X69924984Y-24719662D01*
X69997313Y-24674272D01*
X70076711Y-24647079D01*
X70165319Y-24637780D01*
X70248105Y-24646215D01*
X70321573Y-24670752D01*
X70386730Y-24707736D01*
X70433498Y-24747872D01*
X70487499Y-24818464D01*
X70523806Y-24893502D01*
X70543560Y-24985693D01*
X70552200Y-25158475D01*
X70545648Y-25299972D01*
X70530035Y-25383331D01*
X70501518Y-25453765D01*
X70459784Y-25518611D01*
X70406496Y-25573399D01*
X70330366Y-25627787D01*
X70273063Y-25655305D01*
X70208572Y-25672267D01*
X70135369Y-25678162D01*
X70041460Y-25668511D01*
X69948922Y-25639206D01*
X69856108Y-25588586D01*
X69798001Y-25538706D01*
X69752223Y-25474223D01*
X69718475Y-25392336D01*
X69698021Y-25288992D01*
X69909780Y-25288992D01*
X69931832Y-25354472D01*
X69963690Y-25402157D01*
X70005228Y-25435723D01*
X70058293Y-25456719D01*
X70126393Y-25464297D01*
X70204190Y-25455986D01*
X70256924Y-25434289D01*
X70291652Y-25401473D01*
X70311956Y-25356037D01*
X70332230Y-25247637D01*
X70338884Y-25141439D01*
X70333638Y-25059073D01*
X70319027Y-24990766D01*
X70296294Y-24934168D01*
X70271154Y-24899813D01*
X70235462Y-24874453D01*
X70186511Y-24857842D01*
X70120073Y-24851645D01*
X70061224Y-24859321D01*
X70010256Y-24881731D01*
X69965130Y-24919729D01*
X69924984Y-24976392D01*
X69725682Y-24976392D01*
G37*
G36*
X71385872Y-24161481D02*
G01*
X71483096Y-24190592D01*
X71566571Y-24237527D01*
X71642229Y-24299208D01*
X71699335Y-24360340D01*
X71740594Y-24421258D01*
X71770868Y-24489507D01*
X71790786Y-24564965D01*
X71800440Y-24666473D01*
X71805165Y-24912919D01*
X71801381Y-25136329D01*
X71793259Y-25239350D01*
X71775906Y-25318510D01*
X71750302Y-25381041D01*
X71948689Y-25540226D01*
X71812676Y-25695565D01*
X71623082Y-25544348D01*
X71551961Y-25596720D01*
X71468935Y-25638962D01*
X71377518Y-25665882D01*
X71270823Y-25675323D01*
X71156075Y-25665232D01*
X71058679Y-25636579D01*
X70975350Y-25590510D01*
X70900146Y-25529528D01*
X70843892Y-25468433D01*
X70803800Y-25406870D01*
X70772754Y-25338474D01*
X70752601Y-25262980D01*
X70743006Y-25161172D01*
X70738313Y-24914293D01*
X70738330Y-24913377D01*
X70966924Y-24913377D01*
X70972070Y-25124252D01*
X70982678Y-25212880D01*
X71005500Y-25278240D01*
X71042303Y-25336986D01*
X71081156Y-25378134D01*
X71134078Y-25414472D01*
X71196044Y-25438284D01*
X71271831Y-25446712D01*
X71334409Y-25440695D01*
X71389979Y-25423229D01*
X71439992Y-25394413D01*
X71249299Y-25242555D01*
X71382839Y-25087675D01*
X71556129Y-25226161D01*
X71569883Y-25133540D01*
X71576554Y-24913285D01*
X71571383Y-24703299D01*
X71560709Y-24614790D01*
X71538020Y-24549091D01*
X71501083Y-24488578D01*
X71462493Y-24449058D01*
X71409309Y-24412740D01*
X71347380Y-24388447D01*
X71271647Y-24379859D01*
X71196062Y-24388440D01*
X71134078Y-24412740D01*
X71080953Y-24449047D01*
X71042303Y-24488578D01*
X71005416Y-24549083D01*
X70982678Y-24614790D01*
X70972066Y-24703310D01*
X70966924Y-24913377D01*
X70738330Y-24913377D01*
X70743007Y-24667423D01*
X70752601Y-24565697D01*
X70772772Y-24490195D01*
X70803892Y-24421716D01*
X70843958Y-24360765D01*
X70900304Y-24299525D01*
X70975808Y-24237618D01*
X71059360Y-24190659D01*
X71156872Y-24161505D01*
X71271647Y-24151248D01*
X71385872Y-24161481D01*
G37*
G36*
X72257992Y-25669461D02*
G01*
X72257992Y-24395979D01*
X72044035Y-24552233D01*
X72044035Y-24324080D01*
X72257992Y-24168833D01*
X72471307Y-24168833D01*
X72471307Y-25669461D01*
X72257992Y-25669461D01*
G37*
G36*
X73229715Y-24166769D02*
G01*
X73317249Y-24195201D01*
X73398575Y-24242839D01*
X73447775Y-24289817D01*
X73488065Y-24346533D01*
X73519685Y-24414398D01*
X73542190Y-24495355D01*
X73323837Y-24495355D01*
X73292500Y-24440326D01*
X73251475Y-24402516D01*
X73199290Y-24379290D01*
X73132412Y-24370975D01*
X73058080Y-24380630D01*
X73004248Y-24406910D01*
X72965544Y-24449149D01*
X72940227Y-24511108D01*
X72930637Y-24600136D01*
X72930637Y-24742926D01*
X73076810Y-24707497D01*
X73207242Y-24696398D01*
X73277118Y-24702739D01*
X73340203Y-24721237D01*
X73397882Y-24751810D01*
X73451149Y-24795316D01*
X73490877Y-24848541D01*
X73521205Y-24916988D01*
X73541118Y-25004228D01*
X73548418Y-25114694D01*
X73548418Y-25251623D01*
X73539873Y-25355378D01*
X73515919Y-25441273D01*
X73478021Y-25512661D01*
X73426144Y-25572008D01*
X73364527Y-25619479D01*
X73296408Y-25653302D01*
X73220499Y-25674019D01*
X73135068Y-25681185D01*
X73052317Y-25674160D01*
X72978066Y-25653760D01*
X72910727Y-25620292D01*
X72849120Y-25573108D01*
X72793741Y-25512849D01*
X72753667Y-25441128D01*
X72728532Y-25355628D01*
X72719611Y-25253088D01*
X72719611Y-25114786D01*
X72930637Y-25114786D01*
X72930637Y-25238159D01*
X72940278Y-25327009D01*
X72965761Y-25388938D01*
X73004791Y-25431243D01*
X73059191Y-25457618D01*
X73134427Y-25467320D01*
X73208266Y-25457691D01*
X73261788Y-25431462D01*
X73300314Y-25389260D01*
X73325541Y-25327284D01*
X73335103Y-25238159D01*
X73335103Y-25114786D01*
X73325622Y-25027625D01*
X73300556Y-24966844D01*
X73262141Y-24925296D01*
X73208564Y-24899377D01*
X73134427Y-24889838D01*
X73058889Y-24899448D01*
X73004434Y-24925512D01*
X72965516Y-24967161D01*
X72940197Y-25027895D01*
X72930637Y-25114786D01*
X72719611Y-25114786D01*
X72719611Y-24589236D01*
X72728493Y-24486739D01*
X72753541Y-24401047D01*
X72793509Y-24328964D01*
X72848754Y-24268210D01*
X72911464Y-24219411D01*
X72979099Y-24185041D01*
X73052765Y-24164235D01*
X73133969Y-24157110D01*
X73229715Y-24166769D01*
G37*
G36*
X73634605Y-25484447D02*
G01*
X73817146Y-25350816D01*
X73855966Y-25395564D01*
X73901092Y-25426818D01*
X73953742Y-25445900D01*
X74015991Y-25452574D01*
X74071073Y-25446327D01*
X74127939Y-25426918D01*
X74187815Y-25392490D01*
X74223743Y-25359087D01*
X74250533Y-25314453D01*
X74268015Y-25255797D01*
X74274461Y-25179174D01*
X74274461Y-24168833D01*
X74503072Y-24168833D01*
X74503072Y-25203446D01*
X74492980Y-25314059D01*
X74464342Y-25407497D01*
X74418239Y-25487097D01*
X74353870Y-25555156D01*
X74275590Y-25611335D01*
X74195213Y-25650286D01*
X74111738Y-25673415D01*
X74023867Y-25681185D01*
X73938812Y-25674823D01*
X73863250Y-25656491D01*
X73795623Y-25626780D01*
X73733478Y-25586411D01*
X73680053Y-25539087D01*
X73634605Y-25484447D01*
G37*
G36*
X75136699Y-25666530D02*
G01*
X74643481Y-24168833D01*
X74882351Y-24168833D01*
X75222795Y-25308776D01*
X75226916Y-25308776D01*
X75567360Y-24168833D01*
X75806230Y-24168833D01*
X75313012Y-25666530D01*
X75136699Y-25666530D01*
G37*
G36*
X75940685Y-25161314D02*
G01*
X75940685Y-24168833D01*
X76169297Y-24168833D01*
X76169297Y-25133928D01*
X76175429Y-25211213D01*
X76192563Y-25274883D01*
X76219533Y-25327470D01*
X76256217Y-25370874D01*
X76318277Y-25416016D01*
X76389064Y-25443178D01*
X76471181Y-25452574D01*
X76553356Y-25443174D01*
X76624140Y-25416008D01*
X76686145Y-25370874D01*
X76722829Y-25327470D01*
X76749799Y-25274883D01*
X76766932Y-25211213D01*
X76773065Y-25133928D01*
X76773065Y-24168833D01*
X77001676Y-24168833D01*
X77001676Y-25161314D01*
X76991379Y-25276270D01*
X76961893Y-25375639D01*
X76914056Y-25462380D01*
X76846979Y-25538578D01*
X76765596Y-25600914D01*
X76676924Y-25645068D01*
X76579440Y-25671942D01*
X76471089Y-25681185D01*
X76362294Y-25671923D01*
X76264621Y-25645019D01*
X76175983Y-25600861D01*
X76094833Y-25538578D01*
X76028019Y-25462415D01*
X75980347Y-25375686D01*
X75950953Y-25276304D01*
X75940685Y-25161314D01*
G37*
G36*
X78019803Y-25669461D02*
G01*
X77692731Y-25111214D01*
X77364560Y-25669461D01*
X77109204Y-25669461D01*
X77566610Y-24900096D01*
X77137964Y-24168833D01*
X77394327Y-24168833D01*
X77692731Y-24688979D01*
X77990035Y-24168833D01*
X78246399Y-24168833D01*
X77817753Y-24900096D01*
X78276166Y-25669461D01*
X78019803Y-25669461D01*
G37*
G36*
X78409981Y-25669461D02*
G01*
X78409981Y-24168833D01*
X78638592Y-24168833D01*
X78638592Y-25669461D01*
X78409981Y-25669461D01*
G37*
G36*
X79551399Y-24161481D02*
G01*
X79648623Y-24190592D01*
X79732098Y-24237527D01*
X79807756Y-24299208D01*
X79864862Y-24360340D01*
X79906121Y-24421258D01*
X79936395Y-24489507D01*
X79956313Y-24564965D01*
X79965967Y-24666473D01*
X79970692Y-24912919D01*
X79966908Y-25136329D01*
X79958785Y-25239350D01*
X79941433Y-25318510D01*
X79915829Y-25381041D01*
X80114216Y-25540226D01*
X79978203Y-25695565D01*
X79788609Y-25544348D01*
X79717488Y-25596720D01*
X79634462Y-25638962D01*
X79543045Y-25665882D01*
X79436350Y-25675323D01*
X79321602Y-25665232D01*
X79224206Y-25636579D01*
X79140877Y-25590510D01*
X79065673Y-25529528D01*
X79009419Y-25468433D01*
X78969327Y-25406870D01*
X78938281Y-25338474D01*
X78918128Y-25262980D01*
X78908533Y-25161172D01*
X78903840Y-24914293D01*
X78903857Y-24913377D01*
X79132451Y-24913377D01*
X79137597Y-25124252D01*
X79148205Y-25212880D01*
X79171027Y-25278240D01*
X79207830Y-25336986D01*
X79246683Y-25378134D01*
X79299605Y-25414472D01*
X79361571Y-25438284D01*
X79437358Y-25446712D01*
X79499936Y-25440695D01*
X79555506Y-25423229D01*
X79605519Y-25394413D01*
X79414826Y-25242555D01*
X79548366Y-25087675D01*
X79721656Y-25226161D01*
X79735410Y-25133540D01*
X79742081Y-24913285D01*
X79736910Y-24703299D01*
X79726236Y-24614790D01*
X79703547Y-24549091D01*
X79666610Y-24488578D01*
X79628020Y-24449058D01*
X79574836Y-24412740D01*
X79512907Y-24388447D01*
X79437174Y-24379859D01*
X79361589Y-24388440D01*
X79299605Y-24412740D01*
X79246480Y-24449047D01*
X79207830Y-24488578D01*
X79170943Y-24549083D01*
X79148205Y-24614790D01*
X79137593Y-24703310D01*
X79132451Y-24913377D01*
X78903857Y-24913377D01*
X78908534Y-24667423D01*
X78918128Y-24565697D01*
X78938299Y-24490195D01*
X78969419Y-24421716D01*
X79009484Y-24360765D01*
X79065831Y-24299525D01*
X79141335Y-24237618D01*
X79224886Y-24190659D01*
X79322399Y-24161505D01*
X79437174Y-24151248D01*
X79551399Y-24161481D01*
G37*
G36*
X81414599Y-25242555D02*
G01*
X81653469Y-25242555D01*
X81623722Y-25345314D01*
X81582130Y-25431707D01*
X81529166Y-25504137D01*
X81464425Y-25564315D01*
X81389308Y-25612751D01*
X81308879Y-25647208D01*
X81222053Y-25668157D01*
X81127461Y-25675323D01*
X81012338Y-25665229D01*
X80914640Y-25636572D01*
X80831073Y-25590510D01*
X80755619Y-25529514D01*
X80699189Y-25468419D01*
X80658973Y-25406870D01*
X80627856Y-25338469D01*
X80607682Y-25262980D01*
X80598026Y-25161171D01*
X80593302Y-24914293D01*
X80598027Y-24667424D01*
X80607682Y-24565697D01*
X80627853Y-24490195D01*
X80658973Y-24421716D01*
X80699049Y-24360776D01*
X80755450Y-24299537D01*
X80831073Y-24237618D01*
X80914744Y-24190666D01*
X81012437Y-24161508D01*
X81127461Y-24151248D01*
X81232106Y-24159930D01*
X81324240Y-24184924D01*
X81406100Y-24225543D01*
X81479354Y-24282315D01*
X81543115Y-24351886D01*
X81592833Y-24426727D01*
X81629496Y-24507546D01*
X81653469Y-24595373D01*
X81414599Y-24595373D01*
X81391170Y-24540967D01*
X81357144Y-24490889D01*
X81311468Y-24444522D01*
X81258201Y-24408863D01*
X81197869Y-24387312D01*
X81128469Y-24379859D01*
X81052364Y-24388447D01*
X80990075Y-24412740D01*
X80936606Y-24449061D01*
X80897751Y-24488578D01*
X80860627Y-24549098D01*
X80837759Y-24614790D01*
X80827085Y-24703310D01*
X80821914Y-24913377D01*
X80827089Y-25124252D01*
X80837759Y-25212880D01*
X80860711Y-25278224D01*
X80897751Y-25336986D01*
X80936810Y-25378120D01*
X80990075Y-25414472D01*
X81052323Y-25438282D01*
X81128469Y-25446712D01*
X81199395Y-25438759D01*
X81261905Y-25415585D01*
X81318007Y-25376841D01*
X81368850Y-25320395D01*
X81414599Y-25242555D01*
G37*
G36*
X81718773Y-25663600D02*
G01*
X81718773Y-25462099D01*
X82303307Y-24727722D01*
X82332394Y-24684222D01*
X82347454Y-24648404D01*
X82357713Y-24578337D01*
X82351730Y-24528092D01*
X82333648Y-24479899D01*
X82302300Y-24432616D01*
X82261343Y-24395358D01*
X82212001Y-24372961D01*
X82151633Y-24365113D01*
X82095741Y-24371709D01*
X82046494Y-24390976D01*
X82002248Y-24423365D01*
X81967728Y-24465704D01*
X81944558Y-24517897D01*
X81933096Y-24582459D01*
X81718773Y-24582459D01*
X81726727Y-24493789D01*
X81749856Y-24414277D01*
X81787946Y-24342112D01*
X81841963Y-24275995D01*
X81907601Y-24220645D01*
X81977424Y-24182153D01*
X82052556Y-24159093D01*
X82134597Y-24151248D01*
X82225883Y-24159447D01*
X82307041Y-24183207D01*
X82380039Y-24222203D01*
X82446281Y-24277369D01*
X82501271Y-24344245D01*
X82539813Y-24416311D01*
X82563071Y-24494782D01*
X82571028Y-24581359D01*
X82560806Y-24679747D01*
X82531098Y-24766678D01*
X82481818Y-24844684D01*
X82000782Y-25449734D01*
X82571028Y-25449734D01*
X82571028Y-25663600D01*
X81718773Y-25663600D01*
G37*
G36*
X83252490Y-24159390D02*
G01*
X83331728Y-24183070D01*
X83403576Y-24222123D01*
X83469353Y-24277643D01*
X83523730Y-24344605D01*
X83561983Y-24417207D01*
X83585147Y-24496704D01*
X83593093Y-24584840D01*
X83588110Y-24649403D01*
X83573827Y-24705951D01*
X83550778Y-24755840D01*
X83503195Y-24824667D01*
X83443616Y-24887823D01*
X83507446Y-24940296D01*
X83555780Y-24999209D01*
X83590260Y-25065331D01*
X83611459Y-25140084D01*
X83618830Y-25225428D01*
X83609943Y-25323052D01*
X83584375Y-25408263D01*
X83542676Y-25483455D01*
X83483916Y-25550301D01*
X83412822Y-25605316D01*
X83336572Y-25643986D01*
X83253960Y-25667342D01*
X83163348Y-25675323D01*
X83072245Y-25667321D01*
X82989412Y-25643932D01*
X82913179Y-25605257D01*
X82842321Y-25550301D01*
X82783824Y-25483489D01*
X82742290Y-25408309D01*
X82716814Y-25323085D01*
X82707957Y-25225428D01*
X82708155Y-25223138D01*
X82921272Y-25223138D01*
X82929536Y-25288747D01*
X82953492Y-25344885D01*
X82993721Y-25393864D01*
X83045274Y-25431704D01*
X83101098Y-25453935D01*
X83162890Y-25461458D01*
X83224045Y-25453980D01*
X83279862Y-25431789D01*
X83331967Y-25393864D01*
X83372856Y-25344805D01*
X83397146Y-25288670D01*
X83405514Y-25223138D01*
X83397151Y-25157469D01*
X83372862Y-25101115D01*
X83331967Y-25051771D01*
X83279824Y-25013517D01*
X83224011Y-24991157D01*
X83162890Y-24983627D01*
X83101133Y-24991203D01*
X83045312Y-25013602D01*
X82993721Y-25051771D01*
X82953486Y-25101034D01*
X82929532Y-25157392D01*
X82921272Y-25223138D01*
X82708155Y-25223138D01*
X82715367Y-25139645D01*
X82736656Y-25064710D01*
X82771242Y-24998619D01*
X82819685Y-24939918D01*
X82883628Y-24887823D01*
X82823229Y-24824531D01*
X82776192Y-24755840D01*
X82745718Y-24678659D01*
X82734976Y-24584840D01*
X82735356Y-24580627D01*
X82948292Y-24580627D01*
X82956361Y-24648295D01*
X82978761Y-24700690D01*
X83014878Y-24741461D01*
X83061647Y-24772073D01*
X83110946Y-24790022D01*
X83163989Y-24796049D01*
X83217149Y-24790015D01*
X83266477Y-24772061D01*
X83313191Y-24741461D01*
X83349308Y-24700690D01*
X83371708Y-24648295D01*
X83379777Y-24580627D01*
X83371746Y-24513624D01*
X83349375Y-24461364D01*
X83313191Y-24420342D01*
X83266434Y-24389361D01*
X83217112Y-24371208D01*
X83163989Y-24365113D01*
X83110984Y-24371202D01*
X83061689Y-24389349D01*
X83014878Y-24420342D01*
X82978694Y-24461364D01*
X82956323Y-24513624D01*
X82948292Y-24580627D01*
X82735356Y-24580627D01*
X82742917Y-24496699D01*
X82766066Y-24417200D01*
X82804291Y-24344600D01*
X82858624Y-24277643D01*
X82924447Y-24222115D01*
X82996313Y-24183063D01*
X83075537Y-24159387D01*
X83163989Y-24151248D01*
X83252490Y-24159390D01*
G37*
G36*
X83691279Y-25446712D02*
G01*
X83691279Y-25241548D01*
X84192831Y-24168833D01*
X84431518Y-24168833D01*
X83925660Y-25241548D01*
X84316204Y-25241548D01*
X84316204Y-24813634D01*
X84529520Y-24813634D01*
X84529520Y-25241548D01*
X84646757Y-25241548D01*
X84646757Y-25446712D01*
X84529520Y-25446712D01*
X84529520Y-25669461D01*
X84316204Y-25669461D01*
X84316204Y-25446712D01*
X83691279Y-25446712D01*
G37*
G36*
X85038034Y-24983627D02*
G01*
X85038034Y-24796049D01*
X85111948Y-24796049D01*
X85180682Y-24788780D01*
X85235961Y-24768437D01*
X85280750Y-24735782D01*
X85315086Y-24692220D01*
X85335700Y-24641868D01*
X85342849Y-24582642D01*
X85335534Y-24524181D01*
X85314193Y-24473281D01*
X85278185Y-24428036D01*
X85231984Y-24392875D01*
X85181221Y-24372157D01*
X85124221Y-24365113D01*
X85059220Y-24376132D01*
X84995993Y-24410451D01*
X84961331Y-24444546D01*
X84935291Y-24489102D01*
X84918049Y-24546555D01*
X84703726Y-24546555D01*
X84716519Y-24470212D01*
X84742395Y-24399362D01*
X84781770Y-24332846D01*
X84835892Y-24269858D01*
X84899625Y-24217086D01*
X84966738Y-24180491D01*
X85038252Y-24158649D01*
X85115611Y-24151248D01*
X85213466Y-24160045D01*
X85297855Y-24185215D01*
X85371340Y-24226023D01*
X85435722Y-24283231D01*
X85489568Y-24352979D01*
X85526739Y-24424759D01*
X85548764Y-24499538D01*
X85556164Y-24578612D01*
X85547831Y-24663509D01*
X85522642Y-24746590D01*
X85495057Y-24796997D01*
X85454245Y-24843925D01*
X85397986Y-24887823D01*
X85456052Y-24932659D01*
X85500458Y-24982272D01*
X85532809Y-25037117D01*
X85563698Y-25126925D01*
X85573750Y-25216177D01*
X85564882Y-25319547D01*
X85539629Y-25408067D01*
X85498961Y-25484477D01*
X85442408Y-25550759D01*
X85373100Y-25605203D01*
X85297279Y-25643757D01*
X85213592Y-25667237D01*
X85120191Y-25675323D01*
X85022441Y-25664412D01*
X84932048Y-25632011D01*
X84846791Y-25576954D01*
X84793231Y-25523934D01*
X84750156Y-25459731D01*
X84717352Y-25382588D01*
X84695483Y-25290091D01*
X84909806Y-25290091D01*
X84945733Y-25361331D01*
X84990040Y-25414472D01*
X85026400Y-25439605D01*
X85073097Y-25455628D01*
X85133105Y-25461458D01*
X85190327Y-25454443D01*
X85242607Y-25433611D01*
X85291466Y-25397985D01*
X85329055Y-25351592D01*
X85352201Y-25294381D01*
X85360434Y-25223138D01*
X85352217Y-25151058D01*
X85329185Y-25093485D01*
X85291924Y-25047100D01*
X85243194Y-25011763D01*
X85189336Y-24990789D01*
X85128617Y-24983627D01*
X85038034Y-24983627D01*
G37*
G36*
X86044803Y-24983627D02*
G01*
X86044803Y-24796049D01*
X86118717Y-24796049D01*
X86187451Y-24788780D01*
X86242730Y-24768437D01*
X86287519Y-24735782D01*
X86321855Y-24692220D01*
X86342469Y-24641868D01*
X86349618Y-24582642D01*
X86342303Y-24524181D01*
X86320962Y-24473281D01*
X86284954Y-24428036D01*
X86238753Y-24392875D01*
X86187990Y-24372157D01*
X86130990Y-24365113D01*
X86065989Y-24376132D01*
X86002762Y-24410451D01*
X85968100Y-24444546D01*
X85942060Y-24489102D01*
X85924818Y-24546555D01*
X85710495Y-24546555D01*
X85723288Y-24470212D01*
X85749164Y-24399362D01*
X85788539Y-24332846D01*
X85842661Y-24269858D01*
X85906394Y-24217086D01*
X85973507Y-24180491D01*
X86045021Y-24158649D01*
X86122380Y-24151248D01*
X86220236Y-24160045D01*
X86304624Y-24185215D01*
X86378109Y-24226023D01*
X86442491Y-24283231D01*
X86496337Y-24352979D01*
X86533508Y-24424759D01*
X86555533Y-24499538D01*
X86562933Y-24578612D01*
X86554600Y-24663509D01*
X86529411Y-24746590D01*
X86501826Y-24796997D01*
X86461014Y-24843925D01*
X86404755Y-24887823D01*
X86462821Y-24932659D01*
X86507227Y-24982272D01*
X86539578Y-25037117D01*
X86570467Y-25126925D01*
X86580519Y-25216177D01*
X86571651Y-25319547D01*
X86546398Y-25408067D01*
X86505730Y-25484477D01*
X86449177Y-25550759D01*
X86379869Y-25605203D01*
X86304048Y-25643757D01*
X86220361Y-25667237D01*
X86126960Y-25675323D01*
X86029210Y-25664412D01*
X85938817Y-25632011D01*
X85853560Y-25576954D01*
X85800000Y-25523934D01*
X85756925Y-25459731D01*
X85724121Y-25382588D01*
X85702252Y-25290091D01*
X85916575Y-25290091D01*
X85952502Y-25361331D01*
X85996809Y-25414472D01*
X86033169Y-25439605D01*
X86079866Y-25455628D01*
X86139874Y-25461458D01*
X86197096Y-25454443D01*
X86249376Y-25433611D01*
X86298235Y-25397985D01*
X86335824Y-25351592D01*
X86358970Y-25294381D01*
X86367203Y-25223138D01*
X86358986Y-25151058D01*
X86335955Y-25093485D01*
X86298693Y-25047100D01*
X86249963Y-25011763D01*
X86196105Y-24990789D01*
X86135386Y-24983627D01*
X86044803Y-24983627D01*
G37*
G36*
X87051572Y-24983627D02*
G01*
X87051572Y-24796049D01*
X87125486Y-24796049D01*
X87194220Y-24788780D01*
X87249499Y-24768437D01*
X87294288Y-24735782D01*
X87328624Y-24692220D01*
X87349238Y-24641868D01*
X87356387Y-24582642D01*
X87349072Y-24524181D01*
X87327731Y-24473281D01*
X87291723Y-24428036D01*
X87245522Y-24392875D01*
X87194759Y-24372157D01*
X87137759Y-24365113D01*
X87072758Y-24376132D01*
X87009531Y-24410451D01*
X86974869Y-24444546D01*
X86948829Y-24489102D01*
X86931587Y-24546555D01*
X86717264Y-24546555D01*
X86730057Y-24470212D01*
X86755933Y-24399362D01*
X86795308Y-24332846D01*
X86849430Y-24269858D01*
X86913163Y-24217086D01*
X86980276Y-24180491D01*
X87051790Y-24158649D01*
X87129149Y-24151248D01*
X87227005Y-24160045D01*
X87311393Y-24185215D01*
X87384878Y-24226023D01*
X87449260Y-24283231D01*
X87503106Y-24352979D01*
X87540277Y-24424759D01*
X87562302Y-24499538D01*
X87569702Y-24578612D01*
X87561369Y-24663509D01*
X87536180Y-24746590D01*
X87508595Y-24796997D01*
X87467783Y-24843925D01*
X87411524Y-24887823D01*
X87469590Y-24932659D01*
X87513996Y-24982272D01*
X87546347Y-25037117D01*
X87577236Y-25126925D01*
X87587288Y-25216177D01*
X87578421Y-25319547D01*
X87553167Y-25408067D01*
X87512499Y-25484477D01*
X87455946Y-25550759D01*
X87386638Y-25605203D01*
X87310817Y-25643757D01*
X87227130Y-25667237D01*
X87133729Y-25675323D01*
X87035979Y-25664412D01*
X86945586Y-25632011D01*
X86860329Y-25576954D01*
X86806769Y-25523934D01*
X86763694Y-25459731D01*
X86730890Y-25382588D01*
X86709021Y-25290091D01*
X86923344Y-25290091D01*
X86959271Y-25361331D01*
X87003578Y-25414472D01*
X87039938Y-25439605D01*
X87086635Y-25455628D01*
X87146643Y-25461458D01*
X87203865Y-25454443D01*
X87256145Y-25433611D01*
X87305004Y-25397985D01*
X87342593Y-25351592D01*
X87365739Y-25294381D01*
X87373972Y-25223138D01*
X87365755Y-25151058D01*
X87342724Y-25093485D01*
X87305462Y-25047100D01*
X87256732Y-25011763D01*
X87202874Y-24990789D01*
X87142155Y-24983627D01*
X87051572Y-24983627D01*
G37*
G36*
X87794558Y-24976392D02*
G01*
X87794558Y-24168833D01*
X88591492Y-24168833D01*
X88591492Y-24382698D01*
X87993861Y-24382698D01*
X87993861Y-24719662D01*
X88066190Y-24674272D01*
X88145588Y-24647079D01*
X88234195Y-24637780D01*
X88316982Y-24646215D01*
X88390450Y-24670752D01*
X88455606Y-24707736D01*
X88502374Y-24747872D01*
X88556376Y-24818464D01*
X88592683Y-24893502D01*
X88612437Y-24985693D01*
X88621076Y-25158475D01*
X88614524Y-25299972D01*
X88598911Y-25383331D01*
X88570395Y-25453765D01*
X88528661Y-25518611D01*
X88475372Y-25573399D01*
X88399243Y-25627787D01*
X88341940Y-25655305D01*
X88277448Y-25672267D01*
X88204245Y-25678162D01*
X88110336Y-25668511D01*
X88017798Y-25639206D01*
X87924984Y-25588586D01*
X87866878Y-25538706D01*
X87821100Y-25474223D01*
X87787351Y-25392336D01*
X87766898Y-25288992D01*
X87978656Y-25288992D01*
X88000709Y-25354472D01*
X88032567Y-25402157D01*
X88074104Y-25435723D01*
X88127169Y-25456719D01*
X88195269Y-25464297D01*
X88273067Y-25455986D01*
X88325801Y-25434289D01*
X88360529Y-25401473D01*
X88380833Y-25356037D01*
X88401106Y-25247637D01*
X88407761Y-25141439D01*
X88402514Y-25059073D01*
X88387903Y-24990766D01*
X88365171Y-24934168D01*
X88340030Y-24899813D01*
X88304339Y-24874453D01*
X88255387Y-24857842D01*
X88188949Y-24851645D01*
X88130100Y-24859321D01*
X88079132Y-24881731D01*
X88034007Y-24919729D01*
X87993861Y-24976392D01*
X87794558Y-24976392D01*
G37*
G04 #@! TO.C,mouse-bite-2mm-slot*
X60981928Y-39418600D02*
G75*
G02*
X62981928Y-39418600I1000000J0D01*
G01*
X62981928Y-35418600D02*
G75*
G02*
X60981928Y-35418600I-1000000J0D01*
G01*
X60981928Y-52418600D02*
G75*
G02*
X62981928Y-52418600I1000000J0D01*
G01*
X62981928Y-48418600D02*
G75*
G02*
X60981928Y-48418600I-1000000J0D01*
G01*
X105581928Y-49418600D02*
G75*
G02*
X107581928Y-49418600I1000000J0D01*
G01*
X107581928Y-45418600D02*
G75*
G02*
X105581928Y-45418600I-1000000J0D01*
G01*
X97581928Y-41418600D02*
G75*
G02*
X97581928Y-43418600I0J-1000000D01*
G01*
X101581928Y-43418600D02*
G75*
G02*
X101581928Y-41418600I0J1000000D01*
G01*
X97581928Y-28418600D02*
G75*
G02*
X97581928Y-30418600I0J-1000000D01*
G01*
X101581928Y-30418600D02*
G75*
G02*
X101581928Y-28418600I0J1000000D01*
G01*
X66981928Y-28418600D02*
G75*
G02*
X66981928Y-30418600I0J-1000000D01*
G01*
X70981928Y-30418600D02*
G75*
G02*
X70981928Y-28418600I0J1000000D01*
G01*
X66981928Y-41418600D02*
G75*
G02*
X66981928Y-43418600I0J-1000000D01*
G01*
X70981928Y-43418600D02*
G75*
G02*
X70981928Y-41418600I0J1000000D01*
G01*
X66981928Y-54418600D02*
G75*
G02*
X66981928Y-56418600I0J-1000000D01*
G01*
X70981928Y-56418600D02*
G75*
G02*
X70981928Y-54418600I0J1000000D01*
G01*
X97581928Y-54418600D02*
G75*
G02*
X97581928Y-56418600I0J-1000000D01*
G01*
X101581928Y-56418600D02*
G75*
G02*
X101581928Y-54418600I0J1000000D01*
G01*
X105581928Y-36418600D02*
G75*
G02*
X107581928Y-36418600I1000000J0D01*
G01*
X107581928Y-32418600D02*
G75*
G02*
X105581928Y-32418600I-1000000J0D01*
G01*
G04 #@! TD*
%LPC*%
D11*
G04 #@! TO.C,@HOLE0*
X103131574Y-38918600D03*
G04 #@! TD*
D12*
G04 #@! TO.C,mouse-bite-2mm-slot*
X61231928Y-38168600D03*
X62731928Y-38168600D03*
X61231928Y-37418600D03*
X62731928Y-37418600D03*
X61231928Y-36668600D03*
X62731928Y-36668600D03*
G04 #@! TD*
D11*
G04 #@! TO.C,@HOLE0*
X103131574Y-51918600D03*
G04 #@! TD*
D12*
G04 #@! TO.C,mouse-bite-2mm-slot*
X61231928Y-51168600D03*
X62731928Y-51168600D03*
X61231928Y-50418600D03*
X62731928Y-50418600D03*
X61231928Y-49668600D03*
X62731928Y-49668600D03*
G04 #@! TD*
D11*
G04 #@! TO.C,@HOLE0*
X65432282Y-45918600D03*
G04 #@! TD*
G04 #@! TO.C,@HOLE0*
X65432282Y-32918600D03*
G04 #@! TD*
D12*
G04 #@! TO.C,mouse-bite-2mm-slot*
X107331928Y-46668600D03*
X105831928Y-46668600D03*
X107331928Y-47418600D03*
X105831928Y-47418600D03*
X107331928Y-48168600D03*
X105831928Y-48168600D03*
G04 #@! TD*
G04 #@! TO.C,mouse-bite-2mm-slot*
X100331928Y-43168600D03*
X100331928Y-41668600D03*
X99581928Y-43168600D03*
X99581928Y-41668600D03*
X98831928Y-43168600D03*
X98831928Y-41668600D03*
G04 #@! TD*
G04 #@! TO.C,mouse-bite-2mm-slot*
X100331928Y-30168600D03*
X100331928Y-28668600D03*
X99581928Y-30168600D03*
X99581928Y-28668600D03*
X98831928Y-30168600D03*
X98831928Y-28668600D03*
G04 #@! TD*
G04 #@! TO.C,mouse-bite-2mm-slot*
X68231928Y-28668600D03*
X68231928Y-30168600D03*
X68981928Y-28668600D03*
X68981928Y-30168600D03*
X69731928Y-28668600D03*
X69731928Y-30168600D03*
G04 #@! TD*
G04 #@! TO.C,mouse-bite-2mm-slot*
X68231928Y-41668600D03*
X68231928Y-43168600D03*
X68981928Y-41668600D03*
X68981928Y-43168600D03*
X69731928Y-41668600D03*
X69731928Y-43168600D03*
G04 #@! TD*
G04 #@! TO.C,mouse-bite-2mm-slot*
X68231928Y-54668600D03*
X68231928Y-56168600D03*
X68981928Y-54668600D03*
X68981928Y-56168600D03*
X69731928Y-54668600D03*
X69731928Y-56168600D03*
G04 #@! TD*
G04 #@! TO.C,mouse-bite-2mm-slot*
X100331928Y-56168600D03*
X100331928Y-54668600D03*
X99581928Y-56168600D03*
X99581928Y-54668600D03*
X98831928Y-56168600D03*
X98831928Y-54668600D03*
G04 #@! TD*
G04 #@! TO.C,mouse-bite-2mm-slot*
X107331928Y-33668600D03*
X105831928Y-33668600D03*
X107331928Y-34418600D03*
X105831928Y-34418600D03*
X107331928Y-35168600D03*
X105831928Y-35168600D03*
G04 #@! TD*
%LPD*%
M02*
