M48
; DRILL file {KiCad 9.0.3} date 2026-01-26T15:41:31+0000
; FORMAT={-:-/ absolute / metric / decimal}
; #@! TF.CreationDate,2026-01-26T15:41:31+00:00
; #@! TF.GenerationSoftware,Kicad,Pcbnew,9.0.3
; #@! TF.FileFunction,NonPlated,1,2,NPTH
FMAT,2
METRIC
; #@! TA.AperFunction,NonPlated,NPTH,ComponentDrill
T1C0.500
; #@! TA.AperFunction,NonPlated,NPTH,ComponentDrill
T2C3.200
%
G90
G05
T1
X61.232Y-36.669
X61.232Y-37.419
X61.232Y-38.169
X61.232Y-49.669
X61.232Y-50.419
X61.232Y-51.169
X62.732Y-36.669
X62.732Y-37.419
X62.732Y-38.169
X62.732Y-49.669
X62.732Y-50.419
X62.732Y-51.169
X68.232Y-28.669
X68.232Y-30.169
X68.232Y-41.669
X68.232Y-43.169
X68.232Y-54.669
X68.232Y-56.169
X68.982Y-28.669
X68.982Y-30.169
X68.982Y-41.669
X68.982Y-43.169
X68.982Y-54.669
X68.982Y-56.169
X69.732Y-28.669
X69.732Y-30.169
X69.732Y-41.669
X69.732Y-43.169
X69.732Y-54.669
X69.732Y-56.169
X98.832Y-28.669
X98.832Y-30.169
X98.832Y-41.669
X98.832Y-43.169
X98.832Y-54.669
X98.832Y-56.169
X99.582Y-28.669
X99.582Y-30.169
X99.582Y-41.669
X99.582Y-43.169
X99.582Y-54.669
X99.582Y-56.169
X100.332Y-28.669
X100.332Y-30.169
X100.332Y-41.669
X100.332Y-43.169
X100.332Y-54.669
X100.332Y-56.169
X105.832Y-33.669
X105.832Y-34.419
X105.832Y-35.169
X105.832Y-46.669
X105.832Y-47.419
X105.832Y-48.169
X107.332Y-33.669
X107.332Y-34.419
X107.332Y-35.169
X107.332Y-46.669
X107.332Y-47.419
X107.332Y-48.169
T2
X65.432Y-32.919
X65.432Y-45.919
X103.132Y-38.919
X103.132Y-51.919
M30
